<?xml version="1.0" encoding="UTF-8"?>
<svg xmlns="http://www.w3.org/2000/svg" xmlns:xlink="http://www.w3.org/1999/xlink" width="163.617pt" height="141.362pt" viewBox="0 0 163.617 141.362">
<defs>
<g>
<g id="glyph-0-0">
<path d="M 1.734375 -0.734375 C 1.671875 -0.5 1.4375 -0.125 1.078125 -0.125 C 1.0625 -0.125 0.84375 -0.125 0.703125 -0.21875 C 0.984375 -0.3125 1.015625 -0.5625 1.015625 -0.609375 C 1.015625 -0.765625 0.890625 -0.859375 0.734375 -0.859375 C 0.53125 -0.859375 0.328125 -0.703125 0.328125 -0.4375 C 0.328125 -0.09375 0.71875 0.0625 1.0625 0.0625 C 1.390625 0.0625 1.671875 -0.125 1.84375 -0.421875 C 2.015625 -0.0625 2.390625 0.0625 2.671875 0.0625 C 3.484375 0.0625 3.90625 -0.796875 3.90625 -1 C 3.90625 -1.09375 3.8125 -1.09375 3.796875 -1.09375 C 3.6875 -1.09375 3.6875 -1.046875 3.65625 -0.96875 C 3.515625 -0.484375 3.09375 -0.125 2.703125 -0.125 C 2.421875 -0.125 2.28125 -0.3125 2.28125 -0.578125 C 2.28125 -0.765625 2.453125 -1.390625 2.640625 -2.171875 C 2.78125 -2.703125 3.09375 -2.875 3.328125 -2.875 C 3.34375 -2.875 3.546875 -2.875 3.703125 -2.78125 C 3.484375 -2.71875 3.390625 -2.515625 3.390625 -2.390625 C 3.390625 -2.25 3.515625 -2.140625 3.671875 -2.140625 C 3.828125 -2.140625 4.0625 -2.265625 4.0625 -2.5625 C 4.0625 -2.953125 3.609375 -3.078125 3.34375 -3.078125 C 2.984375 -3.078125 2.703125 -2.84375 2.5625 -2.578125 C 2.4375 -2.859375 2.109375 -3.078125 1.71875 -3.078125 C 0.9375 -3.078125 0.5 -2.21875 0.5 -2 C 0.5 -1.921875 0.59375 -1.921875 0.609375 -1.921875 C 0.703125 -1.921875 0.703125 -1.9375 0.75 -2.03125 C 0.921875 -2.578125 1.359375 -2.875 1.703125 -2.875 C 1.9375 -2.875 2.125 -2.75 2.125 -2.421875 C 2.125 -2.28125 2.03125 -1.9375 1.96875 -1.6875 Z M 1.734375 -0.734375 "/>
</g>
<g id="glyph-0-1">
<path d="M 3.875 -2.625 C 3.90625 -2.71875 3.90625 -2.734375 3.90625 -2.78125 C 3.90625 -2.921875 3.796875 -3 3.671875 -3 C 3.59375 -3 3.46875 -2.96875 3.390625 -2.84375 C 3.359375 -2.796875 3.3125 -2.578125 3.28125 -2.4375 L 3.125 -1.859375 C 3.09375 -1.6875 2.875 -0.8125 2.84375 -0.734375 C 2.84375 -0.734375 2.53125 -0.125 2 -0.125 C 1.515625 -0.125 1.515625 -0.578125 1.515625 -0.703125 C 1.515625 -1.078125 1.671875 -1.515625 1.890625 -2.0625 C 1.96875 -2.28125 2 -2.359375 2 -2.484375 C 2 -2.8125 1.71875 -3.078125 1.34375 -3.078125 C 0.640625 -3.078125 0.328125 -2.125 0.328125 -2 C 0.328125 -1.921875 0.421875 -1.921875 0.453125 -1.921875 C 0.546875 -1.921875 0.546875 -1.953125 0.578125 -2.03125 C 0.75 -2.609375 1.046875 -2.875 1.328125 -2.875 C 1.4375 -2.875 1.5 -2.796875 1.5 -2.640625 C 1.5 -2.46875 1.4375 -2.328125 1.40625 -2.234375 C 1.0625 -1.375 1 -1.125 1 -0.8125 C 1 -0.703125 1 -0.375 1.265625 -0.140625 C 1.484375 0.03125 1.78125 0.0625 1.96875 0.0625 C 2.25 0.0625 2.5 -0.03125 2.71875 -0.25 C 2.640625 0.140625 2.5625 0.4375 2.265625 0.78125 C 2.078125 1 1.796875 1.21875 1.421875 1.21875 C 1.375 1.21875 1.046875 1.21875 0.90625 1 C 1.28125 0.953125 1.28125 0.625 1.28125 0.609375 C 1.28125 0.390625 1.078125 0.34375 1.015625 0.34375 C 0.84375 0.34375 0.609375 0.484375 0.609375 0.8125 C 0.609375 1.15625 0.9375 1.421875 1.4375 1.421875 C 2.140625 1.421875 3 0.875 3.21875 0 Z M 3.875 -2.625 "/>
</g>
<g id="glyph-1-0">
<path d="M 2.9375 -0.96875 L 2.71875 -0.96875 C 2.71875 -0.875 2.65625 -0.5625 2.578125 -0.515625 C 2.546875 -0.484375 2.125 -0.484375 2.046875 -0.484375 L 1.078125 -0.484375 C 1.40625 -0.71875 1.765625 -1 2.0625 -1.203125 C 2.515625 -1.515625 2.9375 -1.796875 2.9375 -2.328125 C 2.9375 -2.96875 2.328125 -3.3125 1.625 -3.3125 C 0.953125 -3.3125 0.453125 -2.9375 0.453125 -2.4375 C 0.453125 -2.1875 0.671875 -2.140625 0.75 -2.140625 C 0.875 -2.140625 1.03125 -2.234375 1.03125 -2.4375 C 1.03125 -2.609375 0.90625 -2.71875 0.75 -2.71875 C 0.890625 -2.953125 1.1875 -3.09375 1.515625 -3.09375 C 2 -3.09375 2.40625 -2.8125 2.40625 -2.328125 C 2.40625 -1.90625 2.109375 -1.578125 1.734375 -1.265625 L 0.515625 -0.234375 C 0.46875 -0.1875 0.453125 -0.1875 0.453125 -0.15625 L 0.453125 0 L 2.765625 0 Z M 2.9375 -0.96875 "/>
</g>
<g id="glyph-1-1">
<path d="M 1.640625 -1.65625 C 2.109375 -1.65625 2.40625 -1.359375 2.40625 -0.875 C 2.40625 -0.359375 2.09375 -0.09375 1.65625 -0.09375 C 1.59375 -0.09375 1 -0.09375 0.75 -0.359375 C 0.953125 -0.390625 1.015625 -0.53125 1.015625 -0.65625 C 1.015625 -0.84375 0.875 -0.96875 0.703125 -0.96875 C 0.546875 -0.96875 0.40625 -0.859375 0.40625 -0.640625 C 0.40625 -0.125 0.984375 0.109375 1.671875 0.109375 C 2.484375 0.109375 2.984375 -0.390625 2.984375 -0.875 C 2.984375 -1.28125 2.625 -1.625 2.0625 -1.75 C 2.65625 -1.953125 2.8125 -2.328125 2.8125 -2.609375 C 2.8125 -3.015625 2.3125 -3.3125 1.6875 -3.3125 C 1.0625 -3.3125 0.578125 -3.0625 0.578125 -2.609375 C 0.578125 -2.375 0.765625 -2.3125 0.859375 -2.3125 C 1 -2.3125 1.140625 -2.421875 1.140625 -2.609375 C 1.140625 -2.71875 1.078125 -2.859375 0.90625 -2.890625 C 1.109375 -3.109375 1.5625 -3.125 1.671875 -3.125 C 2.03125 -3.125 2.28125 -2.953125 2.28125 -2.609375 C 2.28125 -2.3125 2.09375 -1.859375 1.578125 -1.828125 C 1.4375 -1.828125 1.421875 -1.828125 1.28125 -1.8125 C 1.234375 -1.8125 1.171875 -1.8125 1.171875 -1.734375 C 1.171875 -1.65625 1.21875 -1.65625 1.3125 -1.65625 Z M 1.640625 -1.65625 "/>
</g>
<g id="glyph-1-2">
<path d="M 3.078125 -0.8125 L 3.078125 -1.03125 L 2.453125 -1.03125 L 2.453125 -3.21875 C 2.453125 -3.34375 2.453125 -3.375 2.3125 -3.375 C 2.21875 -3.375 2.21875 -3.375 2.15625 -3.296875 L 0.3125 -1.03125 L 0.3125 -0.8125 L 1.96875 -0.8125 L 1.96875 -0.421875 C 1.96875 -0.265625 1.96875 -0.21875 1.546875 -0.21875 L 1.359375 -0.21875 L 1.359375 0 C 1.59375 -0.015625 1.921875 -0.015625 2.21875 -0.015625 C 2.5 -0.015625 2.828125 -0.015625 3.0625 0 L 3.0625 -0.21875 L 2.890625 -0.21875 C 2.453125 -0.21875 2.453125 -0.265625 2.453125 -0.421875 L 2.453125 -0.8125 Z M 2.015625 -2.84375 L 2.015625 -1.03125 L 0.546875 -1.03125 Z M 2.015625 -2.84375 "/>
</g>
<g id="glyph-2-0">
<path d="M 2.328125 -4.4375 C 2.328125 -4.625 2.328125 -4.625 2.125 -4.625 C 1.671875 -4.1875 1.046875 -4.1875 0.765625 -4.1875 L 0.765625 -3.9375 C 0.921875 -3.9375 1.390625 -3.9375 1.765625 -4.125 L 1.765625 -0.578125 C 1.765625 -0.34375 1.765625 -0.25 1.078125 -0.25 L 0.8125 -0.25 L 0.8125 0 C 0.9375 0 1.796875 -0.03125 2.046875 -0.03125 C 2.265625 -0.03125 3.140625 0 3.296875 0 L 3.296875 -0.25 L 3.03125 -0.25 C 2.328125 -0.25 2.328125 -0.34375 2.328125 -0.578125 Z M 2.328125 -4.4375 "/>
</g>
<g id="glyph-3-0">
<path d="M 3.875 0 L 3.875 -0.28125 L 3.59375 -0.28125 C 2.75 -0.28125 2.71875 -0.390625 2.71875 -0.71875 L 2.71875 -5.734375 C 2.71875 -5.953125 2.71875 -5.96875 2.5 -5.96875 C 1.9375 -5.40625 1.109375 -5.40625 0.828125 -5.40625 L 0.828125 -5.125 C 1 -5.125 1.546875 -5.125 2.03125 -5.359375 L 2.03125 -0.71875 C 2.03125 -0.390625 2.015625 -0.28125 1.171875 -0.28125 L 0.890625 -0.28125 L 0.890625 0 C 1.203125 -0.03125 2.015625 -0.03125 2.375 -0.03125 C 2.75 -0.03125 3.546875 -0.03125 3.875 0 Z M 3.875 0 "/>
</g>
<g id="glyph-3-1">
<path d="M 4.140625 -1.59375 L 3.890625 -1.59375 C 3.875 -1.46875 3.796875 -0.9375 3.6875 -0.796875 C 3.625 -0.71875 3.015625 -0.71875 2.828125 -0.71875 L 1.234375 -0.71875 L 2.125 -1.5625 C 3.59375 -2.828125 4.140625 -3.3125 4.140625 -4.21875 C 4.140625 -5.25 3.296875 -5.96875 2.1875 -5.96875 C 1.15625 -5.96875 0.453125 -5.15625 0.453125 -4.34375 C 0.453125 -3.890625 0.84375 -3.84375 0.921875 -3.84375 C 1.125 -3.84375 1.390625 -3.984375 1.390625 -4.3125 C 1.390625 -4.578125 1.203125 -4.78125 0.921875 -4.78125 C 0.875 -4.78125 0.859375 -4.78125 0.8125 -4.765625 C 1.03125 -5.40625 1.609375 -5.6875 2.09375 -5.6875 C 3 -5.6875 3.3125 -4.84375 3.3125 -4.21875 C 3.3125 -3.3125 2.625 -2.5625 2.203125 -2.09375 L 0.5625 -0.328125 C 0.453125 -0.21875 0.453125 -0.203125 0.453125 0 L 3.890625 0 Z M 4.140625 -1.59375 "/>
</g>
<g id="glyph-4-0">
<path d="M 0.421875 0.96875 C 0.34375 1.21875 0.328125 1.28125 0.015625 1.28125 C -0.09375 1.28125 -0.1875 1.28125 -0.1875 1.4375 C -0.1875 1.5 -0.125 1.546875 -0.078125 1.546875 C 0 1.546875 0.03125 1.515625 0.625 1.515625 C 1.1875 1.515625 1.359375 1.546875 1.421875 1.546875 C 1.453125 1.546875 1.5625 1.546875 1.5625 1.390625 C 1.5625 1.28125 1.453125 1.28125 1.359375 1.28125 C 0.984375 1.28125 0.984375 1.234375 0.984375 1.15625 C 0.984375 1.109375 1.125 0.546875 1.359375 -0.390625 C 1.46875 -0.203125 1.71875 0.078125 2.140625 0.078125 C 3.125 0.078125 4.140625 -1.046875 4.140625 -2.203125 C 4.140625 -3 3.640625 -3.515625 3 -3.515625 C 2.515625 -3.515625 2.140625 -3.1875 1.90625 -2.953125 C 1.734375 -3.515625 1.203125 -3.515625 1.125 -3.515625 C 0.84375 -3.515625 0.640625 -3.328125 0.515625 -3.078125 C 0.328125 -2.71875 0.234375 -2.3125 0.234375 -2.296875 C 0.234375 -2.21875 0.296875 -2.1875 0.359375 -2.1875 C 0.46875 -2.1875 0.46875 -2.21875 0.53125 -2.4375 C 0.625 -2.84375 0.765625 -3.296875 1.09375 -3.296875 C 1.296875 -3.296875 1.359375 -3.109375 1.359375 -2.921875 C 1.359375 -2.84375 1.328125 -2.640625 1.3125 -2.578125 Z M 1.875 -2.453125 C 1.921875 -2.59375 1.921875 -2.609375 2.046875 -2.75 C 2.34375 -3.109375 2.6875 -3.296875 2.96875 -3.296875 C 3.375 -3.296875 3.515625 -2.90625 3.515625 -2.546875 C 3.515625 -2.25 3.34375 -1.390625 3.109375 -0.921875 C 2.90625 -0.5 2.515625 -0.140625 2.140625 -0.140625 C 1.609375 -0.140625 1.46875 -0.765625 1.46875 -0.828125 C 1.46875 -0.84375 1.484375 -0.921875 1.5 -0.953125 Z M 1.875 -2.453125 "/>
</g>
<g id="glyph-5-0">
<path d="M 2.78125 -0.84375 C 2.9375 -0.734375 2.953125 -0.734375 2.984375 -0.734375 C 3.09375 -0.734375 3.1875 -0.828125 3.1875 -0.953125 C 3.1875 -1.0625 3.09375 -1.09375 3.046875 -1.125 C 2.75 -1.25 2.4375 -1.375 2.125 -1.484375 C 2.734375 -1.734375 2.90625 -1.796875 3.015625 -1.84375 C 3.109375 -1.890625 3.1875 -1.921875 3.1875 -2.046875 C 3.1875 -2.15625 3.09375 -2.25 2.984375 -2.25 C 2.9375 -2.25 2.90625 -2.21875 2.859375 -2.203125 L 2.015625 -1.65625 C 2.015625 -1.734375 2.046875 -1.953125 2.046875 -2.015625 C 2.0625 -2.140625 2.109375 -2.5 2.109375 -2.609375 C 2.109375 -2.703125 2.015625 -2.78125 1.90625 -2.78125 C 1.8125 -2.78125 1.71875 -2.703125 1.71875 -2.609375 C 1.71875 -2.59375 1.765625 -2.046875 1.765625 -2.03125 C 1.78125 -1.96875 1.796875 -1.734375 1.8125 -1.65625 L 0.953125 -2.203125 C 0.90625 -2.21875 0.875 -2.25 0.828125 -2.25 C 0.71875 -2.25 0.625 -2.15625 0.625 -2.046875 C 0.625 -1.921875 0.71875 -1.890625 0.765625 -1.859375 C 1.078125 -1.734375 1.375 -1.609375 1.6875 -1.5 C 1.078125 -1.25 0.90625 -1.1875 0.796875 -1.140625 C 0.71875 -1.09375 0.625 -1.0625 0.625 -0.953125 C 0.625 -0.828125 0.71875 -0.734375 0.828125 -0.734375 C 0.875 -0.734375 0.96875 -0.796875 1.046875 -0.84375 C 1.125 -0.890625 1.328125 -1.03125 1.40625 -1.078125 C 1.609375 -1.203125 1.6875 -1.25 1.8125 -1.328125 C 1.796875 -1.25 1.78125 -1.03125 1.765625 -0.96875 L 1.71875 -0.390625 C 1.71875 -0.28125 1.8125 -0.203125 1.90625 -0.203125 C 2.015625 -0.203125 2.109375 -0.28125 2.109375 -0.390625 C 2.109375 -0.390625 2.046875 -0.921875 2.046875 -0.953125 C 2.046875 -1.015625 2.015625 -1.25 2.015625 -1.328125 Z M 2.78125 -0.84375 "/>
</g>
<g id="glyph-6-0">
<path d="M 1.875 -0.890625 C 1.765625 -0.46875 1.75 -0.34375 0.90625 -0.34375 C 0.6875 -0.34375 0.5625 -0.34375 0.5625 -0.125 C 0.5625 0 0.640625 0 0.875 0 L 4.65625 0 C 7.078125 0 9.4375 -2.5 9.4375 -5.15625 C 9.4375 -6.890625 8.40625 -8.15625 6.6875 -8.15625 L 2.859375 -8.15625 C 2.625 -8.15625 2.515625 -8.15625 2.515625 -7.9375 C 2.515625 -7.8125 2.625 -7.8125 2.8125 -7.8125 C 3.53125 -7.8125 3.53125 -7.71875 3.53125 -7.59375 C 3.53125 -7.5625 3.53125 -7.5 3.484375 -7.3125 Z M 4.40625 -7.34375 C 4.5 -7.796875 4.546875 -7.8125 5.015625 -7.8125 L 6.328125 -7.8125 C 7.453125 -7.8125 8.484375 -7.203125 8.484375 -5.5625 C 8.484375 -4.953125 8.25 -2.875 7.09375 -1.5625 C 6.75 -1.171875 5.84375 -0.34375 4.46875 -0.34375 L 3.109375 -0.34375 C 2.9375 -0.34375 2.921875 -0.34375 2.84375 -0.359375 C 2.71875 -0.375 2.703125 -0.390625 2.703125 -0.484375 C 2.703125 -0.578125 2.71875 -0.640625 2.75 -0.75 Z M 4.40625 -7.34375 "/>
</g>
<g id="glyph-7-0">
<path d="M 2.109375 -3.78125 C 2.15625 -3.875 2.1875 -3.9375 2.1875 -4.015625 C 2.1875 -4.28125 1.9375 -4.453125 1.71875 -4.453125 C 1.40625 -4.453125 1.3125 -4.171875 1.28125 -4.0625 L 0.265625 -0.625 C 0.234375 -0.53125 0.234375 -0.515625 0.234375 -0.5 C 0.234375 -0.4375 0.28125 -0.421875 0.359375 -0.390625 C 0.515625 -0.328125 0.53125 -0.328125 0.546875 -0.328125 C 0.5625 -0.328125 0.609375 -0.328125 0.671875 -0.46875 Z M 2.109375 -3.78125 "/>
</g>
<g id="glyph-8-0">
<path d="M 2.640625 -2.875 C 3.09375 -3.09375 3.640625 -3.484375 3.640625 -4.109375 C 3.640625 -4.875 2.859375 -5.296875 2.125 -5.296875 C 1.28125 -5.296875 0.59375 -4.71875 0.59375 -3.96875 C 0.59375 -3.671875 0.6875 -3.40625 0.890625 -3.171875 C 1.03125 -3 1.0625 -2.984375 1.546875 -2.671875 C 0.5625 -2.234375 0.34375 -1.65625 0.34375 -1.21875 C 0.34375 -0.328125 1.234375 0.171875 2.109375 0.171875 C 3.078125 0.171875 3.875 -0.5 3.875 -1.34375 C 3.875 -1.84375 3.609375 -2.171875 3.46875 -2.3125 C 3.34375 -2.4375 3.328125 -2.453125 2.640625 -2.875 Z M 1.40625 -3.625 C 1.171875 -3.765625 0.984375 -4 0.984375 -4.265625 C 0.984375 -4.765625 1.53125 -5.09375 2.109375 -5.09375 C 2.71875 -5.09375 3.234375 -4.671875 3.234375 -4.109375 C 3.234375 -3.65625 2.875 -3.265625 2.40625 -3.03125 Z M 1.796875 -2.53125 C 1.828125 -2.515625 2.734375 -1.953125 2.875 -1.875 C 3 -1.796875 3.421875 -1.546875 3.421875 -1.0625 C 3.421875 -0.453125 2.765625 -0.078125 2.125 -0.078125 C 1.40625 -0.078125 0.8125 -0.5625 0.8125 -1.21875 C 0.8125 -1.8125 1.25 -2.28125 1.796875 -2.53125 Z M 1.796875 -2.53125 "/>
</g>
</g>
</defs>
<path fill-rule="nonzero" fill="rgb(92.001343%, 97.427368%, 99.497986%)" fill-opacity="1" d="M 79.550781 46.929688 L 22.855469 46.929688 L 22.855469 103.621094 L 136.242188 103.621094 L 136.242188 75.273438 Z M 79.550781 46.929688 "/>
<path fill="none" stroke-width="0.29889" stroke-linecap="butt" stroke-linejoin="miter" stroke="rgb(79.998779%, 79.998779%, 79.998779%)" stroke-opacity="1" stroke-miterlimit="10" d="M -0.00153125 -0.00009375 L 113.385188 -0.00009375 M -0.00153125 28.347563 L 113.385188 28.347563 M -0.00153125 56.6835 L 113.385188 56.6835 M -0.00153125 -0.00009375 L -0.00153125 56.691313 M 28.346125 -0.00009375 L 28.346125 56.691313 M 56.693781 -0.00009375 L 56.693781 56.691313 M 85.037531 -0.00009375 L 85.037531 56.691313 M 113.377375 -0.00009375 L 113.377375 56.691313 " transform="matrix(1, 0, 0, -1, 22.857, 103.621)"/>
<path fill="none" stroke-width="0.99628" stroke-linecap="round" stroke-linejoin="round" stroke="rgb(0%, 0%, 0%)" stroke-opacity="1" stroke-miterlimit="10" d="M 113.385188 28.347563 L 56.693781 56.691313 " transform="matrix(1, 0, 0, -1, 22.857, 103.621)"/>
<path fill="none" stroke-width="1.99254" stroke-linecap="round" stroke-linejoin="round" stroke="rgb(0%, 0%, 0%)" stroke-opacity="1" stroke-miterlimit="10" d="M 56.693781 56.691313 L -0.00153125 56.691313 " transform="matrix(1, 0, 0, -1, 22.857, 103.621)"/>
<path fill="none" stroke-width="0.79703" stroke-linecap="butt" stroke-linejoin="miter" stroke="rgb(54.998779%, 54.998779%, 54.998779%)" stroke-opacity="1" stroke-miterlimit="10" d="M -0.00153125 56.691313 L -0.00153125 -0.00009375 " transform="matrix(1, 0, 0, -1, 22.857, 103.621)"/>
<path fill="none" stroke-width="0.59778" stroke-linecap="butt" stroke-linejoin="miter" stroke="rgb(0%, 0%, 0%)" stroke-opacity="1" stroke-miterlimit="10" d="M -0.00153125 28.347563 L -0.00153125 -0.00009375 " transform="matrix(1, 0, 0, -1, 22.857, 103.621)"/>
<path fill="none" stroke-width="0.79703" stroke-linecap="butt" stroke-linejoin="miter" stroke="rgb(54.998779%, 54.998779%, 54.998779%)" stroke-opacity="1" stroke-miterlimit="10" d="M -0.00153125 -0.00009375 L 113.385188 -0.00009375 " transform="matrix(1, 0, 0, -1, 22.857, 103.621)"/>
<path fill="none" stroke-width="0.59778" stroke-linecap="butt" stroke-linejoin="miter" stroke="rgb(0%, 0%, 0%)" stroke-opacity="1" stroke-miterlimit="10" d="M -0.00153125 -0.00009375 L 28.346125 -0.00009375 " transform="matrix(1, 0, 0, -1, 22.857, 103.621)"/>
<path fill="none" stroke-width="0.59778" stroke-linecap="butt" stroke-linejoin="miter" stroke="rgb(0%, 0%, 0%)" stroke-opacity="1" stroke-miterlimit="10" d="M 28.346125 -0.00009375 L 56.693781 -0.00009375 " transform="matrix(1, 0, 0, -1, 22.857, 103.621)"/>
<path fill="none" stroke-width="0.59778" stroke-linecap="butt" stroke-linejoin="miter" stroke="rgb(0%, 0%, 0%)" stroke-opacity="1" stroke-miterlimit="10" d="M 56.693781 -0.00009375 L 85.037531 -0.00009375 " transform="matrix(1, 0, 0, -1, 22.857, 103.621)"/>
<path fill="none" stroke-width="0.59778" stroke-linecap="butt" stroke-linejoin="miter" stroke="rgb(0%, 0%, 0%)" stroke-opacity="1" stroke-miterlimit="10" d="M 85.037531 -0.00009375 L 113.385188 -0.00009375 " transform="matrix(1, 0, 0, -1, 22.857, 103.621)"/>
<path fill="none" stroke-width="0.79703" stroke-linecap="butt" stroke-linejoin="miter" stroke="rgb(54.998779%, 54.998779%, 54.998779%)" stroke-opacity="1" stroke-miterlimit="10" d="M 113.385188 -0.00009375 L 113.385188 28.347563 " transform="matrix(1, 0, 0, -1, 22.857, 103.621)"/>
<path fill="none" stroke-width="0.59778" stroke-linecap="butt" stroke-linejoin="miter" stroke="rgb(0%, 0%, 0%)" stroke-opacity="1" stroke-miterlimit="10" d="M -0.00153125 -0.00009375 L 28.346125 28.347563 " transform="matrix(1, 0, 0, -1, 22.857, 103.621)"/>
<path fill="none" stroke-width="0.59778" stroke-linecap="butt" stroke-linejoin="miter" stroke="rgb(0%, 0%, 0%)" stroke-opacity="1" stroke-miterlimit="10" d="M 113.385188 -0.00009375 L 85.037531 28.347563 " transform="matrix(1, 0, 0, -1, 22.857, 103.621)"/>
<path fill-rule="nonzero" fill="rgb(54.998779%, 54.998779%, 54.998779%)" fill-opacity="1" d="M 24.351562 103.621094 C 24.351562 102.796875 23.683594 102.125 22.855469 102.125 C 22.03125 102.125 21.363281 102.796875 21.363281 103.621094 C 21.363281 104.445312 22.03125 105.117188 22.855469 105.117188 C 23.683594 105.117188 24.351562 104.445312 24.351562 103.621094 Z M 24.351562 103.621094 "/>
<path fill-rule="nonzero" fill="rgb(54.998779%, 54.998779%, 54.998779%)" fill-opacity="1" d="M 24.351562 75.273438 C 24.351562 74.449219 23.683594 73.78125 22.855469 73.78125 C 22.03125 73.78125 21.363281 74.449219 21.363281 75.273438 C 21.363281 76.101562 22.03125 76.769531 22.855469 76.769531 C 23.683594 76.769531 24.351562 76.101562 24.351562 75.273438 Z M 24.351562 75.273438 "/>
<path fill-rule="nonzero" fill="rgb(54.998779%, 54.998779%, 54.998779%)" fill-opacity="1" d="M 24.351562 46.929688 C 24.351562 46.101562 23.683594 45.433594 22.855469 45.433594 C 22.03125 45.433594 21.363281 46.101562 21.363281 46.929688 C 21.363281 47.753906 22.03125 48.421875 22.855469 48.421875 C 23.683594 48.421875 24.351562 47.753906 24.351562 46.929688 Z M 24.351562 46.929688 "/>
<path fill-rule="nonzero" fill="rgb(54.998779%, 54.998779%, 54.998779%)" fill-opacity="1" d="M 52.699219 103.621094 C 52.699219 102.796875 52.027344 102.125 51.203125 102.125 C 50.378906 102.125 49.710938 102.796875 49.710938 103.621094 C 49.710938 104.445312 50.378906 105.117188 51.203125 105.117188 C 52.027344 105.117188 52.699219 104.445312 52.699219 103.621094 Z M 52.699219 103.621094 "/>
<path fill-rule="nonzero" fill="rgb(54.998779%, 54.998779%, 54.998779%)" fill-opacity="1" d="M 52.699219 75.273438 C 52.699219 74.449219 52.027344 73.78125 51.203125 73.78125 C 50.378906 73.78125 49.710938 74.449219 49.710938 75.273438 C 49.710938 76.101562 50.378906 76.769531 51.203125 76.769531 C 52.027344 76.769531 52.699219 76.101562 52.699219 75.273438 Z M 52.699219 75.273438 "/>
<path fill-rule="nonzero" fill="rgb(54.998779%, 54.998779%, 54.998779%)" fill-opacity="1" d="M 52.699219 46.929688 C 52.699219 46.101562 52.027344 45.433594 51.203125 45.433594 C 50.378906 45.433594 49.710938 46.101562 49.710938 46.929688 C 49.710938 47.753906 50.378906 48.421875 51.203125 48.421875 C 52.027344 48.421875 52.699219 47.753906 52.699219 46.929688 Z M 52.699219 46.929688 "/>
<path fill-rule="nonzero" fill="rgb(54.998779%, 54.998779%, 54.998779%)" fill-opacity="1" d="M 81.042969 103.621094 C 81.042969 102.796875 80.375 102.125 79.550781 102.125 C 78.722656 102.125 78.054688 102.796875 78.054688 103.621094 C 78.054688 104.445312 78.722656 105.117188 79.550781 105.117188 C 80.375 105.117188 81.042969 104.445312 81.042969 103.621094 Z M 81.042969 103.621094 "/>
<path fill-rule="nonzero" fill="rgb(54.998779%, 54.998779%, 54.998779%)" fill-opacity="1" d="M 81.042969 75.273438 C 81.042969 74.449219 80.375 73.78125 79.550781 73.78125 C 78.722656 73.78125 78.054688 74.449219 78.054688 75.273438 C 78.054688 76.101562 78.722656 76.769531 79.550781 76.769531 C 80.375 76.769531 81.042969 76.101562 81.042969 75.273438 Z M 81.042969 75.273438 "/>
<path fill-rule="nonzero" fill="rgb(54.998779%, 54.998779%, 54.998779%)" fill-opacity="1" d="M 81.042969 46.929688 C 81.042969 46.101562 80.375 45.433594 79.550781 45.433594 C 78.722656 45.433594 78.054688 46.101562 78.054688 46.929688 C 78.054688 47.753906 78.722656 48.421875 79.550781 48.421875 C 80.375 48.421875 81.042969 47.753906 81.042969 46.929688 Z M 81.042969 46.929688 "/>
<path fill-rule="nonzero" fill="rgb(54.998779%, 54.998779%, 54.998779%)" fill-opacity="1" d="M 109.390625 103.621094 C 109.390625 102.796875 108.722656 102.125 107.894531 102.125 C 107.070312 102.125 106.402344 102.796875 106.402344 103.621094 C 106.402344 104.445312 107.070312 105.117188 107.894531 105.117188 C 108.722656 105.117188 109.390625 104.445312 109.390625 103.621094 Z M 109.390625 103.621094 "/>
<path fill-rule="nonzero" fill="rgb(54.998779%, 54.998779%, 54.998779%)" fill-opacity="1" d="M 109.390625 75.273438 C 109.390625 74.449219 108.722656 73.78125 107.894531 73.78125 C 107.070312 73.78125 106.402344 74.449219 106.402344 75.273438 C 106.402344 76.101562 107.070312 76.769531 107.894531 76.769531 C 108.722656 76.769531 109.390625 76.101562 109.390625 75.273438 Z M 109.390625 75.273438 "/>
<path fill-rule="nonzero" fill="rgb(54.998779%, 54.998779%, 54.998779%)" fill-opacity="1" d="M 109.390625 46.929688 C 109.390625 46.101562 108.722656 45.433594 107.894531 45.433594 C 107.070312 45.433594 106.402344 46.101562 106.402344 46.929688 C 106.402344 47.753906 107.070312 48.421875 107.894531 48.421875 C 108.722656 48.421875 109.390625 47.753906 109.390625 46.929688 Z M 109.390625 46.929688 "/>
<path fill-rule="nonzero" fill="rgb(54.998779%, 54.998779%, 54.998779%)" fill-opacity="1" d="M 137.738281 103.621094 C 137.738281 102.796875 137.066406 102.125 136.242188 102.125 C 135.417969 102.125 134.75 102.796875 134.75 103.621094 C 134.75 104.445312 135.417969 105.117188 136.242188 105.117188 C 137.066406 105.117188 137.738281 104.445312 137.738281 103.621094 Z M 137.738281 103.621094 "/>
<path fill-rule="nonzero" fill="rgb(54.998779%, 54.998779%, 54.998779%)" fill-opacity="1" d="M 137.738281 75.273438 C 137.738281 74.449219 137.066406 73.78125 136.242188 73.78125 C 135.417969 73.78125 134.75 74.449219 134.75 75.273438 C 134.75 76.101562 135.417969 76.769531 136.242188 76.769531 C 137.066406 76.769531 137.738281 76.101562 137.738281 75.273438 Z M 137.738281 75.273438 "/>
<path fill-rule="nonzero" fill="rgb(54.998779%, 54.998779%, 54.998779%)" fill-opacity="1" d="M 137.738281 46.929688 C 137.738281 46.101562 137.066406 45.433594 136.242188 45.433594 C 135.417969 45.433594 134.75 46.101562 134.75 46.929688 C 134.75 47.753906 135.417969 48.421875 136.242188 48.421875 C 137.066406 48.421875 137.738281 47.753906 137.738281 46.929688 Z M 137.738281 46.929688 "/>
<g fill="rgb(0%, 0%, 0%)" fill-opacity="1">
<use xlink:href="#glyph-0-0" x="44.855" y="36.789"/>
<use xlink:href="#glyph-0-1" x="49.37266" y="36.789"/>
</g>
<g fill="rgb(0%, 0%, 0%)" fill-opacity="1">
<use xlink:href="#glyph-1-0" x="53.663" y="33.782"/>
</g>
<g fill="rgb(0%, 0%, 0%)" fill-opacity="1">
<use xlink:href="#glyph-0-1" x="6.476" y="36.788"/>
</g>
<g fill="rgb(0%, 0%, 0%)" fill-opacity="1">
<use xlink:href="#glyph-1-0" x="10.766" y="33.782"/>
</g>
<g fill="rgb(0%, 0%, 0%)" fill-opacity="1">
<use xlink:href="#glyph-0-1" x="10.364" y="77.737"/>
</g>
<g fill="rgb(0%, 0%, 0%)" fill-opacity="1">
<use xlink:href="#glyph-2-0" x="10.683" y="118.686"/>
</g>
<g fill="rgb(0%, 0%, 0%)" fill-opacity="1">
<use xlink:href="#glyph-0-0" x="48.944" y="118.686"/>
</g>
<g fill="rgb(0%, 0%, 0%)" fill-opacity="1">
<use xlink:href="#glyph-0-0" x="75.347" y="118.686"/>
</g>
<g fill="rgb(0%, 0%, 0%)" fill-opacity="1">
<use xlink:href="#glyph-1-0" x="79.864" y="115.68"/>
</g>
<g fill="rgb(0%, 0%, 0%)" fill-opacity="1">
<use xlink:href="#glyph-0-0" x="103.693" y="118.686"/>
</g>
<g fill="rgb(0%, 0%, 0%)" fill-opacity="1">
<use xlink:href="#glyph-1-1" x="108.211" y="115.68"/>
</g>
<g fill="rgb(0%, 0%, 0%)" fill-opacity="1">
<use xlink:href="#glyph-0-0" x="144.445" y="118.686"/>
</g>
<g fill="rgb(0%, 0%, 0%)" fill-opacity="1">
<use xlink:href="#glyph-1-2" x="148.963" y="115.68"/>
</g>
<g fill="rgb(0%, 0%, 0%)" fill-opacity="1">
<use xlink:href="#glyph-0-0" x="144.445" y="66.54"/>
</g>
<g fill="rgb(0%, 0%, 0%)" fill-opacity="1">
<use xlink:href="#glyph-1-2" x="148.963" y="63.533"/>
</g>
<g fill="rgb(0%, 0%, 0%)" fill-opacity="1">
<use xlink:href="#glyph-0-1" x="152.851" y="66.54"/>
</g>
<path fill="none" stroke-width="0.49814" stroke-linecap="butt" stroke-linejoin="miter" stroke="rgb(0%, 0%, 69.999695%)" stroke-opacity="1" stroke-miterlimit="10" d="M 126.693781 54.96475 C 126.693781 56.300688 125.803156 57.640531 124.021906 58.531156 L 102.8305 69.124906 C 101.045344 70.019438 100.154719 71.355375 100.154719 72.691313 C 99.088313 71.890531 97.482844 71.800688 95.701594 72.691313 L 74.506281 83.288969 C 72.725031 84.179594 71.123469 84.08975 70.053156 83.285063 " transform="matrix(1, 0, 0, -1, 22.857, 103.621)"/>
<g fill="rgb(0%, 0%, 69.999695%)" fill-opacity="1">
<use xlink:href="#glyph-3-0" x="123.997" y="27.19"/>
</g>
<path fill-rule="nonzero" fill="rgb(0%, 0%, 69.999695%)" fill-opacity="1" stroke-width="0.79703" stroke-linecap="butt" stroke-linejoin="miter" stroke="rgb(0%, 0%, 0%)" stroke-opacity="1" stroke-miterlimit="10" d="M 116.373469 28.347563 C 116.373469 29.996 115.037531 31.335844 113.385188 31.335844 C 111.73675 31.335844 110.396906 29.996 110.396906 28.347563 C 110.396906 26.695219 111.73675 25.359281 113.385188 25.359281 C 115.037531 25.359281 116.373469 26.695219 116.373469 28.347563 Z M 116.373469 28.347563 " transform="matrix(1, 0, 0, -1, 22.857, 103.621)"/>
<path fill-rule="nonzero" fill="rgb(0%, 0%, 69.999695%)" fill-opacity="1" stroke-width="0.79703" stroke-linecap="butt" stroke-linejoin="miter" stroke="rgb(0%, 0%, 0%)" stroke-opacity="1" stroke-miterlimit="10" d="M 59.682063 56.691313 C 59.682063 58.343656 58.342219 59.6835 56.693781 59.6835 C 55.041438 59.6835 53.7055 58.343656 53.7055 56.691313 C 53.7055 55.042875 55.041438 53.703031 56.693781 53.703031 C 58.342219 53.703031 59.682063 55.042875 59.682063 56.691313 Z M 59.682063 56.691313 " transform="matrix(1, 0, 0, -1, 22.857, 103.621)"/>
<path fill="none" stroke-width="0.49814" stroke-linecap="butt" stroke-linejoin="miter" stroke="rgb(0%, 0%, 69.999695%)" stroke-opacity="1" stroke-miterlimit="10" d="M 56.693781 86.456938 C 56.096125 87.65225 54.701594 88.449125 52.709406 88.449125 L 32.3305 88.449125 C 30.338312 88.449125 28.943781 89.246 28.346125 90.441313 C 27.748469 89.246 26.353937 88.449125 24.36175 88.449125 L 3.98675 88.449125 C 1.990656 88.449125 0.596125 87.65225 -0.00153125 86.456938 " transform="matrix(1, 0, 0, -1, 22.857, 103.621)"/>
<g fill="rgb(0%, 0%, 69.999695%)" fill-opacity="1">
<use xlink:href="#glyph-3-1" x="48.899" y="8.662"/>
</g>
<path fill-rule="nonzero" fill="rgb(0%, 0%, 69.999695%)" fill-opacity="1" stroke-width="0.79703" stroke-linecap="butt" stroke-linejoin="miter" stroke="rgb(0%, 0%, 0%)" stroke-opacity="1" stroke-miterlimit="10" d="M 59.682063 56.691313 C 59.682063 58.343656 58.342219 59.6835 56.693781 59.6835 C 55.041438 59.6835 53.7055 58.343656 53.7055 56.691313 C 53.7055 55.042875 55.041438 53.703031 56.693781 53.703031 C 58.342219 53.703031 59.682063 55.042875 59.682063 56.691313 Z M 59.682063 56.691313 " transform="matrix(1, 0, 0, -1, 22.857, 103.621)"/>
<path fill-rule="nonzero" fill="rgb(0%, 0%, 69.999695%)" fill-opacity="1" stroke-width="0.79703" stroke-linecap="butt" stroke-linejoin="miter" stroke="rgb(0%, 0%, 0%)" stroke-opacity="1" stroke-miterlimit="10" d="M 31.334406 56.691313 C 31.334406 58.343656 29.998469 59.6835 28.346125 59.6835 C 26.697687 59.6835 25.357844 58.343656 25.357844 56.691313 C 25.357844 55.042875 26.697687 53.703031 28.346125 53.703031 C 29.998469 53.703031 31.334406 55.042875 31.334406 56.691313 Z M 31.334406 56.691313 " transform="matrix(1, 0, 0, -1, 22.857, 103.621)"/>
<path fill-rule="nonzero" fill="rgb(0%, 0%, 69.999695%)" fill-opacity="1" stroke-width="0.79703" stroke-linecap="butt" stroke-linejoin="miter" stroke="rgb(0%, 0%, 0%)" stroke-opacity="1" stroke-miterlimit="10" d="M 2.990656 56.691313 C 2.990656 58.343656 1.650812 59.6835 -0.00153125 59.6835 C -1.649969 59.6835 -2.989813 58.343656 -2.989813 56.691313 C -2.989813 55.042875 -1.649969 53.703031 -0.00153125 53.703031 C 1.650812 53.703031 2.990656 55.042875 2.990656 56.691313 Z M 2.990656 56.691313 " transform="matrix(1, 0, 0, -1, 22.857, 103.621)"/>
<path fill-rule="nonzero" fill="rgb(100%, 100%, 100%)" fill-opacity="1" stroke-width="0.79703" stroke-linecap="butt" stroke-linejoin="miter" stroke="rgb(75%, 0%, 0%)" stroke-opacity="1" stroke-miterlimit="10" d="M 56.693781 61.175688 L 55.596125 58.203031 L 52.428156 58.078031 L 54.916438 56.117094 L 54.057063 53.066313 L 56.693781 54.824125 L 59.326594 53.066313 L 58.471125 56.117094 L 60.9555 58.078031 L 57.791438 58.203031 Z M 56.693781 61.175688 " transform="matrix(1, 0, 0, -1, 22.857, 103.621)"/>
<path fill-rule="nonzero" fill="rgb(100%, 100%, 100%)" fill-opacity="1" d="M 82.332031 44.144531 L 92.90625 44.144531 L 92.90625 33.351562 L 82.332031 33.351562 Z M 82.332031 44.144531 "/>
<g fill="rgb(75%, 0%, 0%)" fill-opacity="1">
<use xlink:href="#glyph-4-0" x="83.329" y="41.212"/>
</g>
<g fill="rgb(75%, 0%, 0%)" fill-opacity="1">
<use xlink:href="#glyph-5-0" x="87.592" y="42.208"/>
</g>
<path fill-rule="nonzero" fill="rgb(100%, 100%, 100%)" fill-opacity="1" stroke-width="0.59778" stroke-linecap="butt" stroke-linejoin="miter" stroke="rgb(0%, 0%, 0%)" stroke-opacity="1" stroke-miterlimit="10" d="M 2.740656 28.347563 C 2.740656 29.859281 1.514094 31.085844 -0.00153125 31.085844 C -1.51325 31.085844 -2.739813 29.859281 -2.739813 28.347563 C -2.739813 26.831938 -1.51325 25.605375 -0.00153125 25.605375 C 1.514094 25.605375 2.740656 26.831938 2.740656 28.347563 Z M 2.740656 28.347563 " transform="matrix(1, 0, 0, -1, 22.857, 103.621)"/>
<path fill-rule="nonzero" fill="rgb(0%, 0%, 0%)" fill-opacity="1" stroke-width="0.59778" stroke-linecap="butt" stroke-linejoin="miter" stroke="rgb(0%, 0%, 0%)" stroke-opacity="1" stroke-miterlimit="10" d="M 2.740656 -0.00009375 C 2.740656 1.511625 1.514094 2.738188 -0.00153125 2.738188 C -1.51325 2.738188 -2.739813 1.511625 -2.739813 -0.00009375 C -2.739813 -1.511812 -1.51325 -2.738375 -0.00153125 -2.738375 C 1.514094 -2.738375 2.740656 -1.511812 2.740656 -0.00009375 Z M 2.740656 -0.00009375 " transform="matrix(1, 0, 0, -1, 22.857, 103.621)"/>
<path fill-rule="nonzero" fill="rgb(100%, 100%, 100%)" fill-opacity="1" stroke-width="0.59778" stroke-linecap="butt" stroke-linejoin="miter" stroke="rgb(0%, 0%, 0%)" stroke-opacity="1" stroke-miterlimit="10" d="M 31.084406 -0.00009375 C 31.084406 1.511625 29.857844 2.738188 28.346125 2.738188 C 26.834406 2.738188 25.607844 1.511625 25.607844 -0.00009375 C 25.607844 -1.511812 26.834406 -2.738375 28.346125 -2.738375 C 29.857844 -2.738375 31.084406 -1.511812 31.084406 -0.00009375 Z M 31.084406 -0.00009375 " transform="matrix(1, 0, 0, -1, 22.857, 103.621)"/>
<path fill-rule="nonzero" fill="rgb(0%, 0%, 0%)" fill-opacity="1" stroke-width="0.59778" stroke-linecap="butt" stroke-linejoin="miter" stroke="rgb(0%, 0%, 0%)" stroke-opacity="1" stroke-miterlimit="10" d="M 59.432063 -0.00009375 C 59.432063 1.511625 58.2055 2.738188 56.693781 2.738188 C 55.178156 2.738188 53.951594 1.511625 53.951594 -0.00009375 C 53.951594 -1.511812 55.178156 -2.738375 56.693781 -2.738375 C 58.2055 -2.738375 59.432063 -1.511812 59.432063 -0.00009375 Z M 59.432063 -0.00009375 " transform="matrix(1, 0, 0, -1, 22.857, 103.621)"/>
<path fill-rule="nonzero" fill="rgb(100%, 100%, 100%)" fill-opacity="1" stroke-width="0.59778" stroke-linecap="butt" stroke-linejoin="miter" stroke="rgb(0%, 0%, 0%)" stroke-opacity="1" stroke-miterlimit="10" d="M 87.779719 -0.00009375 C 87.779719 1.511625 86.553156 2.738188 85.037531 2.738188 C 83.525813 2.738188 82.29925 1.511625 82.29925 -0.00009375 C 82.29925 -1.511812 83.525813 -2.738375 85.037531 -2.738375 C 86.553156 -2.738375 87.779719 -1.511812 87.779719 -0.00009375 Z M 87.779719 -0.00009375 " transform="matrix(1, 0, 0, -1, 22.857, 103.621)"/>
<path fill-rule="nonzero" fill="rgb(0%, 0%, 0%)" fill-opacity="1" stroke-width="0.59778" stroke-linecap="butt" stroke-linejoin="miter" stroke="rgb(0%, 0%, 0%)" stroke-opacity="1" stroke-miterlimit="10" d="M 116.127375 -0.00009375 C 116.127375 1.511625 114.900813 2.738188 113.385188 2.738188 C 111.873469 2.738188 110.646906 1.511625 110.646906 -0.00009375 C 110.646906 -1.511812 111.873469 -2.738375 113.385188 -2.738375 C 114.900813 -2.738375 116.127375 -1.511812 116.127375 -0.00009375 Z M 116.127375 -0.00009375 " transform="matrix(1, 0, 0, -1, 22.857, 103.621)"/>
<path fill-rule="nonzero" fill="rgb(100%, 100%, 100%)" fill-opacity="1" stroke-width="2.19179" stroke-linecap="butt" stroke-linejoin="miter" stroke="rgb(0%, 0%, 0%)" stroke-opacity="1" stroke-miterlimit="10" d="M 31.584406 28.347563 C 31.584406 30.136625 30.135187 31.585844 28.346125 31.585844 C 26.557062 31.585844 25.107844 30.136625 25.107844 28.347563 C 25.107844 26.5585 26.557062 25.109281 28.346125 25.109281 C 30.135187 25.109281 31.584406 26.5585 31.584406 28.347563 Z M 31.584406 28.347563 " transform="matrix(1, 0, 0, -1, 22.857, 103.621)"/>
<path fill="none" stroke-width="1.19553" stroke-linecap="butt" stroke-linejoin="miter" stroke="rgb(100%, 100%, 100%)" stroke-opacity="1" stroke-miterlimit="10" d="M 31.584406 28.347563 C 31.584406 30.136625 30.135187 31.585844 28.346125 31.585844 C 26.557062 31.585844 25.107844 30.136625 25.107844 28.347563 C 25.107844 26.5585 26.557062 25.109281 28.346125 25.109281 C 30.135187 25.109281 31.584406 26.5585 31.584406 28.347563 Z M 31.584406 28.347563 " transform="matrix(1, 0, 0, -1, 22.857, 103.621)"/>
<g fill="rgb(0%, 0%, 0%)" fill-opacity="1">
<use xlink:href="#glyph-0-0" x="59.405" y="65.135"/>
<use xlink:href="#glyph-0-1" x="63.92266" y="65.135"/>
</g>
<path fill-rule="nonzero" fill="rgb(100%, 100%, 100%)" fill-opacity="1" stroke-width="2.19179" stroke-linecap="butt" stroke-linejoin="miter" stroke="rgb(0%, 0%, 0%)" stroke-opacity="1" stroke-miterlimit="10" d="M 88.275813 28.347563 C 88.275813 30.136625 86.826594 31.585844 85.037531 31.585844 C 83.252375 31.585844 81.803156 30.136625 81.803156 28.347563 C 81.803156 26.5585 83.252375 25.109281 85.037531 25.109281 C 86.826594 25.109281 88.275813 26.5585 88.275813 28.347563 Z M 88.275813 28.347563 " transform="matrix(1, 0, 0, -1, 22.857, 103.621)"/>
<path fill="none" stroke-width="1.19553" stroke-linecap="butt" stroke-linejoin="miter" stroke="rgb(100%, 100%, 100%)" stroke-opacity="1" stroke-miterlimit="10" d="M 88.275813 28.347563 C 88.275813 30.136625 86.826594 31.585844 85.037531 31.585844 C 83.252375 31.585844 81.803156 30.136625 81.803156 28.347563 C 81.803156 26.5585 83.252375 25.109281 85.037531 25.109281 C 86.826594 25.109281 88.275813 26.5585 88.275813 28.347563 Z M 88.275813 28.347563 " transform="matrix(1, 0, 0, -1, 22.857, 103.621)"/>
<g fill="rgb(0%, 0%, 0%)" fill-opacity="1">
<use xlink:href="#glyph-0-0" x="86.997" y="65.135"/>
</g>
<g fill="rgb(0%, 0%, 0%)" fill-opacity="1">
<use xlink:href="#glyph-1-1" x="91.515" y="62.128"/>
</g>
<g fill="rgb(0%, 0%, 0%)" fill-opacity="1">
<use xlink:href="#glyph-0-1" x="95.403" y="65.135"/>
</g>
<g fill="rgb(0%, 0%, 0%)" fill-opacity="1">
<use xlink:href="#glyph-6-0" x="72.324" y="134.421"/>
</g>
<g fill="rgb(0%, 0%, 0%)" fill-opacity="1">
<use xlink:href="#glyph-7-0" x="82.368" y="130.083"/>
</g>
<g fill="rgb(0%, 0%, 0%)" fill-opacity="1">
<use xlink:href="#glyph-8-0" x="82.043" y="137.377"/>
</g>
</svg>
