<?xml version="1.0" encoding="UTF-8"?>
<svg xmlns="http://www.w3.org/2000/svg" xmlns:xlink="http://www.w3.org/1999/xlink" width="137.876pt" height="123.032pt" viewBox="0 0 137.876 123.032">
<defs>
<g>
<g id="glyph-0-0">
<path d="M 1.734375 -0.734375 C 1.671875 -0.5 1.4375 -0.125 1.078125 -0.125 C 1.0625 -0.125 0.84375 -0.125 0.703125 -0.21875 C 0.984375 -0.3125 1.015625 -0.5625 1.015625 -0.609375 C 1.015625 -0.765625 0.890625 -0.859375 0.734375 -0.859375 C 0.53125 -0.859375 0.328125 -0.703125 0.328125 -0.4375 C 0.328125 -0.09375 0.71875 0.0625 1.0625 0.0625 C 1.390625 0.0625 1.671875 -0.125 1.84375 -0.421875 C 2.015625 -0.0625 2.390625 0.0625 2.671875 0.0625 C 3.484375 0.0625 3.90625 -0.796875 3.90625 -1 C 3.90625 -1.09375 3.8125 -1.09375 3.796875 -1.09375 C 3.6875 -1.09375 3.6875 -1.046875 3.65625 -0.96875 C 3.515625 -0.484375 3.09375 -0.125 2.703125 -0.125 C 2.421875 -0.125 2.28125 -0.3125 2.28125 -0.578125 C 2.28125 -0.765625 2.453125 -1.390625 2.640625 -2.171875 C 2.78125 -2.703125 3.09375 -2.875 3.328125 -2.875 C 3.34375 -2.875 3.546875 -2.875 3.703125 -2.78125 C 3.484375 -2.71875 3.390625 -2.515625 3.390625 -2.390625 C 3.390625 -2.25 3.515625 -2.140625 3.671875 -2.140625 C 3.828125 -2.140625 4.0625 -2.265625 4.0625 -2.5625 C 4.0625 -2.953125 3.609375 -3.078125 3.34375 -3.078125 C 2.984375 -3.078125 2.703125 -2.84375 2.5625 -2.578125 C 2.4375 -2.859375 2.109375 -3.078125 1.71875 -3.078125 C 0.9375 -3.078125 0.5 -2.21875 0.5 -2 C 0.5 -1.921875 0.59375 -1.921875 0.609375 -1.921875 C 0.703125 -1.921875 0.703125 -1.9375 0.75 -2.03125 C 0.921875 -2.578125 1.359375 -2.875 1.703125 -2.875 C 1.9375 -2.875 2.125 -2.75 2.125 -2.421875 C 2.125 -2.28125 2.03125 -1.9375 1.96875 -1.6875 Z M 1.734375 -0.734375 "/>
</g>
<g id="glyph-1-0">
<path d="M 2.9375 -0.96875 L 2.71875 -0.96875 C 2.71875 -0.875 2.65625 -0.5625 2.578125 -0.515625 C 2.546875 -0.484375 2.125 -0.484375 2.046875 -0.484375 L 1.078125 -0.484375 C 1.40625 -0.71875 1.765625 -1 2.0625 -1.203125 C 2.515625 -1.515625 2.9375 -1.796875 2.9375 -2.328125 C 2.9375 -2.96875 2.328125 -3.3125 1.625 -3.3125 C 0.953125 -3.3125 0.453125 -2.9375 0.453125 -2.4375 C 0.453125 -2.1875 0.671875 -2.140625 0.75 -2.140625 C 0.875 -2.140625 1.03125 -2.234375 1.03125 -2.4375 C 1.03125 -2.609375 0.90625 -2.71875 0.75 -2.71875 C 0.890625 -2.953125 1.1875 -3.09375 1.515625 -3.09375 C 2 -3.09375 2.40625 -2.8125 2.40625 -2.328125 C 2.40625 -1.90625 2.109375 -1.578125 1.734375 -1.265625 L 0.515625 -0.234375 C 0.46875 -0.1875 0.453125 -0.1875 0.453125 -0.15625 L 0.453125 0 L 2.765625 0 Z M 2.9375 -0.96875 "/>
</g>
<g id="glyph-1-1">
<path d="M 1.640625 -1.65625 C 2.109375 -1.65625 2.40625 -1.359375 2.40625 -0.875 C 2.40625 -0.359375 2.09375 -0.09375 1.65625 -0.09375 C 1.59375 -0.09375 1 -0.09375 0.75 -0.359375 C 0.953125 -0.390625 1.015625 -0.53125 1.015625 -0.65625 C 1.015625 -0.84375 0.875 -0.96875 0.703125 -0.96875 C 0.546875 -0.96875 0.40625 -0.859375 0.40625 -0.640625 C 0.40625 -0.125 0.984375 0.109375 1.671875 0.109375 C 2.484375 0.109375 2.984375 -0.390625 2.984375 -0.875 C 2.984375 -1.28125 2.625 -1.625 2.0625 -1.75 C 2.65625 -1.953125 2.8125 -2.328125 2.8125 -2.609375 C 2.8125 -3.015625 2.3125 -3.3125 1.6875 -3.3125 C 1.0625 -3.3125 0.578125 -3.0625 0.578125 -2.609375 C 0.578125 -2.375 0.765625 -2.3125 0.859375 -2.3125 C 1 -2.3125 1.140625 -2.421875 1.140625 -2.609375 C 1.140625 -2.71875 1.078125 -2.859375 0.90625 -2.890625 C 1.109375 -3.109375 1.5625 -3.125 1.671875 -3.125 C 2.03125 -3.125 2.28125 -2.953125 2.28125 -2.609375 C 2.28125 -2.3125 2.09375 -1.859375 1.578125 -1.828125 C 1.4375 -1.828125 1.421875 -1.828125 1.28125 -1.8125 C 1.234375 -1.8125 1.171875 -1.8125 1.171875 -1.734375 C 1.171875 -1.65625 1.21875 -1.65625 1.3125 -1.65625 Z M 1.640625 -1.65625 "/>
</g>
<g id="glyph-2-0">
<path d="M 3.875 0 L 3.875 -0.28125 L 3.59375 -0.28125 C 2.75 -0.28125 2.71875 -0.390625 2.71875 -0.71875 L 2.71875 -5.734375 C 2.71875 -5.953125 2.71875 -5.96875 2.5 -5.96875 C 1.9375 -5.40625 1.109375 -5.40625 0.828125 -5.40625 L 0.828125 -5.125 C 1 -5.125 1.546875 -5.125 2.03125 -5.359375 L 2.03125 -0.71875 C 2.03125 -0.390625 2.015625 -0.28125 1.171875 -0.28125 L 0.890625 -0.28125 L 0.890625 0 C 1.203125 -0.03125 2.015625 -0.03125 2.375 -0.03125 C 2.75 -0.03125 3.546875 -0.03125 3.875 0 Z M 3.875 0 "/>
</g>
<g id="glyph-3-0">
<path d="M 0.421875 0.96875 C 0.34375 1.21875 0.328125 1.28125 0.015625 1.28125 C -0.09375 1.28125 -0.1875 1.28125 -0.1875 1.4375 C -0.1875 1.5 -0.125 1.546875 -0.078125 1.546875 C 0 1.546875 0.03125 1.515625 0.625 1.515625 C 1.1875 1.515625 1.359375 1.546875 1.421875 1.546875 C 1.453125 1.546875 1.5625 1.546875 1.5625 1.390625 C 1.5625 1.28125 1.453125 1.28125 1.359375 1.28125 C 0.984375 1.28125 0.984375 1.234375 0.984375 1.15625 C 0.984375 1.109375 1.125 0.546875 1.359375 -0.390625 C 1.46875 -0.203125 1.71875 0.078125 2.140625 0.078125 C 3.125 0.078125 4.140625 -1.046875 4.140625 -2.203125 C 4.140625 -3 3.640625 -3.515625 3 -3.515625 C 2.515625 -3.515625 2.140625 -3.1875 1.90625 -2.953125 C 1.734375 -3.515625 1.203125 -3.515625 1.125 -3.515625 C 0.84375 -3.515625 0.640625 -3.328125 0.515625 -3.078125 C 0.328125 -2.71875 0.234375 -2.3125 0.234375 -2.296875 C 0.234375 -2.21875 0.296875 -2.1875 0.359375 -2.1875 C 0.46875 -2.1875 0.46875 -2.21875 0.53125 -2.4375 C 0.625 -2.84375 0.765625 -3.296875 1.09375 -3.296875 C 1.296875 -3.296875 1.359375 -3.109375 1.359375 -2.921875 C 1.359375 -2.84375 1.328125 -2.640625 1.3125 -2.578125 Z M 1.875 -2.453125 C 1.921875 -2.59375 1.921875 -2.609375 2.046875 -2.75 C 2.34375 -3.109375 2.6875 -3.296875 2.96875 -3.296875 C 3.375 -3.296875 3.515625 -2.90625 3.515625 -2.546875 C 3.515625 -2.25 3.34375 -1.390625 3.109375 -0.921875 C 2.90625 -0.5 2.515625 -0.140625 2.140625 -0.140625 C 1.609375 -0.140625 1.46875 -0.765625 1.46875 -0.828125 C 1.46875 -0.84375 1.484375 -0.921875 1.5 -0.953125 Z M 1.875 -2.453125 "/>
</g>
<g id="glyph-4-0">
<path d="M 2.78125 -0.84375 C 2.9375 -0.734375 2.953125 -0.734375 2.984375 -0.734375 C 3.09375 -0.734375 3.1875 -0.828125 3.1875 -0.953125 C 3.1875 -1.0625 3.09375 -1.09375 3.046875 -1.125 C 2.75 -1.25 2.4375 -1.375 2.125 -1.484375 C 2.734375 -1.734375 2.90625 -1.796875 3.015625 -1.84375 C 3.109375 -1.890625 3.1875 -1.921875 3.1875 -2.046875 C 3.1875 -2.15625 3.09375 -2.25 2.984375 -2.25 C 2.9375 -2.25 2.90625 -2.21875 2.859375 -2.203125 L 2.015625 -1.65625 C 2.015625 -1.734375 2.046875 -1.953125 2.046875 -2.015625 C 2.0625 -2.140625 2.109375 -2.5 2.109375 -2.609375 C 2.109375 -2.703125 2.015625 -2.78125 1.90625 -2.78125 C 1.8125 -2.78125 1.71875 -2.703125 1.71875 -2.609375 C 1.71875 -2.59375 1.765625 -2.046875 1.765625 -2.03125 C 1.78125 -1.96875 1.796875 -1.734375 1.8125 -1.65625 L 0.953125 -2.203125 C 0.90625 -2.21875 0.875 -2.25 0.828125 -2.25 C 0.71875 -2.25 0.625 -2.15625 0.625 -2.046875 C 0.625 -1.921875 0.71875 -1.890625 0.765625 -1.859375 C 1.078125 -1.734375 1.375 -1.609375 1.6875 -1.5 C 1.078125 -1.25 0.90625 -1.1875 0.796875 -1.140625 C 0.71875 -1.09375 0.625 -1.0625 0.625 -0.953125 C 0.625 -0.828125 0.71875 -0.734375 0.828125 -0.734375 C 0.875 -0.734375 0.96875 -0.796875 1.046875 -0.84375 C 1.125 -0.890625 1.328125 -1.03125 1.40625 -1.078125 C 1.609375 -1.203125 1.6875 -1.25 1.8125 -1.328125 C 1.796875 -1.25 1.78125 -1.03125 1.765625 -0.96875 L 1.71875 -0.390625 C 1.71875 -0.28125 1.8125 -0.203125 1.90625 -0.203125 C 2.015625 -0.203125 2.109375 -0.28125 2.109375 -0.390625 C 2.109375 -0.390625 2.046875 -0.921875 2.046875 -0.953125 C 2.046875 -1.015625 2.015625 -1.25 2.015625 -1.328125 Z M 2.78125 -0.84375 "/>
</g>
<g id="glyph-5-0">
<path d="M 5.5625 -1.8125 C 5.703125 -1.8125 5.875 -1.8125 5.875 -1.984375 C 5.875 -2.171875 5.703125 -2.171875 5.5625 -2.171875 L 1 -2.171875 C 0.875 -2.171875 0.703125 -2.171875 0.703125 -1.984375 C 0.703125 -1.8125 0.875 -1.8125 1 -1.8125 Z M 5.5625 -1.8125 "/>
</g>
<g id="glyph-6-0">
<path d="M 2.03125 -1.328125 C 1.609375 -0.625 1.203125 -0.375 0.640625 -0.34375 C 0.5 -0.328125 0.40625 -0.328125 0.40625 -0.125 C 0.40625 -0.046875 0.46875 0 0.546875 0 C 0.765625 0 1.296875 -0.03125 1.515625 -0.03125 C 1.859375 -0.03125 2.25 0 2.578125 0 C 2.65625 0 2.796875 0 2.796875 -0.234375 C 2.796875 -0.328125 2.703125 -0.34375 2.625 -0.34375 C 2.359375 -0.375 2.125 -0.46875 2.125 -0.75 C 2.125 -0.921875 2.203125 -1.046875 2.359375 -1.3125 L 3.265625 -2.828125 L 6.3125 -2.828125 C 6.328125 -2.71875 6.328125 -2.625 6.328125 -2.515625 C 6.375 -2.203125 6.515625 -0.953125 6.515625 -0.734375 C 6.515625 -0.375 5.90625 -0.34375 5.71875 -0.34375 C 5.578125 -0.34375 5.453125 -0.34375 5.453125 -0.125 C 5.453125 0 5.5625 0 5.625 0 C 5.828125 0 6.078125 -0.03125 6.28125 -0.03125 L 6.953125 -0.03125 C 7.6875 -0.03125 8.21875 0 8.21875 0 C 8.3125 0 8.4375 0 8.4375 -0.234375 C 8.4375 -0.34375 8.328125 -0.34375 8.15625 -0.34375 C 7.5 -0.34375 7.484375 -0.453125 7.453125 -0.8125 L 6.71875 -8.265625 C 6.6875 -8.515625 6.640625 -8.53125 6.515625 -8.53125 C 6.390625 -8.53125 6.328125 -8.515625 6.21875 -8.328125 Z M 3.46875 -3.171875 L 5.875 -7.1875 L 6.28125 -3.171875 Z M 3.46875 -3.171875 "/>
</g>
<g id="glyph-7-0">
<path d="M 2.5 -5.078125 C 2.5 -5.296875 2.484375 -5.296875 2.265625 -5.296875 C 1.9375 -4.984375 1.515625 -4.796875 0.765625 -4.796875 L 0.765625 -4.53125 C 0.984375 -4.53125 1.40625 -4.53125 1.875 -4.734375 L 1.875 -0.65625 C 1.875 -0.359375 1.84375 -0.265625 1.09375 -0.265625 L 0.8125 -0.265625 L 0.8125 0 C 1.140625 -0.03125 1.828125 -0.03125 2.1875 -0.03125 C 2.546875 -0.03125 3.234375 -0.03125 3.5625 0 L 3.5625 -0.265625 L 3.28125 -0.265625 C 2.53125 -0.265625 2.5 -0.359375 2.5 -0.65625 Z M 2.5 -5.078125 "/>
</g>
</g>
<clipPath id="clip-0">
<path clip-rule="nonzero" d="M 39 0 L 137.875 0 L 137.875 67 L 39 67 Z M 39 0 "/>
</clipPath>
</defs>
<path fill-rule="nonzero" fill="rgb(92.001343%, 97.427368%, 99.497986%)" fill-opacity="1" d="M 29.753906 27.625 L 58.097656 84.316406 L 114.792969 84.316406 Z M 29.753906 27.625 "/>
<path fill="none" stroke-width="0.29889" stroke-linecap="butt" stroke-linejoin="miter" stroke="rgb(79.998779%, 79.998779%, 79.998779%)" stroke-opacity="1" stroke-miterlimit="10" d="M 0.00190625 0.00159375 L 85.040969 0.00159375 M 0.00190625 28.345344 L 85.040969 28.345344 M 0.00190625 56.681281 L 85.040969 56.681281 M 0.00190625 0.00159375 L 0.00190625 56.693 M 28.345656 0.00159375 L 28.345656 56.693 M 56.693313 0.00159375 L 56.693313 56.693 M 85.02925 0.00159375 L 85.02925 56.693 " transform="matrix(1, 0, 0, -1, 29.752, 84.318)"/>
<path fill="none" stroke-width="0.99628" stroke-linecap="round" stroke-linejoin="round" stroke="rgb(0%, 0%, 0%)" stroke-opacity="1" stroke-miterlimit="10" d="M 85.040969 0.00159375 L 0.00190625 56.693 " transform="matrix(1, 0, 0, -1, 29.752, 84.318)"/>
<path fill="none" stroke-width="0.99628" stroke-linecap="round" stroke-linejoin="round" stroke="rgb(0%, 0%, 0%)" stroke-opacity="1" stroke-miterlimit="10" d="M 0.00190625 56.693 L 28.345656 0.00159375 " transform="matrix(1, 0, 0, -1, 29.752, 84.318)"/>
<path fill="none" stroke-width="0.79703" stroke-linecap="butt" stroke-linejoin="miter" stroke="rgb(54.998779%, 54.998779%, 54.998779%)" stroke-opacity="1" stroke-miterlimit="10" d="M 28.345656 0.00159375 L 85.040969 0.00159375 " transform="matrix(1, 0, 0, -1, 29.752, 84.318)"/>
<path fill-rule="nonzero" fill="rgb(54.998779%, 54.998779%, 54.998779%)" fill-opacity="1" d="M 31.246094 84.316406 C 31.246094 83.492188 30.578125 82.824219 29.753906 82.824219 C 28.925781 82.824219 28.257812 83.492188 28.257812 84.316406 C 28.257812 85.144531 28.925781 85.8125 29.753906 85.8125 C 30.578125 85.8125 31.246094 85.144531 31.246094 84.316406 Z M 31.246094 84.316406 "/>
<path fill-rule="nonzero" fill="rgb(54.998779%, 54.998779%, 54.998779%)" fill-opacity="1" d="M 31.246094 55.972656 C 31.246094 55.144531 30.578125 54.476562 29.753906 54.476562 C 28.925781 54.476562 28.257812 55.144531 28.257812 55.972656 C 28.257812 56.796875 28.925781 57.464844 29.753906 57.464844 C 30.578125 57.464844 31.246094 56.796875 31.246094 55.972656 Z M 31.246094 55.972656 "/>
<path fill-rule="nonzero" fill="rgb(54.998779%, 54.998779%, 54.998779%)" fill-opacity="1" d="M 31.246094 27.625 C 31.246094 26.800781 30.578125 26.128906 29.753906 26.128906 C 28.925781 26.128906 28.257812 26.800781 28.257812 27.625 C 28.257812 28.449219 28.925781 29.121094 29.753906 29.121094 C 30.578125 29.121094 31.246094 28.449219 31.246094 27.625 Z M 31.246094 27.625 "/>
<path fill-rule="nonzero" fill="rgb(54.998779%, 54.998779%, 54.998779%)" fill-opacity="1" d="M 59.59375 84.316406 C 59.59375 83.492188 58.921875 82.824219 58.097656 82.824219 C 57.273438 82.824219 56.605469 83.492188 56.605469 84.316406 C 56.605469 85.144531 57.273438 85.8125 58.097656 85.8125 C 58.921875 85.8125 59.59375 85.144531 59.59375 84.316406 Z M 59.59375 84.316406 "/>
<path fill-rule="nonzero" fill="rgb(54.998779%, 54.998779%, 54.998779%)" fill-opacity="1" d="M 59.59375 55.972656 C 59.59375 55.144531 58.921875 54.476562 58.097656 54.476562 C 57.273438 54.476562 56.605469 55.144531 56.605469 55.972656 C 56.605469 56.796875 57.273438 57.464844 58.097656 57.464844 C 58.921875 57.464844 59.59375 56.796875 59.59375 55.972656 Z M 59.59375 55.972656 "/>
<path fill-rule="nonzero" fill="rgb(54.998779%, 54.998779%, 54.998779%)" fill-opacity="1" d="M 59.59375 27.625 C 59.59375 26.800781 58.921875 26.128906 58.097656 26.128906 C 57.273438 26.128906 56.605469 26.800781 56.605469 27.625 C 56.605469 28.449219 57.273438 29.121094 58.097656 29.121094 C 58.921875 29.121094 59.59375 28.449219 59.59375 27.625 Z M 59.59375 27.625 "/>
<path fill-rule="nonzero" fill="rgb(54.998779%, 54.998779%, 54.998779%)" fill-opacity="1" d="M 87.9375 84.316406 C 87.9375 83.492188 87.269531 82.824219 86.445312 82.824219 C 85.621094 82.824219 84.949219 83.492188 84.949219 84.316406 C 84.949219 85.144531 85.621094 85.8125 86.445312 85.8125 C 87.269531 85.8125 87.9375 85.144531 87.9375 84.316406 Z M 87.9375 84.316406 "/>
<path fill-rule="nonzero" fill="rgb(54.998779%, 54.998779%, 54.998779%)" fill-opacity="1" d="M 87.9375 55.972656 C 87.9375 55.144531 87.269531 54.476562 86.445312 54.476562 C 85.621094 54.476562 84.949219 55.144531 84.949219 55.972656 C 84.949219 56.796875 85.621094 57.464844 86.445312 57.464844 C 87.269531 57.464844 87.9375 56.796875 87.9375 55.972656 Z M 87.9375 55.972656 "/>
<path fill-rule="nonzero" fill="rgb(54.998779%, 54.998779%, 54.998779%)" fill-opacity="1" d="M 87.9375 27.625 C 87.9375 26.800781 87.269531 26.128906 86.445312 26.128906 C 85.621094 26.128906 84.949219 26.800781 84.949219 27.625 C 84.949219 28.449219 85.621094 29.121094 86.445312 29.121094 C 87.269531 29.121094 87.9375 28.449219 87.9375 27.625 Z M 87.9375 27.625 "/>
<path fill-rule="nonzero" fill="rgb(54.998779%, 54.998779%, 54.998779%)" fill-opacity="1" d="M 116.285156 84.316406 C 116.285156 83.492188 115.617188 82.824219 114.792969 82.824219 C 113.964844 82.824219 113.296875 83.492188 113.296875 84.316406 C 113.296875 85.144531 113.964844 85.8125 114.792969 85.8125 C 115.617188 85.8125 116.285156 85.144531 116.285156 84.316406 Z M 116.285156 84.316406 "/>
<path fill-rule="nonzero" fill="rgb(54.998779%, 54.998779%, 54.998779%)" fill-opacity="1" d="M 116.285156 55.972656 C 116.285156 55.144531 115.617188 54.476562 114.792969 54.476562 C 113.964844 54.476562 113.296875 55.144531 113.296875 55.972656 C 113.296875 56.796875 113.964844 57.464844 114.792969 57.464844 C 115.617188 57.464844 116.285156 56.796875 116.285156 55.972656 Z M 116.285156 55.972656 "/>
<path fill-rule="nonzero" fill="rgb(54.998779%, 54.998779%, 54.998779%)" fill-opacity="1" d="M 116.285156 27.625 C 116.285156 26.800781 115.617188 26.128906 114.792969 26.128906 C 113.964844 26.128906 113.296875 26.800781 113.296875 27.625 C 113.296875 28.449219 113.964844 29.121094 114.792969 29.121094 C 115.617188 29.121094 116.285156 28.449219 116.285156 27.625 Z M 116.285156 27.625 "/>
<g fill="rgb(0%, 0%, 0%)" fill-opacity="1">
<use xlink:href="#glyph-0-0" x="46.783" y="99.383"/>
</g>
<g fill="rgb(0%, 0%, 0%)" fill-opacity="1">
<use xlink:href="#glyph-0-0" x="82.242" y="99.383"/>
</g>
<g fill="rgb(0%, 0%, 0%)" fill-opacity="1">
<use xlink:href="#glyph-1-0" x="86.76" y="96.377"/>
</g>
<g fill="rgb(0%, 0%, 0%)" fill-opacity="1">
<use xlink:href="#glyph-0-0" x="122.994" y="96.873"/>
</g>
<g fill="rgb(0%, 0%, 0%)" fill-opacity="1">
<use xlink:href="#glyph-1-1" x="127.512" y="93.866"/>
</g>
<g clip-path="url(#clip-0)">
<path fill="none" stroke-width="0.49814" stroke-linecap="butt" stroke-linejoin="miter" stroke="rgb(0%, 0%, 69.999695%)" stroke-opacity="1" stroke-miterlimit="10" d="M 101.548781 24.763312 C 101.712844 26.091437 100.994094 27.525031 99.337844 28.6305 L 63.482375 52.53675 C 61.822219 53.642219 61.107375 55.079719 61.271438 56.403937 C 60.111281 55.739875 58.509719 55.853156 56.849563 56.958625 L 20.994094 80.860969 C 19.337844 81.966437 17.732375 82.075812 16.572219 81.41175 " transform="matrix(1, 0, 0, -1, 29.752, 84.318)"/>
</g>
<g fill="rgb(0%, 0%, 69.999695%)" fill-opacity="1">
<use xlink:href="#glyph-2-0" x="92.799" y="24.632"/>
</g>
<path fill-rule="nonzero" fill="rgb(0%, 0%, 69.999695%)" fill-opacity="1" stroke-width="0.79703" stroke-linecap="butt" stroke-linejoin="miter" stroke="rgb(0%, 0%, 0%)" stroke-opacity="1" stroke-miterlimit="10" d="M 88.02925 0.00159375 C 88.02925 1.650031 86.689406 2.989875 85.040969 2.989875 C 83.388625 2.989875 82.048781 1.650031 82.048781 0.00159375 C 82.048781 -1.65075 83.388625 -2.990594 85.040969 -2.990594 C 86.689406 -2.990594 88.02925 -1.65075 88.02925 0.00159375 Z M 88.02925 0.00159375 " transform="matrix(1, 0, 0, -1, 29.752, 84.318)"/>
<path fill-rule="nonzero" fill="rgb(0%, 0%, 69.999695%)" fill-opacity="1" stroke-width="0.79703" stroke-linecap="butt" stroke-linejoin="miter" stroke="rgb(0%, 0%, 0%)" stroke-opacity="1" stroke-miterlimit="10" d="M 2.990188 56.693 C 2.990188 58.345344 1.650344 59.681281 0.00190625 59.681281 C -1.650437 59.681281 -2.990281 58.345344 -2.990281 56.693 C -2.990281 55.040656 -1.650437 53.704719 0.00190625 53.704719 C 1.650344 53.704719 2.990188 55.040656 2.990188 56.693 Z M 2.990188 56.693 " transform="matrix(1, 0, 0, -1, 29.752, 84.318)"/>
<path fill="none" stroke-width="0.49814" stroke-linecap="butt" stroke-linejoin="miter" stroke="rgb(0%, 0%, 69.999695%)" stroke-opacity="1" stroke-miterlimit="10" d="M -26.619187 43.384406 C -27.419969 42.314094 -27.509812 40.708625 -26.619187 38.927375 L -16.021531 17.735969 C -15.130906 15.954719 -15.22075 14.34925 -16.021531 13.278937 C -14.685594 13.278937 -13.349656 12.388312 -12.459031 10.607062 L -1.861375 -10.58825 C -0.97075 -12.3695 0.365188 -13.260125 1.701125 -13.260125 " transform="matrix(1, 0, 0, -1, 29.752, 84.318)"/>
<g fill="rgb(0%, 0%, 69.999695%)" fill-opacity="1">
<use xlink:href="#glyph-2-0" x="4.848" y="77.163"/>
</g>
<path fill-rule="nonzero" fill="rgb(0%, 0%, 69.999695%)" fill-opacity="1" stroke-width="0.79703" stroke-linecap="butt" stroke-linejoin="miter" stroke="rgb(0%, 0%, 0%)" stroke-opacity="1" stroke-miterlimit="10" d="M 2.990188 56.693 C 2.990188 58.345344 1.650344 59.681281 0.00190625 59.681281 C -1.650437 59.681281 -2.990281 58.345344 -2.990281 56.693 C -2.990281 55.040656 -1.650437 53.704719 0.00190625 53.704719 C 1.650344 53.704719 2.990188 55.040656 2.990188 56.693 Z M 2.990188 56.693 " transform="matrix(1, 0, 0, -1, 29.752, 84.318)"/>
<path fill-rule="nonzero" fill="rgb(0%, 0%, 69.999695%)" fill-opacity="1" stroke-width="0.79703" stroke-linecap="butt" stroke-linejoin="miter" stroke="rgb(0%, 0%, 0%)" stroke-opacity="1" stroke-miterlimit="10" d="M 31.333938 0.00159375 C 31.333938 1.650031 29.998 2.989875 28.345656 2.989875 C 26.697219 2.989875 25.357375 1.650031 25.357375 0.00159375 C 25.357375 -1.65075 26.697219 -2.990594 28.345656 -2.990594 C 29.998 -2.990594 31.333938 -1.65075 31.333938 0.00159375 Z M 31.333938 0.00159375 " transform="matrix(1, 0, 0, -1, 29.752, 84.318)"/>
<path fill-rule="nonzero" fill="rgb(100%, 100%, 100%)" fill-opacity="1" stroke-width="0.79703" stroke-linecap="butt" stroke-linejoin="miter" stroke="rgb(75%, 0%, 0%)" stroke-opacity="1" stroke-miterlimit="10" d="M 0.00190625 61.177375 L -1.099656 58.204719 L -4.263719 58.079719 L -1.775437 56.114875 L -2.634812 53.064094 L 0.00190625 54.825812 L 2.634719 53.064094 L 1.775344 56.114875 L 4.263625 58.079719 L 1.099563 58.204719 Z M 0.00190625 61.177375 " transform="matrix(1, 0, 0, -1, 29.752, 84.318)"/>
<path fill-rule="nonzero" fill="rgb(100%, 100%, 100%)" fill-opacity="1" d="M 32.535156 24.84375 L 43.105469 24.84375 L 43.105469 14.050781 L 32.535156 14.050781 Z M 32.535156 24.84375 "/>
<g fill="rgb(75%, 0%, 0%)" fill-opacity="1">
<use xlink:href="#glyph-3-0" x="33.531" y="21.909"/>
</g>
<g fill="rgb(75%, 0%, 0%)" fill-opacity="1">
<use xlink:href="#glyph-4-0" x="37.794" y="22.905"/>
</g>
<path fill-rule="nonzero" fill="rgb(0%, 0%, 0%)" fill-opacity="1" stroke-width="0.59778" stroke-linecap="butt" stroke-linejoin="miter" stroke="rgb(0%, 0%, 0%)" stroke-opacity="1" stroke-miterlimit="10" d="M 59.431594 0.00159375 C 59.431594 1.513312 58.205031 2.739875 56.693313 2.739875 C 55.181594 2.739875 53.955031 1.513312 53.955031 0.00159375 C 53.955031 -1.514031 55.181594 -2.740594 56.693313 -2.740594 C 58.205031 -2.740594 59.431594 -1.514031 59.431594 0.00159375 Z M 59.431594 0.00159375 " transform="matrix(1, 0, 0, -1, 29.752, 84.318)"/>
<g fill="rgb(0%, 0%, 0%)" fill-opacity="1">
<use xlink:href="#glyph-5-0" x="60.8" y="111.777"/>
</g>
<g fill="rgb(0%, 0%, 0%)" fill-opacity="1">
<use xlink:href="#glyph-6-0" x="67.884" y="116.116"/>
</g>
<g fill="rgb(0%, 0%, 0%)" fill-opacity="1">
<use xlink:href="#glyph-5-0" x="76.66" y="111.168"/>
</g>
<g fill="rgb(0%, 0%, 0%)" fill-opacity="1">
<use xlink:href="#glyph-7-0" x="76.66" y="119.047"/>
</g>
</svg>
