<?xml version="1.0" encoding="UTF-8"?>
<svg xmlns="http://www.w3.org/2000/svg" xmlns:xlink="http://www.w3.org/1999/xlink" width="231.106pt" height="163.074pt" viewBox="0 0 231.106 163.074">
<defs>
<g>
<g id="glyph-0-0">
<path d="M 0.609375 1.828125 C 0.515625 2.25 0.453125 2.359375 -0.125 2.359375 C -0.296875 2.359375 -0.4375 2.359375 -0.4375 2.640625 C -0.4375 2.671875 -0.4375 2.78125 -0.265625 2.78125 C -0.09375 2.78125 0.109375 2.75 0.296875 2.75 L 0.921875 2.75 C 1.21875 2.75 1.953125 2.78125 2.25 2.78125 C 2.34375 2.78125 2.515625 2.78125 2.515625 2.53125 C 2.515625 2.359375 2.40625 2.359375 2.171875 2.359375 C 1.5 2.359375 1.46875 2.265625 1.46875 2.15625 C 1.46875 1.984375 2.109375 -0.484375 2.1875 -0.8125 C 2.359375 -0.421875 2.734375 0.140625 3.484375 0.140625 C 5.109375 0.140625 6.859375 -1.96875 6.859375 -4.078125 C 6.859375 -5.390625 6.109375 -6.328125 5.03125 -6.328125 C 4.109375 -6.328125 3.34375 -5.4375 3.1875 -5.234375 C 3.0625 -5.953125 2.515625 -6.328125 1.9375 -6.328125 C 1.515625 -6.328125 1.1875 -6.125 0.921875 -5.578125 C 0.65625 -5.0625 0.453125 -4.1875 0.453125 -4.125 C 0.453125 -4.078125 0.515625 -4 0.609375 -4 C 0.734375 -4 0.75 -4.015625 0.828125 -4.34375 C 1.046875 -5.1875 1.3125 -6.03125 1.890625 -6.03125 C 2.21875 -6.03125 2.34375 -5.8125 2.34375 -5.375 C 2.34375 -5.03125 2.296875 -4.890625 2.234375 -4.640625 Z M 3.09375 -4.46875 C 3.203125 -4.875 3.59375 -5.296875 3.828125 -5.5 C 3.984375 -5.640625 4.453125 -6.03125 5 -6.03125 C 5.640625 -6.03125 5.921875 -5.40625 5.921875 -4.65625 C 5.921875 -3.96875 5.515625 -2.359375 5.15625 -1.609375 C 4.8125 -0.828125 4.140625 -0.140625 3.484375 -0.140625 C 2.515625 -0.140625 2.359375 -1.375 2.359375 -1.4375 C 2.359375 -1.484375 2.375 -1.59375 2.390625 -1.65625 Z M 3.09375 -4.46875 "/>
</g>
<g id="glyph-0-1">
<path d="M 2.4375 -1.59375 C 1.9375 -0.75 1.453125 -0.453125 0.765625 -0.421875 C 0.609375 -0.40625 0.484375 -0.40625 0.484375 -0.140625 C 0.484375 -0.0625 0.5625 0 0.65625 0 C 0.921875 0 1.5625 -0.03125 1.828125 -0.03125 C 2.234375 -0.03125 2.703125 0 3.09375 0 C 3.1875 0 3.359375 0 3.359375 -0.265625 C 3.359375 -0.40625 3.234375 -0.421875 3.15625 -0.421875 C 2.828125 -0.4375 2.546875 -0.5625 2.546875 -0.90625 C 2.546875 -1.109375 2.640625 -1.265625 2.828125 -1.578125 L 3.921875 -3.390625 L 7.578125 -3.390625 C 7.59375 -3.25 7.59375 -3.140625 7.609375 -3.015625 C 7.640625 -2.640625 7.8125 -1.140625 7.8125 -0.875 C 7.8125 -0.4375 7.078125 -0.421875 6.859375 -0.421875 C 6.703125 -0.421875 6.546875 -0.421875 6.546875 -0.15625 C 6.546875 0 6.671875 0 6.75 0 C 7 0 7.28125 -0.03125 7.53125 -0.03125 L 8.34375 -0.03125 C 9.21875 -0.03125 9.859375 0 9.875 0 C 9.96875 0 10.125 0 10.125 -0.265625 C 10.125 -0.421875 10 -0.421875 9.78125 -0.421875 C 9 -0.421875 8.984375 -0.546875 8.9375 -0.96875 L 8.0625 -9.921875 C 8.03125 -10.21875 7.96875 -10.234375 7.8125 -10.234375 C 7.671875 -10.234375 7.59375 -10.21875 7.453125 -10 Z M 4.15625 -3.796875 L 7.046875 -8.625 L 7.53125 -3.796875 Z M 4.15625 -3.796875 "/>
</g>
<g id="glyph-1-0">
<path d="M 2.734375 -4.25 C 2.75 -4.390625 2.75 -4.640625 2.5 -4.640625 C 2.328125 -4.640625 2.203125 -4.5 2.234375 -4.375 L 2.234375 -4.25 L 2.375 -2.703125 L 1.09375 -3.625 C 1 -3.671875 0.984375 -3.703125 0.921875 -3.703125 C 0.78125 -3.703125 0.640625 -3.5625 0.640625 -3.421875 C 0.640625 -3.265625 0.75 -3.21875 0.84375 -3.171875 L 2.265625 -2.5 L 0.890625 -1.828125 C 0.734375 -1.75 0.640625 -1.703125 0.640625 -1.5625 C 0.640625 -1.40625 0.78125 -1.28125 0.921875 -1.28125 C 0.984375 -1.28125 1 -1.28125 1.25 -1.46875 L 2.375 -2.265625 L 2.21875 -0.59375 C 2.21875 -0.390625 2.40625 -0.34375 2.484375 -0.34375 C 2.609375 -0.34375 2.75 -0.40625 2.75 -0.59375 L 2.609375 -2.265625 L 3.875 -1.34375 C 3.96875 -1.296875 3.984375 -1.28125 4.0625 -1.28125 C 4.203125 -1.28125 4.328125 -1.421875 4.328125 -1.5625 C 4.328125 -1.703125 4.234375 -1.75 4.109375 -1.8125 C 3.515625 -2.109375 3.5 -2.109375 2.71875 -2.484375 L 4.09375 -3.15625 C 4.25 -3.234375 4.328125 -3.265625 4.328125 -3.421875 C 4.328125 -3.5625 4.203125 -3.703125 4.0625 -3.703125 C 3.984375 -3.703125 3.96875 -3.703125 3.71875 -3.515625 L 2.609375 -2.703125 Z M 2.734375 -4.25 "/>
</g>
<g id="glyph-1-1">
<path d="M 6.5625 -2.296875 C 6.734375 -2.296875 6.921875 -2.296875 6.921875 -2.5 C 6.921875 -2.6875 6.734375 -2.6875 6.5625 -2.6875 L 1.171875 -2.6875 C 1 -2.6875 0.828125 -2.6875 0.828125 -2.5 C 0.828125 -2.296875 1 -2.296875 1.171875 -2.296875 Z M 6.5625 -2.296875 "/>
</g>
<g id="glyph-2-0">
<path d="M 0.46875 -6.15625 L 0.46875 -5.71875 L 0.6875 -5.71875 C 0.890625 -5.71875 1.078125 -5.6875 1.078125 -5.421875 L 1.078125 -0.453125 L 0.46875 -0.453125 L 0.46875 -0.015625 L 2.6875 -0.015625 L 2.6875 -0.453125 L 2.078125 -0.453125 L 2.078125 -6.234375 L 0.8125 -6.234375 Z M 0.46875 -6.15625 "/>
</g>
<g id="glyph-2-1">
<path d="M 2.46875 -4.078125 C 1.734375 -3.96875 1.0625 -3.8125 0.640625 -3.140625 C 0.40625 -2.8125 0.296875 -2.390625 0.296875 -1.984375 C 0.296875 -1.46875 0.46875 -0.953125 0.828125 -0.59375 C 1.296875 -0.125 1.984375 0.046875 2.640625 0.046875 C 3.765625 0.046875 5 -0.515625 5 -1.984375 C 5 -2.484375 4.84375 -2.984375 4.515625 -3.359375 C 4.03125 -3.90625 3.296875 -4.078125 2.59375 -4.078125 Z M 1.484375 -1.6875 L 1.484375 -2.265625 C 1.484375 -2.65625 1.5 -3.125 1.796875 -3.421875 C 2.03125 -3.625 2.34375 -3.71875 2.640625 -3.71875 C 3.25 -3.71875 3.71875 -3.40625 3.796875 -2.6875 C 3.8125 -2.484375 3.8125 -2.265625 3.8125 -2.0625 L 3.8125 -1.796875 C 3.8125 -1.421875 3.796875 -1 3.546875 -0.71875 C 3.34375 -0.453125 3 -0.34375 2.65625 -0.34375 C 2.3125 -0.34375 1.9375 -0.46875 1.734375 -0.734375 C 1.515625 -1.015625 1.53125 -1.359375 1.484375 -1.6875 Z M 1.484375 -1.6875 "/>
</g>
<g id="glyph-2-2">
<path d="M 0.4375 -3.96875 L 0.4375 -3.53125 L 0.625 -3.53125 C 0.84375 -3.53125 1.046875 -3.5 1.046875 -3.234375 L 1.046875 -0.453125 L 0.4375 -0.453125 L 0.4375 -0.015625 L 2.71875 -0.015625 L 2.71875 -0.453125 L 2.109375 -0.453125 L 2.109375 -1.9375 C 2.109375 -2.03125 2.09375 -2.140625 2.09375 -2.25 C 2.09375 -3 2.65625 -3.6875 3.46875 -3.6875 C 3.90625 -3.6875 3.984375 -3.28125 3.984375 -2.796875 L 3.984375 -0.453125 L 3.375 -0.453125 L 3.375 -0.015625 L 5.65625 -0.015625 L 5.65625 -0.453125 L 5.046875 -0.453125 L 5.046875 -2.640625 C 5.046875 -2.953125 5.03125 -3.28125 4.859375 -3.546875 C 4.578125 -3.984375 4.0625 -4.046875 3.59375 -4.046875 C 3.078125 -4.046875 2.578125 -3.84375 2.25 -3.4375 C 2.15625 -3.34375 2.046875 -3.21875 2.015625 -3.078125 L 2 -4.046875 L 0.96875 -4.046875 Z M 0.4375 -3.96875 "/>
</g>
<g id="glyph-2-3">
<path d="M 1.0625 -0.109375 C 0.6875 -0.03125 0.34375 0.21875 0.296875 0.59375 L 0.296875 0.640625 C 0.296875 1.015625 0.59375 1.3125 0.921875 1.484375 C 1.46875 1.75 2.078125 1.796875 2.65625 1.796875 C 3.515625 1.796875 5 1.640625 5 0.640625 C 5 -0.515625 3.890625 -0.765625 2.75 -0.765625 L 1.8125 -0.765625 C 1.4375 -0.765625 1.15625 -0.984375 1.15625 -1.34375 L 1.15625 -1.40625 C 1.171875 -1.453125 1.1875 -1.5625 1.234375 -1.59375 L 1.25 -1.59375 C 1.34375 -1.59375 1.4375 -1.53125 1.515625 -1.5 C 1.734375 -1.421875 1.96875 -1.40625 2.1875 -1.375 L 2.3125 -1.375 C 3.171875 -1.375 4.203125 -1.734375 4.203125 -2.71875 C 4.203125 -3.03125 4.046875 -3.34375 3.84375 -3.5625 C 4.015625 -3.625 4.1875 -3.703125 4.375 -3.71875 C 4.359375 -3.65625 4.34375 -3.59375 4.34375 -3.53125 C 4.34375 -3.3125 4.515625 -3.140625 4.75 -3.140625 C 4.96875 -3.140625 5.15625 -3.3125 5.15625 -3.5625 C 5.15625 -3.828125 4.90625 -4.078125 4.625 -4.09375 L 4.578125 -4.09375 C 4.265625 -4.09375 3.953125 -3.984375 3.6875 -3.84375 C 3.65625 -3.8125 3.625 -3.78125 3.578125 -3.78125 C 3.515625 -3.78125 3.4375 -3.84375 3.375 -3.859375 C 3.046875 -4 2.703125 -4.046875 2.359375 -4.046875 C 1.53125 -4.046875 0.515625 -3.6875 0.515625 -2.703125 C 0.515625 -2.421875 0.640625 -2.09375 0.84375 -1.890625 C 0.875 -1.859375 0.953125 -1.828125 0.953125 -1.765625 C 0.9375 -1.71875 0.890625 -1.65625 0.875 -1.625 C 0.75 -1.4375 0.6875 -1.203125 0.6875 -0.984375 C 0.6875 -0.640625 0.8125 -0.359375 1.0625 -0.109375 Z M 1.109375 0.703125 C 1.109375 0.671875 1.109375 0.65625 1.109375 0.625 C 1.109375 0.21875 1.546875 0.125 1.890625 0.125 L 2.875 0.125 C 3.359375 0.125 4.125 0.140625 4.203125 0.609375 L 4.203125 0.640625 C 4.203125 1.40625 2.90625 1.4375 2.65625 1.4375 L 2.609375 1.4375 C 2.0625 1.4375 1.1875 1.296875 1.109375 0.703125 Z M 1.546875 -2.5 L 1.546875 -2.75 C 1.546875 -3.234375 1.6875 -3.6875 2.34375 -3.6875 C 2.734375 -3.6875 3.109375 -3.53125 3.15625 -3.03125 C 3.171875 -2.921875 3.171875 -2.8125 3.171875 -2.6875 C 3.171875 -2.4375 3.171875 -2.15625 2.984375 -1.953125 C 2.828125 -1.796875 2.59375 -1.734375 2.375 -1.734375 C 1.90625 -1.734375 1.59375 -1.953125 1.546875 -2.5 Z M 1.546875 -2.5 "/>
</g>
<g id="glyph-2-4">
<path d="M 1.84375 -4.078125 C 1.46875 -4.03125 1.078125 -3.984375 0.765625 -3.75 C 0.5 -3.546875 0.34375 -3.21875 0.34375 -2.890625 C 0.34375 -2.53125 0.53125 -2.265625 0.78125 -2.078125 C 1.1875 -1.765625 1.6875 -1.71875 2.171875 -1.625 C 2.515625 -1.5625 3.171875 -1.46875 3.171875 -0.96875 C 3.171875 -0.375 2.46875 -0.3125 2.140625 -0.3125 C 1.609375 -0.3125 1.109375 -0.5 0.875 -1.125 C 0.8125 -1.265625 0.8125 -1.4375 0.625 -1.4375 L 0.546875 -1.4375 C 0.375 -1.4375 0.34375 -1.34375 0.34375 -1.234375 L 0.34375 -0.15625 C 0.34375 -0.078125 0.359375 0.015625 0.46875 0.046875 L 0.515625 0.046875 C 0.71875 0.046875 0.890625 -0.21875 1.046875 -0.21875 C 1.109375 -0.203125 1.171875 -0.15625 1.21875 -0.140625 C 1.515625 0 1.796875 0.046875 2.140625 0.046875 C 2.921875 0.046875 3.828125 -0.265625 3.828125 -1.265625 C 3.828125 -1.890625 3.3125 -2.375 2.703125 -2.515625 C 2.109375 -2.671875 1.015625 -2.640625 1.015625 -3.21875 C 1.015625 -3.734375 1.828125 -3.75 2.046875 -3.75 L 2.078125 -3.75 C 2.5 -3.75 2.96875 -3.625 3.078125 -3.171875 C 3.125 -3.03125 3.0625 -2.859375 3.3125 -2.859375 L 3.359375 -2.859375 C 3.546875 -2.859375 3.5625 -2.9375 3.5625 -3.046875 L 3.5625 -3.890625 C 3.5625 -3.984375 3.515625 -4.078125 3.390625 -4.078125 C 3.21875 -4.078125 3.09375 -3.921875 2.984375 -3.921875 C 2.890625 -3.921875 2.75 -4 2.625 -4.015625 C 2.4375 -4.046875 2.234375 -4.078125 2.03125 -4.078125 C 1.96875 -4.078125 1.90625 -4.078125 1.84375 -4.078125 Z M 1.84375 -4.078125 "/>
</g>
<g id="glyph-2-5">
<path d="M 0.4375 -6.15625 L 0.4375 -5.71875 L 0.65625 -5.71875 C 0.875 -5.71875 1.046875 -5.6875 1.046875 -5.421875 L 1.046875 -0.453125 L 0.4375 -0.453125 L 0.4375 -0.015625 L 2.71875 -0.015625 L 2.71875 -0.453125 L 2.109375 -0.453125 L 2.109375 -1.9375 C 2.109375 -2.03125 2.09375 -2.140625 2.09375 -2.25 C 2.09375 -3 2.65625 -3.6875 3.46875 -3.6875 C 3.90625 -3.6875 3.984375 -3.28125 3.984375 -2.796875 L 3.984375 -0.453125 L 3.375 -0.453125 L 3.375 -0.015625 L 5.65625 -0.015625 L 5.65625 -0.453125 L 5.046875 -0.453125 L 5.046875 -2.640625 C 5.046875 -2.953125 5.03125 -3.28125 4.859375 -3.546875 C 4.609375 -3.953125 4.109375 -4.046875 3.65625 -4.046875 C 3.078125 -4.046875 2.59375 -3.859375 2.1875 -3.375 C 2.140625 -3.3125 2.09375 -3.25 2.0625 -3.1875 L 2.046875 -6.234375 L 0.796875 -6.234375 Z M 0.4375 -6.15625 "/>
</g>
<g id="glyph-2-6">
<path d="M 0.359375 -3.96875 L 0.359375 -3.53125 L 0.53125 -3.53125 C 0.765625 -3.53125 0.96875 -3.5 0.96875 -3.234375 L 0.96875 -0.453125 L 0.359375 -0.453125 L 0.359375 -0.015625 L 2.734375 -0.015625 L 2.734375 -0.453125 L 1.96875 -0.453125 L 1.96875 -1.65625 C 1.96875 -2.390625 2.078125 -3.6875 3.078125 -3.6875 C 3 -3.5625 2.9375 -3.4375 2.9375 -3.28125 C 2.9375 -2.953125 3.171875 -2.71875 3.5 -2.71875 C 3.796875 -2.71875 4.078125 -2.9375 4.078125 -3.296875 C 4.078125 -3.796875 3.578125 -4.015625 3.171875 -4.046875 L 3.09375 -4.046875 C 2.53125 -4.046875 2 -3.59375 1.875 -3.046875 L 1.859375 -4.046875 L 1.359375 -4.015625 L 0.6875 -4.015625 Z M 0.359375 -3.96875 "/>
</g>
<g id="glyph-2-7">
<path d="M 1.546875 -5.703125 C 1.546875 -4.9375 1.140625 -3.90625 0.203125 -3.90625 L 0.203125 -3.546875 L 0.9375 -3.546875 L 0.9375 -1.25 C 0.9375 -0.953125 0.953125 -0.6875 1.125 -0.4375 C 1.375 -0.078125 1.9375 0.046875 2.34375 0.046875 C 2.921875 0.046875 3.53125 -0.28125 3.53125 -1.1875 L 3.53125 -1.59375 L 3.0625 -1.59375 L 3.0625 -1.203125 C 3.0625 -0.890625 3 -0.328125 2.515625 -0.328125 C 2.109375 -0.328125 2 -0.734375 2 -1.140625 L 2 -3.546875 L 3.359375 -3.546875 L 3.359375 -3.984375 L 2 -3.984375 L 2 -5.703125 Z M 1.546875 -5.703125 "/>
</g>
<g id="glyph-3-0">
<path d="M 2.9375 -1.640625 L 2.9375 -0.78125 C 2.9375 -0.421875 2.90625 -0.3125 2.171875 -0.3125 L 1.96875 -0.3125 L 1.96875 0 C 2.375 -0.03125 2.890625 -0.03125 3.3125 -0.03125 C 3.734375 -0.03125 4.25 -0.03125 4.671875 0 L 4.671875 -0.3125 L 4.453125 -0.3125 C 3.71875 -0.3125 3.703125 -0.421875 3.703125 -0.78125 L 3.703125 -1.640625 L 4.6875 -1.640625 L 4.6875 -1.953125 L 3.703125 -1.953125 L 3.703125 -6.484375 C 3.703125 -6.6875 3.703125 -6.75 3.53125 -6.75 C 3.453125 -6.75 3.421875 -6.75 3.34375 -6.625 L 0.28125 -1.953125 L 0.28125 -1.640625 Z M 2.984375 -1.953125 L 0.5625 -1.953125 L 2.984375 -5.671875 Z M 2.984375 -1.953125 "/>
</g>
</g>
</defs>
<path fill="none" stroke-width="0.3487" stroke-linecap="butt" stroke-linejoin="miter" stroke="rgb(77.49939%, 77.49939%, 77.49939%)" stroke-opacity="1" stroke-dasharray="2.98883 2.98883" stroke-miterlimit="10" d="M -45.356094 -56.69225 L -45.356094 102.049937 " transform="matrix(1, 0, 0, -1, 58.86, 104.214)"/>
<path fill="none" stroke-width="0.3487" stroke-linecap="butt" stroke-linejoin="miter" stroke="rgb(77.49939%, 77.49939%, 77.49939%)" stroke-opacity="1" stroke-dasharray="2.98883 2.98883" stroke-miterlimit="10" d="M -22.676406 -56.69225 L -22.676406 102.049937 " transform="matrix(1, 0, 0, -1, 58.86, 104.214)"/>
<path fill="none" stroke-width="0.3487" stroke-linecap="butt" stroke-linejoin="miter" stroke="rgb(77.49939%, 77.49939%, 77.49939%)" stroke-opacity="1" stroke-dasharray="2.98883 2.98883" stroke-miterlimit="10" d="M -0.000625 -56.69225 L -0.000625 102.049937 " transform="matrix(1, 0, 0, -1, 58.86, 104.214)"/>
<path fill="none" stroke-width="0.3487" stroke-linecap="butt" stroke-linejoin="miter" stroke="rgb(77.49939%, 77.49939%, 77.49939%)" stroke-opacity="1" stroke-dasharray="2.98883 2.98883" stroke-miterlimit="10" d="M 22.679063 -56.69225 L 22.679063 102.049937 " transform="matrix(1, 0, 0, -1, 58.86, 104.214)"/>
<path fill="none" stroke-width="0.3487" stroke-linecap="butt" stroke-linejoin="miter" stroke="rgb(77.49939%, 77.49939%, 77.49939%)" stroke-opacity="1" stroke-dasharray="2.98883 2.98883" stroke-miterlimit="10" d="M 45.354844 -56.69225 L 45.354844 102.049937 " transform="matrix(1, 0, 0, -1, 58.86, 104.214)"/>
<path fill="none" stroke-width="0.3487" stroke-linecap="butt" stroke-linejoin="miter" stroke="rgb(77.49939%, 77.49939%, 77.49939%)" stroke-opacity="1" stroke-dasharray="2.98883 2.98883" stroke-miterlimit="10" d="M 68.034531 -56.69225 L 68.034531 102.049937 " transform="matrix(1, 0, 0, -1, 58.86, 104.214)"/>
<path fill="none" stroke-width="0.3487" stroke-linecap="butt" stroke-linejoin="miter" stroke="rgb(77.49939%, 77.49939%, 77.49939%)" stroke-opacity="1" stroke-dasharray="2.98883 2.98883" stroke-miterlimit="10" d="M 90.710313 -56.69225 L 90.710313 102.049937 " transform="matrix(1, 0, 0, -1, 58.86, 104.214)"/>
<path fill="none" stroke-width="0.3487" stroke-linecap="butt" stroke-linejoin="miter" stroke="rgb(77.49939%, 77.49939%, 77.49939%)" stroke-opacity="1" stroke-dasharray="2.98883 2.98883" stroke-miterlimit="10" d="M 113.386094 -56.69225 L 113.386094 102.049937 " transform="matrix(1, 0, 0, -1, 58.86, 104.214)"/>
<path fill="none" stroke-width="0.3487" stroke-linecap="butt" stroke-linejoin="miter" stroke="rgb(77.49939%, 77.49939%, 77.49939%)" stroke-opacity="1" stroke-dasharray="2.98883 2.98883" stroke-miterlimit="10" d="M 136.065781 -56.69225 L 136.065781 102.049937 " transform="matrix(1, 0, 0, -1, 58.86, 104.214)"/>
<path fill="none" stroke-width="0.3487" stroke-linecap="butt" stroke-linejoin="miter" stroke="rgb(77.49939%, 77.49939%, 77.49939%)" stroke-opacity="1" stroke-dasharray="2.98883 2.98883" stroke-miterlimit="10" d="M 158.741562 -56.69225 L 158.741562 102.049937 " transform="matrix(1, 0, 0, -1, 58.86, 104.214)"/>
<path fill="none" stroke-width="0.3487" stroke-linecap="butt" stroke-linejoin="miter" stroke="rgb(77.49939%, 77.49939%, 77.49939%)" stroke-opacity="1" stroke-dasharray="2.98883 2.98883" stroke-miterlimit="10" d="M -56.692031 -45.356313 L 170.081406 -45.356313 " transform="matrix(1, 0, 0, -1, 58.86, 104.214)"/>
<path fill="none" stroke-width="0.3487" stroke-linecap="butt" stroke-linejoin="miter" stroke="rgb(77.49939%, 77.49939%, 77.49939%)" stroke-opacity="1" stroke-dasharray="2.98883 2.98883" stroke-miterlimit="10" d="M -56.692031 -22.676625 L 170.081406 -22.676625 " transform="matrix(1, 0, 0, -1, 58.86, 104.214)"/>
<path fill="none" stroke-width="0.3487" stroke-linecap="butt" stroke-linejoin="miter" stroke="rgb(77.49939%, 77.49939%, 77.49939%)" stroke-opacity="1" stroke-dasharray="2.98883 2.98883" stroke-miterlimit="10" d="M -56.692031 -0.00084375 L 170.081406 -0.00084375 " transform="matrix(1, 0, 0, -1, 58.86, 104.214)"/>
<path fill="none" stroke-width="0.3487" stroke-linecap="butt" stroke-linejoin="miter" stroke="rgb(77.49939%, 77.49939%, 77.49939%)" stroke-opacity="1" stroke-dasharray="2.98883 2.98883" stroke-miterlimit="10" d="M -56.692031 22.678844 L 170.081406 22.678844 " transform="matrix(1, 0, 0, -1, 58.86, 104.214)"/>
<path fill="none" stroke-width="0.3487" stroke-linecap="butt" stroke-linejoin="miter" stroke="rgb(77.49939%, 77.49939%, 77.49939%)" stroke-opacity="1" stroke-dasharray="2.98883 2.98883" stroke-miterlimit="10" d="M -56.692031 45.354625 L 170.081406 45.354625 " transform="matrix(1, 0, 0, -1, 58.86, 104.214)"/>
<path fill="none" stroke-width="0.3487" stroke-linecap="butt" stroke-linejoin="miter" stroke="rgb(77.49939%, 77.49939%, 77.49939%)" stroke-opacity="1" stroke-dasharray="2.98883 2.98883" stroke-miterlimit="10" d="M -56.692031 68.034312 L 170.081406 68.034312 " transform="matrix(1, 0, 0, -1, 58.86, 104.214)"/>
<path fill="none" stroke-width="0.3487" stroke-linecap="butt" stroke-linejoin="miter" stroke="rgb(77.49939%, 77.49939%, 77.49939%)" stroke-opacity="1" stroke-dasharray="2.98883 2.98883" stroke-miterlimit="10" d="M -56.692031 90.710094 L 170.081406 90.710094 " transform="matrix(1, 0, 0, -1, 58.86, 104.214)"/>
<path fill-rule="nonzero" fill="rgb(50%, 50%, 50%)" fill-opacity="1" d="M 15.597656 149.570312 C 15.597656 148.414062 14.660156 147.476562 13.503906 147.476562 C 12.347656 147.476562 11.414062 148.414062 11.414062 149.570312 C 11.414062 150.722656 12.347656 151.660156 13.503906 151.660156 C 14.660156 151.660156 15.597656 150.722656 15.597656 149.570312 Z M 15.597656 149.570312 "/>
<path fill-rule="nonzero" fill="rgb(50%, 50%, 50%)" fill-opacity="1" d="M 15.597656 126.890625 C 15.597656 125.734375 14.660156 124.800781 13.503906 124.800781 C 12.347656 124.800781 11.414062 125.734375 11.414062 126.890625 C 11.414062 128.046875 12.347656 128.984375 13.503906 128.984375 C 14.660156 128.984375 15.597656 128.046875 15.597656 126.890625 Z M 15.597656 126.890625 "/>
<path fill-rule="nonzero" fill="rgb(50%, 50%, 50%)" fill-opacity="1" d="M 15.597656 104.214844 C 15.597656 103.058594 14.660156 102.121094 13.503906 102.121094 C 12.347656 102.121094 11.414062 103.058594 11.414062 104.214844 C 11.414062 105.371094 12.347656 106.304688 13.503906 106.304688 C 14.660156 106.304688 15.597656 105.371094 15.597656 104.214844 Z M 15.597656 104.214844 "/>
<path fill-rule="nonzero" fill="rgb(50%, 50%, 50%)" fill-opacity="1" d="M 15.597656 81.535156 C 15.597656 80.382812 14.660156 79.445312 13.503906 79.445312 C 12.347656 79.445312 11.414062 80.382812 11.414062 81.535156 C 11.414062 82.691406 12.347656 83.628906 13.503906 83.628906 C 14.660156 83.628906 15.597656 82.691406 15.597656 81.535156 Z M 15.597656 81.535156 "/>
<path fill-rule="nonzero" fill="rgb(50%, 50%, 50%)" fill-opacity="1" d="M 15.597656 58.859375 C 15.597656 57.703125 14.660156 56.765625 13.503906 56.765625 C 12.347656 56.765625 11.414062 57.703125 11.414062 58.859375 C 11.414062 60.015625 12.347656 60.949219 13.503906 60.949219 C 14.660156 60.949219 15.597656 60.015625 15.597656 58.859375 Z M 15.597656 58.859375 "/>
<path fill-rule="nonzero" fill="rgb(50%, 50%, 50%)" fill-opacity="1" d="M 15.597656 36.179688 C 15.597656 35.027344 14.660156 34.089844 13.503906 34.089844 C 12.347656 34.089844 11.414062 35.027344 11.414062 36.179688 C 11.414062 37.335938 12.347656 38.273438 13.503906 38.273438 C 14.660156 38.273438 15.597656 37.335938 15.597656 36.179688 Z M 15.597656 36.179688 "/>
<path fill-rule="nonzero" fill="rgb(50%, 50%, 50%)" fill-opacity="1" d="M 15.597656 13.503906 C 15.597656 12.347656 14.660156 11.410156 13.503906 11.410156 C 12.347656 11.410156 11.414062 12.347656 11.414062 13.503906 C 11.414062 14.660156 12.347656 15.597656 13.503906 15.597656 C 14.660156 15.597656 15.597656 14.660156 15.597656 13.503906 Z M 15.597656 13.503906 "/>
<path fill-rule="nonzero" fill="rgb(50%, 50%, 50%)" fill-opacity="1" d="M 38.273438 149.570312 C 38.273438 148.414062 37.339844 147.476562 36.183594 147.476562 C 35.027344 147.476562 34.089844 148.414062 34.089844 149.570312 C 34.089844 150.722656 35.027344 151.660156 36.183594 151.660156 C 37.339844 151.660156 38.273438 150.722656 38.273438 149.570312 Z M 38.273438 149.570312 "/>
<path fill-rule="nonzero" fill="rgb(50%, 50%, 50%)" fill-opacity="1" d="M 38.273438 126.890625 C 38.273438 125.734375 37.339844 124.800781 36.183594 124.800781 C 35.027344 124.800781 34.089844 125.734375 34.089844 126.890625 C 34.089844 128.046875 35.027344 128.984375 36.183594 128.984375 C 37.339844 128.984375 38.273438 128.046875 38.273438 126.890625 Z M 38.273438 126.890625 "/>
<path fill-rule="nonzero" fill="rgb(50%, 50%, 50%)" fill-opacity="1" d="M 38.273438 104.214844 C 38.273438 103.058594 37.339844 102.121094 36.183594 102.121094 C 35.027344 102.121094 34.089844 103.058594 34.089844 104.214844 C 34.089844 105.371094 35.027344 106.304688 36.183594 106.304688 C 37.339844 106.304688 38.273438 105.371094 38.273438 104.214844 Z M 38.273438 104.214844 "/>
<path fill-rule="nonzero" fill="rgb(50%, 50%, 50%)" fill-opacity="1" d="M 38.273438 81.535156 C 38.273438 80.382812 37.339844 79.445312 36.183594 79.445312 C 35.027344 79.445312 34.089844 80.382812 34.089844 81.535156 C 34.089844 82.691406 35.027344 83.628906 36.183594 83.628906 C 37.339844 83.628906 38.273438 82.691406 38.273438 81.535156 Z M 38.273438 81.535156 "/>
<path fill-rule="nonzero" fill="rgb(50%, 50%, 50%)" fill-opacity="1" d="M 38.273438 58.859375 C 38.273438 57.703125 37.339844 56.765625 36.183594 56.765625 C 35.027344 56.765625 34.089844 57.703125 34.089844 58.859375 C 34.089844 60.015625 35.027344 60.949219 36.183594 60.949219 C 37.339844 60.949219 38.273438 60.015625 38.273438 58.859375 Z M 38.273438 58.859375 "/>
<path fill-rule="nonzero" fill="rgb(50%, 50%, 50%)" fill-opacity="1" d="M 38.273438 36.179688 C 38.273438 35.027344 37.339844 34.089844 36.183594 34.089844 C 35.027344 34.089844 34.089844 35.027344 34.089844 36.179688 C 34.089844 37.335938 35.027344 38.273438 36.183594 38.273438 C 37.339844 38.273438 38.273438 37.335938 38.273438 36.179688 Z M 38.273438 36.179688 "/>
<path fill-rule="nonzero" fill="rgb(50%, 50%, 50%)" fill-opacity="1" d="M 38.273438 13.503906 C 38.273438 12.347656 37.339844 11.410156 36.183594 11.410156 C 35.027344 11.410156 34.089844 12.347656 34.089844 13.503906 C 34.089844 14.660156 35.027344 15.597656 36.183594 15.597656 C 37.339844 15.597656 38.273438 14.660156 38.273438 13.503906 Z M 38.273438 13.503906 "/>
<path fill-rule="nonzero" fill="rgb(50%, 50%, 50%)" fill-opacity="1" d="M 60.953125 149.570312 C 60.953125 148.414062 60.015625 147.476562 58.859375 147.476562 C 57.703125 147.476562 56.769531 148.414062 56.769531 149.570312 C 56.769531 150.722656 57.703125 151.660156 58.859375 151.660156 C 60.015625 151.660156 60.953125 150.722656 60.953125 149.570312 Z M 60.953125 149.570312 "/>
<path fill-rule="nonzero" fill="rgb(50%, 50%, 50%)" fill-opacity="1" d="M 60.953125 126.890625 C 60.953125 125.734375 60.015625 124.800781 58.859375 124.800781 C 57.703125 124.800781 56.769531 125.734375 56.769531 126.890625 C 56.769531 128.046875 57.703125 128.984375 58.859375 128.984375 C 60.015625 128.984375 60.953125 128.046875 60.953125 126.890625 Z M 60.953125 126.890625 "/>
<path fill-rule="nonzero" fill="rgb(50%, 50%, 50%)" fill-opacity="1" d="M 60.953125 104.214844 C 60.953125 103.058594 60.015625 102.121094 58.859375 102.121094 C 57.703125 102.121094 56.769531 103.058594 56.769531 104.214844 C 56.769531 105.371094 57.703125 106.304688 58.859375 106.304688 C 60.015625 106.304688 60.953125 105.371094 60.953125 104.214844 Z M 60.953125 104.214844 "/>
<path fill-rule="nonzero" fill="rgb(50%, 50%, 50%)" fill-opacity="1" d="M 60.953125 81.535156 C 60.953125 80.382812 60.015625 79.445312 58.859375 79.445312 C 57.703125 79.445312 56.769531 80.382812 56.769531 81.535156 C 56.769531 82.691406 57.703125 83.628906 58.859375 83.628906 C 60.015625 83.628906 60.953125 82.691406 60.953125 81.535156 Z M 60.953125 81.535156 "/>
<path fill-rule="nonzero" fill="rgb(50%, 50%, 50%)" fill-opacity="1" d="M 60.953125 58.859375 C 60.953125 57.703125 60.015625 56.765625 58.859375 56.765625 C 57.703125 56.765625 56.769531 57.703125 56.769531 58.859375 C 56.769531 60.015625 57.703125 60.949219 58.859375 60.949219 C 60.015625 60.949219 60.953125 60.015625 60.953125 58.859375 Z M 60.953125 58.859375 "/>
<path fill-rule="nonzero" fill="rgb(50%, 50%, 50%)" fill-opacity="1" d="M 60.953125 36.179688 C 60.953125 35.027344 60.015625 34.089844 58.859375 34.089844 C 57.703125 34.089844 56.769531 35.027344 56.769531 36.179688 C 56.769531 37.335938 57.703125 38.273438 58.859375 38.273438 C 60.015625 38.273438 60.953125 37.335938 60.953125 36.179688 Z M 60.953125 36.179688 "/>
<path fill-rule="nonzero" fill="rgb(50%, 50%, 50%)" fill-opacity="1" d="M 60.953125 13.503906 C 60.953125 12.347656 60.015625 11.410156 58.859375 11.410156 C 57.703125 11.410156 56.769531 12.347656 56.769531 13.503906 C 56.769531 14.660156 57.703125 15.597656 58.859375 15.597656 C 60.015625 15.597656 60.953125 14.660156 60.953125 13.503906 Z M 60.953125 13.503906 "/>
<path fill-rule="nonzero" fill="rgb(50%, 50%, 50%)" fill-opacity="1" d="M 83.628906 149.570312 C 83.628906 148.414062 82.691406 147.476562 81.539062 147.476562 C 80.382812 147.476562 79.445312 148.414062 79.445312 149.570312 C 79.445312 150.722656 80.382812 151.660156 81.539062 151.660156 C 82.691406 151.660156 83.628906 150.722656 83.628906 149.570312 Z M 83.628906 149.570312 "/>
<path fill-rule="nonzero" fill="rgb(50%, 50%, 50%)" fill-opacity="1" d="M 83.628906 126.890625 C 83.628906 125.734375 82.691406 124.800781 81.539062 124.800781 C 80.382812 124.800781 79.445312 125.734375 79.445312 126.890625 C 79.445312 128.046875 80.382812 128.984375 81.539062 128.984375 C 82.691406 128.984375 83.628906 128.046875 83.628906 126.890625 Z M 83.628906 126.890625 "/>
<path fill-rule="nonzero" fill="rgb(50%, 50%, 50%)" fill-opacity="1" d="M 83.628906 104.214844 C 83.628906 103.058594 82.691406 102.121094 81.539062 102.121094 C 80.382812 102.121094 79.445312 103.058594 79.445312 104.214844 C 79.445312 105.371094 80.382812 106.304688 81.539062 106.304688 C 82.691406 106.304688 83.628906 105.371094 83.628906 104.214844 Z M 83.628906 104.214844 "/>
<path fill-rule="nonzero" fill="rgb(50%, 50%, 50%)" fill-opacity="1" d="M 83.628906 81.535156 C 83.628906 80.382812 82.691406 79.445312 81.539062 79.445312 C 80.382812 79.445312 79.445312 80.382812 79.445312 81.535156 C 79.445312 82.691406 80.382812 83.628906 81.539062 83.628906 C 82.691406 83.628906 83.628906 82.691406 83.628906 81.535156 Z M 83.628906 81.535156 "/>
<path fill-rule="nonzero" fill="rgb(50%, 50%, 50%)" fill-opacity="1" d="M 83.628906 58.859375 C 83.628906 57.703125 82.691406 56.765625 81.539062 56.765625 C 80.382812 56.765625 79.445312 57.703125 79.445312 58.859375 C 79.445312 60.015625 80.382812 60.949219 81.539062 60.949219 C 82.691406 60.949219 83.628906 60.015625 83.628906 58.859375 Z M 83.628906 58.859375 "/>
<path fill-rule="nonzero" fill="rgb(50%, 50%, 50%)" fill-opacity="1" d="M 83.628906 36.179688 C 83.628906 35.027344 82.691406 34.089844 81.539062 34.089844 C 80.382812 34.089844 79.445312 35.027344 79.445312 36.179688 C 79.445312 37.335938 80.382812 38.273438 81.539062 38.273438 C 82.691406 38.273438 83.628906 37.335938 83.628906 36.179688 Z M 83.628906 36.179688 "/>
<path fill-rule="nonzero" fill="rgb(50%, 50%, 50%)" fill-opacity="1" d="M 83.628906 13.503906 C 83.628906 12.347656 82.691406 11.410156 81.539062 11.410156 C 80.382812 11.410156 79.445312 12.347656 79.445312 13.503906 C 79.445312 14.660156 80.382812 15.597656 81.539062 15.597656 C 82.691406 15.597656 83.628906 14.660156 83.628906 13.503906 Z M 83.628906 13.503906 "/>
<path fill-rule="nonzero" fill="rgb(50%, 50%, 50%)" fill-opacity="1" d="M 106.308594 149.570312 C 106.308594 148.414062 105.371094 147.476562 104.214844 147.476562 C 103.058594 147.476562 102.121094 148.414062 102.121094 149.570312 C 102.121094 150.722656 103.058594 151.660156 104.214844 151.660156 C 105.371094 151.660156 106.308594 150.722656 106.308594 149.570312 Z M 106.308594 149.570312 "/>
<path fill-rule="nonzero" fill="rgb(50%, 50%, 50%)" fill-opacity="1" d="M 106.308594 126.890625 C 106.308594 125.734375 105.371094 124.800781 104.214844 124.800781 C 103.058594 124.800781 102.121094 125.734375 102.121094 126.890625 C 102.121094 128.046875 103.058594 128.984375 104.214844 128.984375 C 105.371094 128.984375 106.308594 128.046875 106.308594 126.890625 Z M 106.308594 126.890625 "/>
<path fill-rule="nonzero" fill="rgb(50%, 50%, 50%)" fill-opacity="1" d="M 106.308594 104.214844 C 106.308594 103.058594 105.371094 102.121094 104.214844 102.121094 C 103.058594 102.121094 102.121094 103.058594 102.121094 104.214844 C 102.121094 105.371094 103.058594 106.304688 104.214844 106.304688 C 105.371094 106.304688 106.308594 105.371094 106.308594 104.214844 Z M 106.308594 104.214844 "/>
<path fill-rule="nonzero" fill="rgb(50%, 50%, 50%)" fill-opacity="1" d="M 106.308594 81.535156 C 106.308594 80.382812 105.371094 79.445312 104.214844 79.445312 C 103.058594 79.445312 102.121094 80.382812 102.121094 81.535156 C 102.121094 82.691406 103.058594 83.628906 104.214844 83.628906 C 105.371094 83.628906 106.308594 82.691406 106.308594 81.535156 Z M 106.308594 81.535156 "/>
<path fill-rule="nonzero" fill="rgb(50%, 50%, 50%)" fill-opacity="1" d="M 106.308594 58.859375 C 106.308594 57.703125 105.371094 56.765625 104.214844 56.765625 C 103.058594 56.765625 102.121094 57.703125 102.121094 58.859375 C 102.121094 60.015625 103.058594 60.949219 104.214844 60.949219 C 105.371094 60.949219 106.308594 60.015625 106.308594 58.859375 Z M 106.308594 58.859375 "/>
<path fill-rule="nonzero" fill="rgb(50%, 50%, 50%)" fill-opacity="1" d="M 106.308594 36.179688 C 106.308594 35.027344 105.371094 34.089844 104.214844 34.089844 C 103.058594 34.089844 102.121094 35.027344 102.121094 36.179688 C 102.121094 37.335938 103.058594 38.273438 104.214844 38.273438 C 105.371094 38.273438 106.308594 37.335938 106.308594 36.179688 Z M 106.308594 36.179688 "/>
<path fill-rule="nonzero" fill="rgb(50%, 50%, 50%)" fill-opacity="1" d="M 106.308594 13.503906 C 106.308594 12.347656 105.371094 11.410156 104.214844 11.410156 C 103.058594 11.410156 102.121094 12.347656 102.121094 13.503906 C 102.121094 14.660156 103.058594 15.597656 104.214844 15.597656 C 105.371094 15.597656 106.308594 14.660156 106.308594 13.503906 Z M 106.308594 13.503906 "/>
<path fill-rule="nonzero" fill="rgb(50%, 50%, 50%)" fill-opacity="1" d="M 128.984375 149.570312 C 128.984375 148.414062 128.046875 147.476562 126.894531 147.476562 C 125.738281 147.476562 124.800781 148.414062 124.800781 149.570312 C 124.800781 150.722656 125.738281 151.660156 126.894531 151.660156 C 128.046875 151.660156 128.984375 150.722656 128.984375 149.570312 Z M 128.984375 149.570312 "/>
<path fill-rule="nonzero" fill="rgb(50%, 50%, 50%)" fill-opacity="1" d="M 128.984375 126.890625 C 128.984375 125.734375 128.046875 124.800781 126.894531 124.800781 C 125.738281 124.800781 124.800781 125.734375 124.800781 126.890625 C 124.800781 128.046875 125.738281 128.984375 126.894531 128.984375 C 128.046875 128.984375 128.984375 128.046875 128.984375 126.890625 Z M 128.984375 126.890625 "/>
<path fill-rule="nonzero" fill="rgb(50%, 50%, 50%)" fill-opacity="1" d="M 128.984375 104.214844 C 128.984375 103.058594 128.046875 102.121094 126.894531 102.121094 C 125.738281 102.121094 124.800781 103.058594 124.800781 104.214844 C 124.800781 105.371094 125.738281 106.304688 126.894531 106.304688 C 128.046875 106.304688 128.984375 105.371094 128.984375 104.214844 Z M 128.984375 104.214844 "/>
<path fill-rule="nonzero" fill="rgb(50%, 50%, 50%)" fill-opacity="1" d="M 128.984375 81.535156 C 128.984375 80.382812 128.046875 79.445312 126.894531 79.445312 C 125.738281 79.445312 124.800781 80.382812 124.800781 81.535156 C 124.800781 82.691406 125.738281 83.628906 126.894531 83.628906 C 128.046875 83.628906 128.984375 82.691406 128.984375 81.535156 Z M 128.984375 81.535156 "/>
<path fill-rule="nonzero" fill="rgb(50%, 50%, 50%)" fill-opacity="1" d="M 128.984375 58.859375 C 128.984375 57.703125 128.046875 56.765625 126.894531 56.765625 C 125.738281 56.765625 124.800781 57.703125 124.800781 58.859375 C 124.800781 60.015625 125.738281 60.949219 126.894531 60.949219 C 128.046875 60.949219 128.984375 60.015625 128.984375 58.859375 Z M 128.984375 58.859375 "/>
<path fill-rule="nonzero" fill="rgb(50%, 50%, 50%)" fill-opacity="1" d="M 128.984375 36.179688 C 128.984375 35.027344 128.046875 34.089844 126.894531 34.089844 C 125.738281 34.089844 124.800781 35.027344 124.800781 36.179688 C 124.800781 37.335938 125.738281 38.273438 126.894531 38.273438 C 128.046875 38.273438 128.984375 37.335938 128.984375 36.179688 Z M 128.984375 36.179688 "/>
<path fill-rule="nonzero" fill="rgb(50%, 50%, 50%)" fill-opacity="1" d="M 128.984375 13.503906 C 128.984375 12.347656 128.046875 11.410156 126.894531 11.410156 C 125.738281 11.410156 124.800781 12.347656 124.800781 13.503906 C 124.800781 14.660156 125.738281 15.597656 126.894531 15.597656 C 128.046875 15.597656 128.984375 14.660156 128.984375 13.503906 Z M 128.984375 13.503906 "/>
<path fill-rule="nonzero" fill="rgb(50%, 50%, 50%)" fill-opacity="1" d="M 151.664062 149.570312 C 151.664062 148.414062 150.726562 147.476562 149.570312 147.476562 C 148.414062 147.476562 147.476562 148.414062 147.476562 149.570312 C 147.476562 150.722656 148.414062 151.660156 149.570312 151.660156 C 150.726562 151.660156 151.664062 150.722656 151.664062 149.570312 Z M 151.664062 149.570312 "/>
<path fill-rule="nonzero" fill="rgb(50%, 50%, 50%)" fill-opacity="1" d="M 151.664062 126.890625 C 151.664062 125.734375 150.726562 124.800781 149.570312 124.800781 C 148.414062 124.800781 147.476562 125.734375 147.476562 126.890625 C 147.476562 128.046875 148.414062 128.984375 149.570312 128.984375 C 150.726562 128.984375 151.664062 128.046875 151.664062 126.890625 Z M 151.664062 126.890625 "/>
<path fill-rule="nonzero" fill="rgb(50%, 50%, 50%)" fill-opacity="1" d="M 151.664062 104.214844 C 151.664062 103.058594 150.726562 102.121094 149.570312 102.121094 C 148.414062 102.121094 147.476562 103.058594 147.476562 104.214844 C 147.476562 105.371094 148.414062 106.304688 149.570312 106.304688 C 150.726562 106.304688 151.664062 105.371094 151.664062 104.214844 Z M 151.664062 104.214844 "/>
<path fill-rule="nonzero" fill="rgb(50%, 50%, 50%)" fill-opacity="1" d="M 151.664062 81.535156 C 151.664062 80.382812 150.726562 79.445312 149.570312 79.445312 C 148.414062 79.445312 147.476562 80.382812 147.476562 81.535156 C 147.476562 82.691406 148.414062 83.628906 149.570312 83.628906 C 150.726562 83.628906 151.664062 82.691406 151.664062 81.535156 Z M 151.664062 81.535156 "/>
<path fill-rule="nonzero" fill="rgb(50%, 50%, 50%)" fill-opacity="1" d="M 151.664062 58.859375 C 151.664062 57.703125 150.726562 56.765625 149.570312 56.765625 C 148.414062 56.765625 147.476562 57.703125 147.476562 58.859375 C 147.476562 60.015625 148.414062 60.949219 149.570312 60.949219 C 150.726562 60.949219 151.664062 60.015625 151.664062 58.859375 Z M 151.664062 58.859375 "/>
<path fill-rule="nonzero" fill="rgb(50%, 50%, 50%)" fill-opacity="1" d="M 151.664062 36.179688 C 151.664062 35.027344 150.726562 34.089844 149.570312 34.089844 C 148.414062 34.089844 147.476562 35.027344 147.476562 36.179688 C 147.476562 37.335938 148.414062 38.273438 149.570312 38.273438 C 150.726562 38.273438 151.664062 37.335938 151.664062 36.179688 Z M 151.664062 36.179688 "/>
<path fill-rule="nonzero" fill="rgb(50%, 50%, 50%)" fill-opacity="1" d="M 151.664062 13.503906 C 151.664062 12.347656 150.726562 11.410156 149.570312 11.410156 C 148.414062 11.410156 147.476562 12.347656 147.476562 13.503906 C 147.476562 14.660156 148.414062 15.597656 149.570312 15.597656 C 150.726562 15.597656 151.664062 14.660156 151.664062 13.503906 Z M 151.664062 13.503906 "/>
<path fill-rule="nonzero" fill="rgb(50%, 50%, 50%)" fill-opacity="1" d="M 174.339844 149.570312 C 174.339844 148.414062 173.402344 147.476562 172.246094 147.476562 C 171.09375 147.476562 170.15625 148.414062 170.15625 149.570312 C 170.15625 150.722656 171.09375 151.660156 172.246094 151.660156 C 173.402344 151.660156 174.339844 150.722656 174.339844 149.570312 Z M 174.339844 149.570312 "/>
<path fill-rule="nonzero" fill="rgb(50%, 50%, 50%)" fill-opacity="1" d="M 174.339844 126.890625 C 174.339844 125.734375 173.402344 124.800781 172.246094 124.800781 C 171.09375 124.800781 170.15625 125.734375 170.15625 126.890625 C 170.15625 128.046875 171.09375 128.984375 172.246094 128.984375 C 173.402344 128.984375 174.339844 128.046875 174.339844 126.890625 Z M 174.339844 126.890625 "/>
<path fill-rule="nonzero" fill="rgb(50%, 50%, 50%)" fill-opacity="1" d="M 174.339844 104.214844 C 174.339844 103.058594 173.402344 102.121094 172.246094 102.121094 C 171.09375 102.121094 170.15625 103.058594 170.15625 104.214844 C 170.15625 105.371094 171.09375 106.304688 172.246094 106.304688 C 173.402344 106.304688 174.339844 105.371094 174.339844 104.214844 Z M 174.339844 104.214844 "/>
<path fill-rule="nonzero" fill="rgb(50%, 50%, 50%)" fill-opacity="1" d="M 174.339844 81.535156 C 174.339844 80.382812 173.402344 79.445312 172.246094 79.445312 C 171.09375 79.445312 170.15625 80.382812 170.15625 81.535156 C 170.15625 82.691406 171.09375 83.628906 172.246094 83.628906 C 173.402344 83.628906 174.339844 82.691406 174.339844 81.535156 Z M 174.339844 81.535156 "/>
<path fill-rule="nonzero" fill="rgb(50%, 50%, 50%)" fill-opacity="1" d="M 174.339844 58.859375 C 174.339844 57.703125 173.402344 56.765625 172.246094 56.765625 C 171.09375 56.765625 170.15625 57.703125 170.15625 58.859375 C 170.15625 60.015625 171.09375 60.949219 172.246094 60.949219 C 173.402344 60.949219 174.339844 60.015625 174.339844 58.859375 Z M 174.339844 58.859375 "/>
<path fill-rule="nonzero" fill="rgb(50%, 50%, 50%)" fill-opacity="1" d="M 174.339844 36.179688 C 174.339844 35.027344 173.402344 34.089844 172.246094 34.089844 C 171.09375 34.089844 170.15625 35.027344 170.15625 36.179688 C 170.15625 37.335938 171.09375 38.273438 172.246094 38.273438 C 173.402344 38.273438 174.339844 37.335938 174.339844 36.179688 Z M 174.339844 36.179688 "/>
<path fill-rule="nonzero" fill="rgb(50%, 50%, 50%)" fill-opacity="1" d="M 174.339844 13.503906 C 174.339844 12.347656 173.402344 11.410156 172.246094 11.410156 C 171.09375 11.410156 170.15625 12.347656 170.15625 13.503906 C 170.15625 14.660156 171.09375 15.597656 172.246094 15.597656 C 173.402344 15.597656 174.339844 14.660156 174.339844 13.503906 Z M 174.339844 13.503906 "/>
<path fill-rule="nonzero" fill="rgb(50%, 50%, 50%)" fill-opacity="1" d="M 197.015625 149.570312 C 197.015625 148.414062 196.082031 147.476562 194.925781 147.476562 C 193.769531 147.476562 192.832031 148.414062 192.832031 149.570312 C 192.832031 150.722656 193.769531 151.660156 194.925781 151.660156 C 196.082031 151.660156 197.015625 150.722656 197.015625 149.570312 Z M 197.015625 149.570312 "/>
<path fill-rule="nonzero" fill="rgb(50%, 50%, 50%)" fill-opacity="1" d="M 197.015625 126.890625 C 197.015625 125.734375 196.082031 124.800781 194.925781 124.800781 C 193.769531 124.800781 192.832031 125.734375 192.832031 126.890625 C 192.832031 128.046875 193.769531 128.984375 194.925781 128.984375 C 196.082031 128.984375 197.015625 128.046875 197.015625 126.890625 Z M 197.015625 126.890625 "/>
<path fill-rule="nonzero" fill="rgb(50%, 50%, 50%)" fill-opacity="1" d="M 197.015625 104.214844 C 197.015625 103.058594 196.082031 102.121094 194.925781 102.121094 C 193.769531 102.121094 192.832031 103.058594 192.832031 104.214844 C 192.832031 105.371094 193.769531 106.304688 194.925781 106.304688 C 196.082031 106.304688 197.015625 105.371094 197.015625 104.214844 Z M 197.015625 104.214844 "/>
<path fill-rule="nonzero" fill="rgb(50%, 50%, 50%)" fill-opacity="1" d="M 197.015625 81.535156 C 197.015625 80.382812 196.082031 79.445312 194.925781 79.445312 C 193.769531 79.445312 192.832031 80.382812 192.832031 81.535156 C 192.832031 82.691406 193.769531 83.628906 194.925781 83.628906 C 196.082031 83.628906 197.015625 82.691406 197.015625 81.535156 Z M 197.015625 81.535156 "/>
<path fill-rule="nonzero" fill="rgb(50%, 50%, 50%)" fill-opacity="1" d="M 197.015625 58.859375 C 197.015625 57.703125 196.082031 56.765625 194.925781 56.765625 C 193.769531 56.765625 192.832031 57.703125 192.832031 58.859375 C 192.832031 60.015625 193.769531 60.949219 194.925781 60.949219 C 196.082031 60.949219 197.015625 60.015625 197.015625 58.859375 Z M 197.015625 58.859375 "/>
<path fill-rule="nonzero" fill="rgb(50%, 50%, 50%)" fill-opacity="1" d="M 197.015625 36.179688 C 197.015625 35.027344 196.082031 34.089844 194.925781 34.089844 C 193.769531 34.089844 192.832031 35.027344 192.832031 36.179688 C 192.832031 37.335938 193.769531 38.273438 194.925781 38.273438 C 196.082031 38.273438 197.015625 37.335938 197.015625 36.179688 Z M 197.015625 36.179688 "/>
<path fill-rule="nonzero" fill="rgb(50%, 50%, 50%)" fill-opacity="1" d="M 197.015625 13.503906 C 197.015625 12.347656 196.082031 11.410156 194.925781 11.410156 C 193.769531 11.410156 192.832031 12.347656 192.832031 13.503906 C 192.832031 14.660156 193.769531 15.597656 194.925781 15.597656 C 196.082031 15.597656 197.015625 14.660156 197.015625 13.503906 Z M 197.015625 13.503906 "/>
<path fill-rule="nonzero" fill="rgb(50%, 50%, 50%)" fill-opacity="1" d="M 219.695312 149.570312 C 219.695312 148.414062 218.757812 147.476562 217.601562 147.476562 C 216.445312 147.476562 215.511719 148.414062 215.511719 149.570312 C 215.511719 150.722656 216.445312 151.660156 217.601562 151.660156 C 218.757812 151.660156 219.695312 150.722656 219.695312 149.570312 Z M 219.695312 149.570312 "/>
<path fill-rule="nonzero" fill="rgb(50%, 50%, 50%)" fill-opacity="1" d="M 219.695312 126.890625 C 219.695312 125.734375 218.757812 124.800781 217.601562 124.800781 C 216.445312 124.800781 215.511719 125.734375 215.511719 126.890625 C 215.511719 128.046875 216.445312 128.984375 217.601562 128.984375 C 218.757812 128.984375 219.695312 128.046875 219.695312 126.890625 Z M 219.695312 126.890625 "/>
<path fill-rule="nonzero" fill="rgb(50%, 50%, 50%)" fill-opacity="1" d="M 219.695312 104.214844 C 219.695312 103.058594 218.757812 102.121094 217.601562 102.121094 C 216.445312 102.121094 215.511719 103.058594 215.511719 104.214844 C 215.511719 105.371094 216.445312 106.304688 217.601562 106.304688 C 218.757812 106.304688 219.695312 105.371094 219.695312 104.214844 Z M 219.695312 104.214844 "/>
<path fill-rule="nonzero" fill="rgb(50%, 50%, 50%)" fill-opacity="1" d="M 219.695312 81.535156 C 219.695312 80.382812 218.757812 79.445312 217.601562 79.445312 C 216.445312 79.445312 215.511719 80.382812 215.511719 81.535156 C 215.511719 82.691406 216.445312 83.628906 217.601562 83.628906 C 218.757812 83.628906 219.695312 82.691406 219.695312 81.535156 Z M 219.695312 81.535156 "/>
<path fill-rule="nonzero" fill="rgb(50%, 50%, 50%)" fill-opacity="1" d="M 219.695312 58.859375 C 219.695312 57.703125 218.757812 56.765625 217.601562 56.765625 C 216.445312 56.765625 215.511719 57.703125 215.511719 58.859375 C 215.511719 60.015625 216.445312 60.949219 217.601562 60.949219 C 218.757812 60.949219 219.695312 60.015625 219.695312 58.859375 Z M 219.695312 58.859375 "/>
<path fill-rule="nonzero" fill="rgb(50%, 50%, 50%)" fill-opacity="1" d="M 219.695312 36.179688 C 219.695312 35.027344 218.757812 34.089844 217.601562 34.089844 C 216.445312 34.089844 215.511719 35.027344 215.511719 36.179688 C 215.511719 37.335938 216.445312 38.273438 217.601562 38.273438 C 218.757812 38.273438 219.695312 37.335938 219.695312 36.179688 Z M 219.695312 36.179688 "/>
<path fill-rule="nonzero" fill="rgb(50%, 50%, 50%)" fill-opacity="1" d="M 219.695312 13.503906 C 219.695312 12.347656 218.757812 11.410156 217.601562 11.410156 C 216.445312 11.410156 215.511719 12.347656 215.511719 13.503906 C 215.511719 14.660156 216.445312 15.597656 217.601562 15.597656 C 218.757812 15.597656 219.695312 14.660156 219.695312 13.503906 Z M 219.695312 13.503906 "/>
<path fill-rule="nonzero" fill="rgb(92.001343%, 97.427368%, 99.497986%)" fill-opacity="1" d="M 58.859375 58.855469 L 58.859375 104.214844 L 172.253906 104.214844 Z M 58.859375 58.855469 "/>
<path fill="none" stroke-width="1.99255" stroke-linecap="round" stroke-linejoin="miter" stroke="rgb(0%, 0%, 0%)" stroke-opacity="1" stroke-miterlimit="10" d="M -0.000625 45.358531 L -0.000625 -0.00084375 " transform="matrix(1, 0, 0, -1, 58.86, 104.214)"/>
<path fill="none" stroke-width="1.99255" stroke-linecap="round" stroke-linejoin="miter" stroke="rgb(0%, 0%, 0%)" stroke-opacity="1" stroke-miterlimit="10" d="M -0.000625 45.358531 L 113.393906 -0.00084375 " transform="matrix(1, 0, 0, -1, 58.86, 104.214)"/>
<path fill="none" stroke-width="0.79701" stroke-linecap="butt" stroke-linejoin="miter" stroke="rgb(64.99939%, 64.99939%, 64.99939%)" stroke-opacity="1" stroke-miterlimit="10" d="M -0.000625 -0.00084375 L 113.393906 -0.00084375 " transform="matrix(1, 0, 0, -1, 58.86, 104.214)"/>
<path fill-rule="nonzero" fill="rgb(100%, 100%, 100%)" fill-opacity="1" stroke-width="1.0959" stroke-linecap="butt" stroke-linejoin="miter" stroke="rgb(0%, 0%, 0%)" stroke-opacity="1" stroke-miterlimit="10" d="M 3.98375 -0.00084375 C 3.98375 2.202281 2.2025 3.983531 -0.000625 3.983531 C -2.199844 3.983531 -3.985 2.202281 -3.985 -0.00084375 C -3.985 -2.200063 -2.199844 -3.985219 -0.000625 -3.985219 C 2.2025 -3.985219 3.98375 -2.200063 3.98375 -0.00084375 Z M 3.98375 -0.00084375 " transform="matrix(1, 0, 0, -1, 58.86, 104.214)"/>
<path fill-rule="nonzero" fill="rgb(0%, 0%, 0%)" fill-opacity="1" d="M 176.238281 104.214844 C 176.238281 102.011719 174.453125 100.230469 172.253906 100.230469 C 170.050781 100.230469 168.269531 102.011719 168.269531 104.214844 C 168.269531 106.414062 170.050781 108.199219 172.253906 108.199219 C 174.453125 108.199219 176.238281 106.414062 176.238281 104.214844 Z M 176.238281 104.214844 "/>
<path fill-rule="nonzero" fill="rgb(100%, 100%, 100%)" fill-opacity="1" stroke-width="1.19553" stroke-linecap="butt" stroke-linejoin="miter" stroke="rgb(100%, 0%, 0%)" stroke-opacity="1" stroke-miterlimit="10" d="M -0.000625 51.335094 L -1.598281 47.55775 L -5.684219 47.206187 L -2.582656 44.518687 L -3.512344 40.522594 L -0.000625 42.639781 L 3.515 40.522594 L 2.585313 44.518687 L 5.686875 47.206187 L 1.597031 47.55775 Z M -0.000625 51.335094 " transform="matrix(1, 0, 0, -1, 58.86, 104.214)"/>
<g fill="rgb(100%, 0%, 0%)" fill-opacity="1">
<use xlink:href="#glyph-0-0" x="41.257" y="48.081"/>
</g>
<g fill="rgb(100%, 0%, 0%)" fill-opacity="1">
<use xlink:href="#glyph-1-0" x="48.307" y="50.233"/>
</g>
<g fill="rgb(0%, 0%, 0%)" fill-opacity="1">
<use xlink:href="#glyph-2-0" x="36.664" y="73.554"/>
<use xlink:href="#glyph-2-1" x="39.610359" y="73.554"/>
<use xlink:href="#glyph-2-2" x="44.913985" y="73.554"/>
<use xlink:href="#glyph-2-3" x="50.806703" y="73.554"/>
</g>
<g fill="rgb(0%, 0%, 0%)" fill-opacity="1">
<use xlink:href="#glyph-2-4" x="107.014" y="74.426"/>
<use xlink:href="#glyph-2-5" x="111.197722" y="74.426"/>
<use xlink:href="#glyph-2-1" x="117.09044" y="74.426"/>
<use xlink:href="#glyph-2-6" x="122.394066" y="74.426"/>
<use xlink:href="#glyph-2-7" x="126.769669" y="74.426"/>
</g>
<g fill="rgb(0%, 0%, 0%)" fill-opacity="1">
<use xlink:href="#glyph-0-1" x="84.621" y="95.646"/>
</g>
<g fill="rgb(0%, 0%, 0%)" fill-opacity="1">
<use xlink:href="#glyph-1-1" x="95.152" y="89.874"/>
</g>
<g fill="rgb(0%, 0%, 0%)" fill-opacity="1">
<use xlink:href="#glyph-3-0" x="95.152" y="99.42"/>
</g>
<path fill-rule="nonzero" fill="rgb(0%, 0%, 0%)" fill-opacity="1" d="M 60.953125 81.535156 C 60.953125 80.382812 60.015625 79.445312 58.859375 79.445312 C 57.703125 79.445312 56.769531 80.382812 56.769531 81.535156 C 56.769531 82.691406 57.703125 83.628906 58.859375 83.628906 C 60.015625 83.628906 60.953125 82.691406 60.953125 81.535156 Z M 60.953125 81.535156 "/>
<path fill-rule="nonzero" fill="rgb(0%, 0%, 0%)" fill-opacity="1" d="M 83.628906 104.214844 C 83.628906 103.058594 82.691406 102.121094 81.539062 102.121094 C 80.382812 102.121094 79.445312 103.058594 79.445312 104.214844 C 79.445312 105.371094 80.382812 106.304688 81.539062 106.304688 C 82.691406 106.304688 83.628906 105.371094 83.628906 104.214844 Z M 83.628906 104.214844 "/>
<path fill-rule="nonzero" fill="rgb(0%, 0%, 0%)" fill-opacity="1" d="M 106.308594 104.214844 C 106.308594 103.058594 105.371094 102.121094 104.214844 102.121094 C 103.058594 102.121094 102.121094 103.058594 102.121094 104.214844 C 102.121094 105.371094 103.058594 106.304688 104.214844 106.304688 C 105.371094 106.304688 106.308594 105.371094 106.308594 104.214844 Z M 106.308594 104.214844 "/>
<path fill-rule="nonzero" fill="rgb(0%, 0%, 0%)" fill-opacity="1" d="M 128.984375 104.214844 C 128.984375 103.058594 128.046875 102.121094 126.894531 102.121094 C 125.738281 102.121094 124.800781 103.058594 124.800781 104.214844 C 124.800781 105.371094 125.738281 106.304688 126.894531 106.304688 C 128.046875 106.304688 128.984375 105.371094 128.984375 104.214844 Z M 128.984375 104.214844 "/>
<path fill-rule="nonzero" fill="rgb(0%, 0%, 0%)" fill-opacity="1" d="M 151.664062 104.214844 C 151.664062 103.058594 150.726562 102.121094 149.570312 102.121094 C 148.414062 102.121094 147.476562 103.058594 147.476562 104.214844 C 147.476562 105.371094 148.414062 106.304688 149.570312 106.304688 C 150.726562 106.304688 151.664062 105.371094 151.664062 104.214844 Z M 151.664062 104.214844 "/>
<path fill-rule="nonzero" fill="rgb(0%, 0%, 0%)" fill-opacity="1" d="M 83.628906 81.535156 C 83.628906 80.382812 82.691406 79.445312 81.539062 79.445312 C 80.382812 79.445312 79.445312 80.382812 79.445312 81.535156 C 79.445312 82.691406 80.382812 83.628906 81.539062 83.628906 C 82.691406 83.628906 83.628906 82.691406 83.628906 81.535156 Z M 83.628906 81.535156 "/>
<path fill-rule="nonzero" fill="rgb(0%, 0%, 0%)" fill-opacity="1" d="M 106.308594 81.535156 C 106.308594 80.382812 105.371094 79.445312 104.214844 79.445312 C 103.058594 79.445312 102.121094 80.382812 102.121094 81.535156 C 102.121094 82.691406 103.058594 83.628906 104.214844 83.628906 C 105.371094 83.628906 106.308594 82.691406 106.308594 81.535156 Z M 106.308594 81.535156 "/>
</svg>
