<?xml version="1.0" encoding="UTF-8"?>
<svg xmlns="http://www.w3.org/2000/svg" xmlns:xlink="http://www.w3.org/1999/xlink" width="211.211pt" height="126.388pt" viewBox="0 0 211.211 126.388">
<defs>
<g>
<g id="glyph-0-0">
<path d="M 3.875 -2.625 C 3.90625 -2.71875 3.90625 -2.734375 3.90625 -2.78125 C 3.90625 -2.921875 3.796875 -3 3.671875 -3 C 3.59375 -3 3.46875 -2.96875 3.390625 -2.84375 C 3.359375 -2.796875 3.3125 -2.578125 3.28125 -2.4375 L 3.125 -1.859375 C 3.09375 -1.6875 2.875 -0.8125 2.84375 -0.734375 C 2.84375 -0.734375 2.53125 -0.125 2 -0.125 C 1.515625 -0.125 1.515625 -0.578125 1.515625 -0.703125 C 1.515625 -1.078125 1.671875 -1.515625 1.890625 -2.0625 C 1.96875 -2.28125 2 -2.359375 2 -2.484375 C 2 -2.8125 1.71875 -3.078125 1.34375 -3.078125 C 0.640625 -3.078125 0.328125 -2.125 0.328125 -2 C 0.328125 -1.921875 0.421875 -1.921875 0.453125 -1.921875 C 0.546875 -1.921875 0.546875 -1.953125 0.578125 -2.03125 C 0.75 -2.609375 1.046875 -2.875 1.328125 -2.875 C 1.4375 -2.875 1.5 -2.796875 1.5 -2.640625 C 1.5 -2.46875 1.4375 -2.328125 1.40625 -2.234375 C 1.0625 -1.375 1 -1.125 1 -0.8125 C 1 -0.703125 1 -0.375 1.265625 -0.140625 C 1.484375 0.03125 1.78125 0.0625 1.96875 0.0625 C 2.25 0.0625 2.5 -0.03125 2.71875 -0.25 C 2.640625 0.140625 2.5625 0.4375 2.265625 0.78125 C 2.078125 1 1.796875 1.21875 1.421875 1.21875 C 1.375 1.21875 1.046875 1.21875 0.90625 1 C 1.28125 0.953125 1.28125 0.625 1.28125 0.609375 C 1.28125 0.390625 1.078125 0.34375 1.015625 0.34375 C 0.84375 0.34375 0.609375 0.484375 0.609375 0.8125 C 0.609375 1.15625 0.9375 1.421875 1.4375 1.421875 C 2.140625 1.421875 3 0.875 3.21875 0 Z M 3.875 -2.625 "/>
</g>
<g id="glyph-0-1">
<path d="M 1.734375 -0.734375 C 1.671875 -0.5 1.4375 -0.125 1.078125 -0.125 C 1.0625 -0.125 0.84375 -0.125 0.703125 -0.21875 C 0.984375 -0.3125 1.015625 -0.5625 1.015625 -0.609375 C 1.015625 -0.765625 0.890625 -0.859375 0.734375 -0.859375 C 0.53125 -0.859375 0.328125 -0.703125 0.328125 -0.4375 C 0.328125 -0.09375 0.71875 0.0625 1.0625 0.0625 C 1.390625 0.0625 1.671875 -0.125 1.84375 -0.421875 C 2.015625 -0.0625 2.390625 0.0625 2.671875 0.0625 C 3.484375 0.0625 3.90625 -0.796875 3.90625 -1 C 3.90625 -1.09375 3.8125 -1.09375 3.796875 -1.09375 C 3.6875 -1.09375 3.6875 -1.046875 3.65625 -0.96875 C 3.515625 -0.484375 3.09375 -0.125 2.703125 -0.125 C 2.421875 -0.125 2.28125 -0.3125 2.28125 -0.578125 C 2.28125 -0.765625 2.453125 -1.390625 2.640625 -2.171875 C 2.78125 -2.703125 3.09375 -2.875 3.328125 -2.875 C 3.34375 -2.875 3.546875 -2.875 3.703125 -2.78125 C 3.484375 -2.71875 3.390625 -2.515625 3.390625 -2.390625 C 3.390625 -2.25 3.515625 -2.140625 3.671875 -2.140625 C 3.828125 -2.140625 4.0625 -2.265625 4.0625 -2.5625 C 4.0625 -2.953125 3.609375 -3.078125 3.34375 -3.078125 C 2.984375 -3.078125 2.703125 -2.84375 2.5625 -2.578125 C 2.4375 -2.859375 2.109375 -3.078125 1.71875 -3.078125 C 0.9375 -3.078125 0.5 -2.21875 0.5 -2 C 0.5 -1.921875 0.59375 -1.921875 0.609375 -1.921875 C 0.703125 -1.921875 0.703125 -1.9375 0.75 -2.03125 C 0.921875 -2.578125 1.359375 -2.875 1.703125 -2.875 C 1.9375 -2.875 2.125 -2.75 2.125 -2.421875 C 2.125 -2.28125 2.03125 -1.9375 1.96875 -1.6875 Z M 1.734375 -0.734375 "/>
</g>
<g id="glyph-1-0">
<path d="M 2.328125 -4.4375 C 2.328125 -4.625 2.328125 -4.625 2.125 -4.625 C 1.671875 -4.1875 1.046875 -4.1875 0.765625 -4.1875 L 0.765625 -3.9375 C 0.921875 -3.9375 1.390625 -3.9375 1.765625 -4.125 L 1.765625 -0.578125 C 1.765625 -0.34375 1.765625 -0.25 1.078125 -0.25 L 0.8125 -0.25 L 0.8125 0 C 0.9375 0 1.796875 -0.03125 2.046875 -0.03125 C 2.265625 -0.03125 3.140625 0 3.296875 0 L 3.296875 -0.25 L 3.03125 -0.25 C 2.328125 -0.25 2.328125 -0.34375 2.328125 -0.578125 Z M 2.328125 -4.4375 "/>
</g>
<g id="glyph-2-0">
<path d="M 2.9375 -0.96875 L 2.71875 -0.96875 C 2.71875 -0.875 2.65625 -0.5625 2.578125 -0.515625 C 2.546875 -0.484375 2.125 -0.484375 2.046875 -0.484375 L 1.078125 -0.484375 C 1.40625 -0.71875 1.765625 -1 2.0625 -1.203125 C 2.515625 -1.515625 2.9375 -1.796875 2.9375 -2.328125 C 2.9375 -2.96875 2.328125 -3.3125 1.625 -3.3125 C 0.953125 -3.3125 0.453125 -2.9375 0.453125 -2.4375 C 0.453125 -2.1875 0.671875 -2.140625 0.75 -2.140625 C 0.875 -2.140625 1.03125 -2.234375 1.03125 -2.4375 C 1.03125 -2.609375 0.90625 -2.71875 0.75 -2.71875 C 0.890625 -2.953125 1.1875 -3.09375 1.515625 -3.09375 C 2 -3.09375 2.40625 -2.8125 2.40625 -2.328125 C 2.40625 -1.90625 2.109375 -1.578125 1.734375 -1.265625 L 0.515625 -0.234375 C 0.46875 -0.1875 0.453125 -0.1875 0.453125 -0.15625 L 0.453125 0 L 2.765625 0 Z M 2.9375 -0.96875 "/>
</g>
<g id="glyph-2-1">
<path d="M 1.640625 -1.65625 C 2.109375 -1.65625 2.40625 -1.359375 2.40625 -0.875 C 2.40625 -0.359375 2.09375 -0.09375 1.65625 -0.09375 C 1.59375 -0.09375 1 -0.09375 0.75 -0.359375 C 0.953125 -0.390625 1.015625 -0.53125 1.015625 -0.65625 C 1.015625 -0.84375 0.875 -0.96875 0.703125 -0.96875 C 0.546875 -0.96875 0.40625 -0.859375 0.40625 -0.640625 C 0.40625 -0.125 0.984375 0.109375 1.671875 0.109375 C 2.484375 0.109375 2.984375 -0.390625 2.984375 -0.875 C 2.984375 -1.28125 2.625 -1.625 2.0625 -1.75 C 2.65625 -1.953125 2.8125 -2.328125 2.8125 -2.609375 C 2.8125 -3.015625 2.3125 -3.3125 1.6875 -3.3125 C 1.0625 -3.3125 0.578125 -3.0625 0.578125 -2.609375 C 0.578125 -2.375 0.765625 -2.3125 0.859375 -2.3125 C 1 -2.3125 1.140625 -2.421875 1.140625 -2.609375 C 1.140625 -2.71875 1.078125 -2.859375 0.90625 -2.890625 C 1.109375 -3.109375 1.5625 -3.125 1.671875 -3.125 C 2.03125 -3.125 2.28125 -2.953125 2.28125 -2.609375 C 2.28125 -2.3125 2.09375 -1.859375 1.578125 -1.828125 C 1.4375 -1.828125 1.421875 -1.828125 1.28125 -1.8125 C 1.234375 -1.8125 1.171875 -1.8125 1.171875 -1.734375 C 1.171875 -1.65625 1.21875 -1.65625 1.3125 -1.65625 Z M 1.640625 -1.65625 "/>
</g>
<g id="glyph-2-2">
<path d="M 3.078125 -0.8125 L 3.078125 -1.03125 L 2.453125 -1.03125 L 2.453125 -3.21875 C 2.453125 -3.34375 2.453125 -3.375 2.3125 -3.375 C 2.21875 -3.375 2.21875 -3.375 2.15625 -3.296875 L 0.3125 -1.03125 L 0.3125 -0.8125 L 1.96875 -0.8125 L 1.96875 -0.421875 C 1.96875 -0.265625 1.96875 -0.21875 1.546875 -0.21875 L 1.359375 -0.21875 L 1.359375 0 C 1.59375 -0.015625 1.921875 -0.015625 2.21875 -0.015625 C 2.5 -0.015625 2.828125 -0.015625 3.0625 0 L 3.0625 -0.21875 L 2.890625 -0.21875 C 2.453125 -0.21875 2.453125 -0.265625 2.453125 -0.421875 L 2.453125 -0.8125 Z M 2.015625 -2.84375 L 2.015625 -1.03125 L 0.546875 -1.03125 Z M 2.015625 -2.84375 "/>
</g>
<g id="glyph-2-3">
<path d="M 0.984375 -2.75 C 1.234375 -2.6875 1.46875 -2.6875 1.515625 -2.6875 C 1.859375 -2.6875 2.109375 -2.78125 2.234375 -2.84375 C 2.359375 -2.90625 2.703125 -3.125 2.703125 -3.234375 C 2.703125 -3.3125 2.640625 -3.3125 2.625 -3.3125 C 2.609375 -3.3125 2.609375 -3.3125 2.546875 -3.296875 C 2.359375 -3.234375 2.046875 -3.15625 1.71875 -3.15625 C 1.4375 -3.15625 1.171875 -3.203125 0.90625 -3.296875 C 0.84375 -3.3125 0.84375 -3.3125 0.828125 -3.3125 C 0.75 -3.3125 0.75 -3.265625 0.75 -3.1875 L 0.75 -1.6875 C 0.75 -1.59375 0.75 -1.53125 0.859375 -1.53125 C 0.90625 -1.53125 0.90625 -1.546875 0.953125 -1.59375 C 1.140625 -1.8125 1.40625 -1.921875 1.75 -1.921875 C 2.03125 -1.921875 2.203125 -1.765625 2.265625 -1.65625 C 2.375 -1.484375 2.40625 -1.265625 2.40625 -1.015625 C 2.40625 -0.8125 2.390625 -0.53125 2.1875 -0.34375 C 1.96875 -0.109375 1.6875 -0.09375 1.578125 -0.09375 C 1.25 -0.09375 0.890625 -0.234375 0.734375 -0.53125 C 0.9375 -0.546875 1.015625 -0.6875 1.015625 -0.8125 C 1.015625 -0.96875 0.890625 -1.09375 0.734375 -1.09375 C 0.625 -1.09375 0.453125 -1.015625 0.453125 -0.796875 C 0.453125 -0.296875 0.9375 0.109375 1.578125 0.109375 C 2.328125 0.109375 2.9375 -0.390625 2.9375 -1 C 2.9375 -1.5625 2.453125 -2.09375 1.765625 -2.09375 C 1.453125 -2.09375 1.1875 -2.015625 0.984375 -1.84375 Z M 0.984375 -2.75 "/>
</g>
<g id="glyph-3-0">
<path d="M 3.875 0 L 3.875 -0.28125 L 3.59375 -0.28125 C 2.75 -0.28125 2.71875 -0.390625 2.71875 -0.71875 L 2.71875 -5.734375 C 2.71875 -5.953125 2.71875 -5.96875 2.5 -5.96875 C 1.9375 -5.40625 1.109375 -5.40625 0.828125 -5.40625 L 0.828125 -5.125 C 1 -5.125 1.546875 -5.125 2.03125 -5.359375 L 2.03125 -0.71875 C 2.03125 -0.390625 2.015625 -0.28125 1.171875 -0.28125 L 0.890625 -0.28125 L 0.890625 0 C 1.203125 -0.03125 2.015625 -0.03125 2.375 -0.03125 C 2.75 -0.03125 3.546875 -0.03125 3.875 0 Z M 3.875 0 "/>
</g>
<g id="glyph-3-1">
<path d="M 4.140625 -1.59375 L 3.890625 -1.59375 C 3.875 -1.46875 3.796875 -0.9375 3.6875 -0.796875 C 3.625 -0.71875 3.015625 -0.71875 2.828125 -0.71875 L 1.234375 -0.71875 L 2.125 -1.5625 C 3.59375 -2.828125 4.140625 -3.3125 4.140625 -4.21875 C 4.140625 -5.25 3.296875 -5.96875 2.1875 -5.96875 C 1.15625 -5.96875 0.453125 -5.15625 0.453125 -4.34375 C 0.453125 -3.890625 0.84375 -3.84375 0.921875 -3.84375 C 1.125 -3.84375 1.390625 -3.984375 1.390625 -4.3125 C 1.390625 -4.578125 1.203125 -4.78125 0.921875 -4.78125 C 0.875 -4.78125 0.859375 -4.78125 0.8125 -4.765625 C 1.03125 -5.40625 1.609375 -5.6875 2.09375 -5.6875 C 3 -5.6875 3.3125 -4.84375 3.3125 -4.21875 C 3.3125 -3.3125 2.625 -2.5625 2.203125 -2.09375 L 0.5625 -0.328125 C 0.453125 -0.21875 0.453125 -0.203125 0.453125 0 L 3.890625 0 Z M 4.140625 -1.59375 "/>
</g>
<g id="glyph-4-0">
<path d="M 0.421875 0.96875 C 0.34375 1.21875 0.328125 1.28125 0.015625 1.28125 C -0.09375 1.28125 -0.1875 1.28125 -0.1875 1.4375 C -0.1875 1.5 -0.125 1.546875 -0.078125 1.546875 C 0 1.546875 0.03125 1.515625 0.625 1.515625 C 1.1875 1.515625 1.359375 1.546875 1.421875 1.546875 C 1.453125 1.546875 1.5625 1.546875 1.5625 1.390625 C 1.5625 1.28125 1.453125 1.28125 1.359375 1.28125 C 0.984375 1.28125 0.984375 1.234375 0.984375 1.15625 C 0.984375 1.109375 1.125 0.546875 1.359375 -0.390625 C 1.46875 -0.203125 1.71875 0.078125 2.140625 0.078125 C 3.125 0.078125 4.140625 -1.046875 4.140625 -2.203125 C 4.140625 -3 3.640625 -3.515625 3 -3.515625 C 2.515625 -3.515625 2.140625 -3.1875 1.90625 -2.953125 C 1.734375 -3.515625 1.203125 -3.515625 1.125 -3.515625 C 0.84375 -3.515625 0.640625 -3.328125 0.515625 -3.078125 C 0.328125 -2.71875 0.234375 -2.3125 0.234375 -2.296875 C 0.234375 -2.21875 0.296875 -2.1875 0.359375 -2.1875 C 0.46875 -2.1875 0.46875 -2.21875 0.53125 -2.4375 C 0.625 -2.84375 0.765625 -3.296875 1.09375 -3.296875 C 1.296875 -3.296875 1.359375 -3.109375 1.359375 -2.921875 C 1.359375 -2.84375 1.328125 -2.640625 1.3125 -2.578125 Z M 1.875 -2.453125 C 1.921875 -2.59375 1.921875 -2.609375 2.046875 -2.75 C 2.34375 -3.109375 2.6875 -3.296875 2.96875 -3.296875 C 3.375 -3.296875 3.515625 -2.90625 3.515625 -2.546875 C 3.515625 -2.25 3.34375 -1.390625 3.109375 -0.921875 C 2.90625 -0.5 2.515625 -0.140625 2.140625 -0.140625 C 1.609375 -0.140625 1.46875 -0.765625 1.46875 -0.828125 C 1.46875 -0.84375 1.484375 -0.921875 1.5 -0.953125 Z M 1.875 -2.453125 "/>
</g>
<g id="glyph-5-0">
<path d="M 2.78125 -0.84375 C 2.9375 -0.734375 2.953125 -0.734375 2.984375 -0.734375 C 3.09375 -0.734375 3.1875 -0.828125 3.1875 -0.953125 C 3.1875 -1.0625 3.09375 -1.09375 3.046875 -1.125 C 2.75 -1.25 2.4375 -1.375 2.125 -1.484375 C 2.734375 -1.734375 2.90625 -1.796875 3.015625 -1.84375 C 3.109375 -1.890625 3.1875 -1.921875 3.1875 -2.046875 C 3.1875 -2.15625 3.09375 -2.25 2.984375 -2.25 C 2.9375 -2.25 2.90625 -2.21875 2.859375 -2.203125 L 2.015625 -1.65625 C 2.015625 -1.734375 2.046875 -1.953125 2.046875 -2.015625 C 2.0625 -2.140625 2.109375 -2.5 2.109375 -2.609375 C 2.109375 -2.703125 2.015625 -2.78125 1.90625 -2.78125 C 1.8125 -2.78125 1.71875 -2.703125 1.71875 -2.609375 C 1.71875 -2.59375 1.765625 -2.046875 1.765625 -2.03125 C 1.78125 -1.96875 1.796875 -1.734375 1.8125 -1.65625 L 0.953125 -2.203125 C 0.90625 -2.21875 0.875 -2.25 0.828125 -2.25 C 0.71875 -2.25 0.625 -2.15625 0.625 -2.046875 C 0.625 -1.921875 0.71875 -1.890625 0.765625 -1.859375 C 1.078125 -1.734375 1.375 -1.609375 1.6875 -1.5 C 1.078125 -1.25 0.90625 -1.1875 0.796875 -1.140625 C 0.71875 -1.09375 0.625 -1.0625 0.625 -0.953125 C 0.625 -0.828125 0.71875 -0.734375 0.828125 -0.734375 C 0.875 -0.734375 0.96875 -0.796875 1.046875 -0.84375 C 1.125 -0.890625 1.328125 -1.03125 1.40625 -1.078125 C 1.609375 -1.203125 1.6875 -1.25 1.8125 -1.328125 C 1.796875 -1.25 1.78125 -1.03125 1.765625 -0.96875 L 1.71875 -0.390625 C 1.71875 -0.28125 1.8125 -0.203125 1.90625 -0.203125 C 2.015625 -0.203125 2.109375 -0.28125 2.109375 -0.390625 C 2.109375 -0.390625 2.046875 -0.921875 2.046875 -0.953125 C 2.046875 -1.015625 2.015625 -1.25 2.015625 -1.328125 Z M 2.78125 -0.84375 "/>
</g>
<g id="glyph-6-0">
<path d="M 2.03125 -1.328125 C 1.609375 -0.625 1.203125 -0.375 0.640625 -0.34375 C 0.5 -0.328125 0.40625 -0.328125 0.40625 -0.125 C 0.40625 -0.046875 0.46875 0 0.546875 0 C 0.765625 0 1.296875 -0.03125 1.515625 -0.03125 C 1.859375 -0.03125 2.25 0 2.578125 0 C 2.65625 0 2.796875 0 2.796875 -0.234375 C 2.796875 -0.328125 2.703125 -0.34375 2.625 -0.34375 C 2.359375 -0.375 2.125 -0.46875 2.125 -0.75 C 2.125 -0.921875 2.203125 -1.046875 2.359375 -1.3125 L 3.265625 -2.828125 L 6.3125 -2.828125 C 6.328125 -2.71875 6.328125 -2.625 6.328125 -2.515625 C 6.375 -2.203125 6.515625 -0.953125 6.515625 -0.734375 C 6.515625 -0.375 5.90625 -0.34375 5.71875 -0.34375 C 5.578125 -0.34375 5.453125 -0.34375 5.453125 -0.125 C 5.453125 0 5.5625 0 5.625 0 C 5.828125 0 6.078125 -0.03125 6.28125 -0.03125 L 6.953125 -0.03125 C 7.6875 -0.03125 8.21875 0 8.21875 0 C 8.3125 0 8.4375 0 8.4375 -0.234375 C 8.4375 -0.34375 8.328125 -0.34375 8.15625 -0.34375 C 7.5 -0.34375 7.484375 -0.453125 7.453125 -0.8125 L 6.71875 -8.265625 C 6.6875 -8.515625 6.640625 -8.53125 6.515625 -8.53125 C 6.390625 -8.53125 6.328125 -8.515625 6.21875 -8.328125 Z M 3.46875 -3.171875 L 5.875 -7.1875 L 6.28125 -3.171875 Z M 3.46875 -3.171875 "/>
</g>
<g id="glyph-7-0">
<path d="M 5.5625 -1.8125 C 5.703125 -1.8125 5.875 -1.8125 5.875 -1.984375 C 5.875 -2.171875 5.703125 -2.171875 5.5625 -2.171875 L 1 -2.171875 C 0.875 -2.171875 0.703125 -2.171875 0.703125 -1.984375 C 0.703125 -1.8125 0.875 -1.8125 1 -1.8125 Z M 5.5625 -1.8125 "/>
</g>
<g id="glyph-8-0">
<path d="M 3.140625 -5.15625 C 3.140625 -5.3125 3.140625 -5.375 2.96875 -5.375 C 2.875 -5.375 2.859375 -5.375 2.78125 -5.265625 L 0.234375 -1.5625 L 0.234375 -1.3125 L 2.484375 -1.3125 L 2.484375 -0.640625 C 2.484375 -0.34375 2.46875 -0.265625 1.84375 -0.265625 L 1.671875 -0.265625 L 1.671875 0 C 2.34375 -0.03125 2.359375 -0.03125 2.8125 -0.03125 C 3.265625 -0.03125 3.28125 -0.03125 3.953125 0 L 3.953125 -0.265625 L 3.78125 -0.265625 C 3.15625 -0.265625 3.140625 -0.34375 3.140625 -0.640625 L 3.140625 -1.3125 L 3.984375 -1.3125 L 3.984375 -1.5625 L 3.140625 -1.5625 Z M 2.546875 -4.515625 L 2.546875 -1.5625 L 0.515625 -1.5625 Z M 2.546875 -4.515625 "/>
</g>
</g>
</defs>
<path fill-rule="nonzero" fill="rgb(92.001343%, 97.427368%, 99.497986%)" fill-opacity="1" d="M 46.394531 30.980469 L 46.394531 87.675781 L 188.128906 87.675781 Z M 46.394531 30.980469 "/>
<path fill="none" stroke-width="0.29889" stroke-linecap="butt" stroke-linejoin="miter" stroke="rgb(79.998779%, 79.998779%, 79.998779%)" stroke-opacity="1" stroke-miterlimit="10" d="M -0.00046875 -0.00178125 L 141.733906 -0.00178125 M -0.00046875 28.345875 L 141.733906 28.345875 M -0.00046875 56.681812 L 141.733906 56.681812 M -0.00046875 -0.00178125 L -0.00046875 56.693531 M 28.347187 -0.00178125 L 28.347187 56.693531 M 56.694844 -0.00178125 L 56.694844 56.693531 M 85.038594 -0.00178125 L 85.038594 56.693531 M 113.38625 -0.00178125 L 113.38625 56.693531 M 141.722187 -0.00178125 L 141.722187 56.693531 " transform="matrix(1, 0, 0, -1, 46.395, 87.674)"/>
<path fill="none" stroke-width="0.99628" stroke-linecap="round" stroke-linejoin="round" stroke="rgb(0%, 0%, 0%)" stroke-opacity="1" stroke-miterlimit="10" d="M 141.733906 -0.00178125 L -0.00046875 56.693531 " transform="matrix(1, 0, 0, -1, 46.395, 87.674)"/>
<path fill="none" stroke-width="1.99254" stroke-linecap="round" stroke-linejoin="round" stroke="rgb(0%, 0%, 0%)" stroke-opacity="1" stroke-miterlimit="10" d="M -0.00046875 56.693531 L -0.00046875 -0.00178125 " transform="matrix(1, 0, 0, -1, 46.395, 87.674)"/>
<path fill="none" stroke-width="0.79703" stroke-linecap="butt" stroke-linejoin="miter" stroke="rgb(54.998779%, 54.998779%, 54.998779%)" stroke-opacity="1" stroke-miterlimit="10" d="M -0.00046875 -0.00178125 L 141.733906 -0.00178125 " transform="matrix(1, 0, 0, -1, 46.395, 87.674)"/>
<path fill="none" stroke-width="0.59778" stroke-linecap="butt" stroke-linejoin="miter" stroke="rgb(0%, 0%, 0%)" stroke-opacity="1" stroke-miterlimit="10" d="M 28.347187 -0.00178125 L 56.694844 -0.00178125 " transform="matrix(1, 0, 0, -1, 46.395, 87.674)"/>
<path fill="none" stroke-width="0.59778" stroke-linecap="butt" stroke-linejoin="miter" stroke="rgb(0%, 0%, 0%)" stroke-opacity="1" stroke-miterlimit="10" d="M 56.694844 -0.00178125 L 85.038594 -0.00178125 " transform="matrix(1, 0, 0, -1, 46.395, 87.674)"/>
<path fill="none" stroke-width="0.59778" stroke-linecap="butt" stroke-linejoin="miter" stroke="rgb(0%, 0%, 0%)" stroke-opacity="1" stroke-miterlimit="10" d="M 85.038594 -0.00178125 L 113.38625 -0.00178125 " transform="matrix(1, 0, 0, -1, 46.395, 87.674)"/>
<path fill-rule="nonzero" fill="rgb(54.998779%, 54.998779%, 54.998779%)" fill-opacity="1" d="M 47.890625 87.675781 C 47.890625 86.847656 47.21875 86.179688 46.394531 86.179688 C 45.570312 86.179688 44.902344 86.847656 44.902344 87.675781 C 44.902344 88.5 45.570312 89.167969 46.394531 89.167969 C 47.21875 89.167969 47.890625 88.5 47.890625 87.675781 Z M 47.890625 87.675781 "/>
<path fill-rule="nonzero" fill="rgb(54.998779%, 54.998779%, 54.998779%)" fill-opacity="1" d="M 47.890625 59.328125 C 47.890625 58.503906 47.21875 57.832031 46.394531 57.832031 C 45.570312 57.832031 44.902344 58.503906 44.902344 59.328125 C 44.902344 60.152344 45.570312 60.820312 46.394531 60.820312 C 47.21875 60.820312 47.890625 60.152344 47.890625 59.328125 Z M 47.890625 59.328125 "/>
<path fill-rule="nonzero" fill="rgb(54.998779%, 54.998779%, 54.998779%)" fill-opacity="1" d="M 47.890625 30.980469 C 47.890625 30.15625 47.21875 29.488281 46.394531 29.488281 C 45.570312 29.488281 44.902344 30.15625 44.902344 30.980469 C 44.902344 31.804688 45.570312 32.476562 46.394531 32.476562 C 47.21875 32.476562 47.890625 31.804688 47.890625 30.980469 Z M 47.890625 30.980469 "/>
<path fill-rule="nonzero" fill="rgb(54.998779%, 54.998779%, 54.998779%)" fill-opacity="1" d="M 76.234375 87.675781 C 76.234375 86.847656 75.566406 86.179688 74.742188 86.179688 C 73.917969 86.179688 73.246094 86.847656 73.246094 87.675781 C 73.246094 88.5 73.917969 89.167969 74.742188 89.167969 C 75.566406 89.167969 76.234375 88.5 76.234375 87.675781 Z M 76.234375 87.675781 "/>
<path fill-rule="nonzero" fill="rgb(54.998779%, 54.998779%, 54.998779%)" fill-opacity="1" d="M 76.234375 59.328125 C 76.234375 58.503906 75.566406 57.832031 74.742188 57.832031 C 73.917969 57.832031 73.246094 58.503906 73.246094 59.328125 C 73.246094 60.152344 73.917969 60.820312 74.742188 60.820312 C 75.566406 60.820312 76.234375 60.152344 76.234375 59.328125 Z M 76.234375 59.328125 "/>
<path fill-rule="nonzero" fill="rgb(54.998779%, 54.998779%, 54.998779%)" fill-opacity="1" d="M 76.234375 30.980469 C 76.234375 30.15625 75.566406 29.488281 74.742188 29.488281 C 73.917969 29.488281 73.246094 30.15625 73.246094 30.980469 C 73.246094 31.804688 73.917969 32.476562 74.742188 32.476562 C 75.566406 32.476562 76.234375 31.804688 76.234375 30.980469 Z M 76.234375 30.980469 "/>
<path fill-rule="nonzero" fill="rgb(54.998779%, 54.998779%, 54.998779%)" fill-opacity="1" d="M 104.582031 87.675781 C 104.582031 86.847656 103.914062 86.179688 103.089844 86.179688 C 102.261719 86.179688 101.59375 86.847656 101.59375 87.675781 C 101.59375 88.5 102.261719 89.167969 103.089844 89.167969 C 103.914062 89.167969 104.582031 88.5 104.582031 87.675781 Z M 104.582031 87.675781 "/>
<path fill-rule="nonzero" fill="rgb(54.998779%, 54.998779%, 54.998779%)" fill-opacity="1" d="M 104.582031 59.328125 C 104.582031 58.503906 103.914062 57.832031 103.089844 57.832031 C 102.261719 57.832031 101.59375 58.503906 101.59375 59.328125 C 101.59375 60.152344 102.261719 60.820312 103.089844 60.820312 C 103.914062 60.820312 104.582031 60.152344 104.582031 59.328125 Z M 104.582031 59.328125 "/>
<path fill-rule="nonzero" fill="rgb(54.998779%, 54.998779%, 54.998779%)" fill-opacity="1" d="M 104.582031 30.980469 C 104.582031 30.15625 103.914062 29.488281 103.089844 29.488281 C 102.261719 29.488281 101.59375 30.15625 101.59375 30.980469 C 101.59375 31.804688 102.261719 32.476562 103.089844 32.476562 C 103.914062 32.476562 104.582031 31.804688 104.582031 30.980469 Z M 104.582031 30.980469 "/>
<path fill-rule="nonzero" fill="rgb(54.998779%, 54.998779%, 54.998779%)" fill-opacity="1" d="M 132.929688 87.675781 C 132.929688 86.847656 132.257812 86.179688 131.433594 86.179688 C 130.609375 86.179688 129.941406 86.847656 129.941406 87.675781 C 129.941406 88.5 130.609375 89.167969 131.433594 89.167969 C 132.257812 89.167969 132.929688 88.5 132.929688 87.675781 Z M 132.929688 87.675781 "/>
<path fill-rule="nonzero" fill="rgb(54.998779%, 54.998779%, 54.998779%)" fill-opacity="1" d="M 132.929688 59.328125 C 132.929688 58.503906 132.257812 57.832031 131.433594 57.832031 C 130.609375 57.832031 129.941406 58.503906 129.941406 59.328125 C 129.941406 60.152344 130.609375 60.820312 131.433594 60.820312 C 132.257812 60.820312 132.929688 60.152344 132.929688 59.328125 Z M 132.929688 59.328125 "/>
<path fill-rule="nonzero" fill="rgb(54.998779%, 54.998779%, 54.998779%)" fill-opacity="1" d="M 132.929688 30.980469 C 132.929688 30.15625 132.257812 29.488281 131.433594 29.488281 C 130.609375 29.488281 129.941406 30.15625 129.941406 30.980469 C 129.941406 31.804688 130.609375 32.476562 131.433594 32.476562 C 132.257812 32.476562 132.929688 31.804688 132.929688 30.980469 Z M 132.929688 30.980469 "/>
<path fill-rule="nonzero" fill="rgb(54.998779%, 54.998779%, 54.998779%)" fill-opacity="1" d="M 161.273438 87.675781 C 161.273438 86.847656 160.605469 86.179688 159.78125 86.179688 C 158.957031 86.179688 158.285156 86.847656 158.285156 87.675781 C 158.285156 88.5 158.957031 89.167969 159.78125 89.167969 C 160.605469 89.167969 161.273438 88.5 161.273438 87.675781 Z M 161.273438 87.675781 "/>
<path fill-rule="nonzero" fill="rgb(54.998779%, 54.998779%, 54.998779%)" fill-opacity="1" d="M 161.273438 59.328125 C 161.273438 58.503906 160.605469 57.832031 159.78125 57.832031 C 158.957031 57.832031 158.285156 58.503906 158.285156 59.328125 C 158.285156 60.152344 158.957031 60.820312 159.78125 60.820312 C 160.605469 60.820312 161.273438 60.152344 161.273438 59.328125 Z M 161.273438 59.328125 "/>
<path fill-rule="nonzero" fill="rgb(54.998779%, 54.998779%, 54.998779%)" fill-opacity="1" d="M 161.273438 30.980469 C 161.273438 30.15625 160.605469 29.488281 159.78125 29.488281 C 158.957031 29.488281 158.285156 30.15625 158.285156 30.980469 C 158.285156 31.804688 158.957031 32.476562 159.78125 32.476562 C 160.605469 32.476562 161.273438 31.804688 161.273438 30.980469 Z M 161.273438 30.980469 "/>
<path fill-rule="nonzero" fill="rgb(54.998779%, 54.998779%, 54.998779%)" fill-opacity="1" d="M 189.621094 87.675781 C 189.621094 86.847656 188.953125 86.179688 188.128906 86.179688 C 187.300781 86.179688 186.632812 86.847656 186.632812 87.675781 C 186.632812 88.5 187.300781 89.167969 188.128906 89.167969 C 188.953125 89.167969 189.621094 88.5 189.621094 87.675781 Z M 189.621094 87.675781 "/>
<path fill-rule="nonzero" fill="rgb(54.998779%, 54.998779%, 54.998779%)" fill-opacity="1" d="M 189.621094 59.328125 C 189.621094 58.503906 188.953125 57.832031 188.128906 57.832031 C 187.300781 57.832031 186.632812 58.503906 186.632812 59.328125 C 186.632812 60.152344 187.300781 60.820312 188.128906 60.820312 C 188.953125 60.820312 189.621094 60.152344 189.621094 59.328125 Z M 189.621094 59.328125 "/>
<path fill-rule="nonzero" fill="rgb(54.998779%, 54.998779%, 54.998779%)" fill-opacity="1" d="M 189.621094 30.980469 C 189.621094 30.15625 188.953125 29.488281 188.128906 29.488281 C 187.300781 29.488281 186.632812 30.15625 186.632812 30.980469 C 186.632812 31.804688 187.300781 32.476562 188.128906 32.476562 C 188.953125 32.476562 189.621094 31.804688 189.621094 30.980469 Z M 189.621094 30.980469 "/>
<g fill="rgb(0%, 0%, 0%)" fill-opacity="1">
<use xlink:href="#glyph-0-0" x="33.902" y="61.791"/>
</g>
<g fill="rgb(0%, 0%, 0%)" fill-opacity="1">
<use xlink:href="#glyph-1-0" x="34.222" y="102.74"/>
</g>
<g fill="rgb(0%, 0%, 0%)" fill-opacity="1">
<use xlink:href="#glyph-0-1" x="72.483" y="102.739"/>
</g>
<g fill="rgb(0%, 0%, 0%)" fill-opacity="1">
<use xlink:href="#glyph-0-1" x="98.885" y="102.739"/>
</g>
<g fill="rgb(0%, 0%, 0%)" fill-opacity="1">
<use xlink:href="#glyph-2-0" x="103.403" y="99.733"/>
</g>
<g fill="rgb(0%, 0%, 0%)" fill-opacity="1">
<use xlink:href="#glyph-0-1" x="127.231" y="102.739"/>
</g>
<g fill="rgb(0%, 0%, 0%)" fill-opacity="1">
<use xlink:href="#glyph-2-1" x="131.749" y="99.733"/>
</g>
<g fill="rgb(0%, 0%, 0%)" fill-opacity="1">
<use xlink:href="#glyph-0-1" x="155.578" y="102.739"/>
</g>
<g fill="rgb(0%, 0%, 0%)" fill-opacity="1">
<use xlink:href="#glyph-2-2" x="160.096" y="99.733"/>
</g>
<g fill="rgb(0%, 0%, 0%)" fill-opacity="1">
<use xlink:href="#glyph-0-1" x="196.329" y="99.84"/>
</g>
<g fill="rgb(0%, 0%, 0%)" fill-opacity="1">
<use xlink:href="#glyph-2-3" x="200.847" y="96.834"/>
</g>
<path fill="none" stroke-width="0.49814" stroke-linecap="butt" stroke-linejoin="miter" stroke="rgb(0%, 0%, 69.999695%)" stroke-opacity="1" stroke-miterlimit="10" d="M 152.784687 27.634937 C 152.675312 28.966969 151.675312 30.224781 149.82375 30.963062 L 86.362812 56.349781 C 84.515156 57.088062 83.515156 58.345875 83.401875 59.677906 C 82.405781 58.791187 80.812031 58.568531 78.964375 59.306812 L 15.503437 84.693531 C 13.651875 85.431812 12.062031 85.209156 11.062031 84.322437 " transform="matrix(1, 0, 0, -1, 46.395, 87.674)"/>
<g fill="rgb(0%, 0%, 69.999695%)" fill-opacity="1">
<use xlink:href="#glyph-3-0" x="130.226" y="24.005"/>
</g>
<path fill-rule="nonzero" fill="rgb(0%, 0%, 69.999695%)" fill-opacity="1" stroke-width="0.79703" stroke-linecap="butt" stroke-linejoin="miter" stroke="rgb(0%, 0%, 0%)" stroke-opacity="1" stroke-miterlimit="10" d="M 144.722187 -0.00178125 C 144.722187 1.650562 143.382344 2.990406 141.733906 2.990406 C 140.081562 2.990406 138.741719 1.650562 138.741719 -0.00178125 C 138.741719 -1.650219 140.081562 -2.990063 141.733906 -2.990063 C 143.382344 -2.990063 144.722187 -1.650219 144.722187 -0.00178125 Z M 144.722187 -0.00178125 " transform="matrix(1, 0, 0, -1, 46.395, 87.674)"/>
<path fill-rule="nonzero" fill="rgb(0%, 0%, 69.999695%)" fill-opacity="1" stroke-width="0.79703" stroke-linecap="butt" stroke-linejoin="miter" stroke="rgb(0%, 0%, 0%)" stroke-opacity="1" stroke-miterlimit="10" d="M 2.987812 56.693531 C 2.987812 58.341969 1.651875 59.681812 -0.00046875 59.681812 C -1.648906 59.681812 -2.98875 58.341969 -2.98875 56.693531 C -2.98875 55.041187 -1.648906 53.70525 -0.00046875 53.70525 C 1.651875 53.70525 2.987812 55.041187 2.987812 56.693531 Z M 2.987812 56.693531 " transform="matrix(1, 0, 0, -1, 46.395, 87.674)"/>
<path fill="none" stroke-width="0.49814" stroke-linecap="butt" stroke-linejoin="miter" stroke="rgb(0%, 0%, 69.999695%)" stroke-opacity="1" stroke-miterlimit="10" d="M -29.762188 56.693531 C -30.9575 56.095875 -31.754375 54.701344 -31.754375 52.709156 L -31.754375 32.33025 C -31.754375 30.338062 -32.555156 28.943531 -33.750469 28.345875 C -32.555156 27.748219 -31.754375 26.353687 -31.754375 24.3615 L -31.754375 3.9865 C -31.754375 1.994312 -30.9575 0.595875 -29.762188 -0.00178125 " transform="matrix(1, 0, 0, -1, 46.395, 87.674)"/>
<g fill="rgb(0%, 0%, 69.999695%)" fill-opacity="1">
<use xlink:href="#glyph-3-1" x="2.989" y="62.164"/>
</g>
<path fill-rule="nonzero" fill="rgb(0%, 0%, 69.999695%)" fill-opacity="1" stroke-width="0.79703" stroke-linecap="butt" stroke-linejoin="miter" stroke="rgb(0%, 0%, 0%)" stroke-opacity="1" stroke-miterlimit="10" d="M 2.987812 56.693531 C 2.987812 58.341969 1.651875 59.681812 -0.00046875 59.681812 C -1.648906 59.681812 -2.98875 58.341969 -2.98875 56.693531 C -2.98875 55.041187 -1.648906 53.70525 -0.00046875 53.70525 C 1.651875 53.70525 2.987812 55.041187 2.987812 56.693531 Z M 2.987812 56.693531 " transform="matrix(1, 0, 0, -1, 46.395, 87.674)"/>
<path fill-rule="nonzero" fill="rgb(0%, 0%, 69.999695%)" fill-opacity="1" stroke-width="0.79703" stroke-linecap="butt" stroke-linejoin="miter" stroke="rgb(0%, 0%, 0%)" stroke-opacity="1" stroke-miterlimit="10" d="M 2.987812 28.345875 C 2.987812 29.998219 1.651875 31.334156 -0.00046875 31.334156 C -1.648906 31.334156 -2.98875 29.998219 -2.98875 28.345875 C -2.98875 26.697437 -1.648906 25.357594 -0.00046875 25.357594 C 1.651875 25.357594 2.987812 26.697437 2.987812 28.345875 Z M 2.987812 28.345875 " transform="matrix(1, 0, 0, -1, 46.395, 87.674)"/>
<path fill-rule="nonzero" fill="rgb(0%, 0%, 69.999695%)" fill-opacity="1" stroke-width="0.79703" stroke-linecap="butt" stroke-linejoin="miter" stroke="rgb(0%, 0%, 0%)" stroke-opacity="1" stroke-miterlimit="10" d="M 2.987812 -0.00178125 C 2.987812 1.650562 1.651875 2.990406 -0.00046875 2.990406 C -1.648906 2.990406 -2.98875 1.650562 -2.98875 -0.00178125 C -2.98875 -1.650219 -1.648906 -2.990063 -0.00046875 -2.990063 C 1.651875 -2.990063 2.987812 -1.650219 2.987812 -0.00178125 Z M 2.987812 -0.00178125 " transform="matrix(1, 0, 0, -1, 46.395, 87.674)"/>
<path fill-rule="nonzero" fill="rgb(100%, 100%, 100%)" fill-opacity="1" stroke-width="0.79703" stroke-linecap="butt" stroke-linejoin="miter" stroke="rgb(75%, 0%, 0%)" stroke-opacity="1" stroke-miterlimit="10" d="M -0.00046875 61.177906 L -1.098125 58.20525 L -4.262188 58.08025 L -1.777813 56.115406 L -2.633281 53.064625 L -0.00046875 54.826344 L 2.63625 53.064625 L 1.776875 56.115406 L 4.265156 58.08025 L 1.097187 58.20525 Z M -0.00046875 61.177906 " transform="matrix(1, 0, 0, -1, 46.395, 87.674)"/>
<path fill-rule="nonzero" fill="rgb(100%, 100%, 100%)" fill-opacity="1" d="M 49.179688 28.199219 L 59.75 28.199219 L 59.75 17.40625 L 49.179688 17.40625 Z M 49.179688 28.199219 "/>
<g fill="rgb(75%, 0%, 0%)" fill-opacity="1">
<use xlink:href="#glyph-4-0" x="50.174" y="25.265"/>
</g>
<g fill="rgb(75%, 0%, 0%)" fill-opacity="1">
<use xlink:href="#glyph-5-0" x="54.437" y="26.261"/>
</g>
<path fill-rule="nonzero" fill="rgb(100%, 100%, 100%)" fill-opacity="1" stroke-width="0.59778" stroke-linecap="butt" stroke-linejoin="miter" stroke="rgb(0%, 0%, 0%)" stroke-opacity="1" stroke-miterlimit="10" d="M 31.085469 -0.00178125 C 31.085469 1.513844 29.858906 2.740406 28.347187 2.740406 C 26.831562 2.740406 25.605 1.513844 25.605 -0.00178125 C 25.605 -1.5135 26.831562 -2.740063 28.347187 -2.740063 C 29.858906 -2.740063 31.085469 -1.5135 31.085469 -0.00178125 Z M 31.085469 -0.00178125 " transform="matrix(1, 0, 0, -1, 46.395, 87.674)"/>
<path fill-rule="nonzero" fill="rgb(0%, 0%, 0%)" fill-opacity="1" stroke-width="0.59778" stroke-linecap="butt" stroke-linejoin="miter" stroke="rgb(0%, 0%, 0%)" stroke-opacity="1" stroke-miterlimit="10" d="M 59.433125 -0.00178125 C 59.433125 1.513844 58.206562 2.740406 56.694844 2.740406 C 55.179219 2.740406 53.952656 1.513844 53.952656 -0.00178125 C 53.952656 -1.5135 55.179219 -2.740063 56.694844 -2.740063 C 58.206562 -2.740063 59.433125 -1.5135 59.433125 -0.00178125 Z M 59.433125 -0.00178125 " transform="matrix(1, 0, 0, -1, 46.395, 87.674)"/>
<path fill-rule="nonzero" fill="rgb(100%, 100%, 100%)" fill-opacity="1" stroke-width="0.59778" stroke-linecap="butt" stroke-linejoin="miter" stroke="rgb(0%, 0%, 0%)" stroke-opacity="1" stroke-miterlimit="10" d="M 87.780781 -0.00178125 C 87.780781 1.513844 86.554219 2.740406 85.038594 2.740406 C 83.526875 2.740406 82.300312 1.513844 82.300312 -0.00178125 C 82.300312 -1.5135 83.526875 -2.740063 85.038594 -2.740063 C 86.554219 -2.740063 87.780781 -1.5135 87.780781 -0.00178125 Z M 87.780781 -0.00178125 " transform="matrix(1, 0, 0, -1, 46.395, 87.674)"/>
<path fill-rule="nonzero" fill="rgb(0%, 0%, 0%)" fill-opacity="1" stroke-width="0.59778" stroke-linecap="butt" stroke-linejoin="miter" stroke="rgb(0%, 0%, 0%)" stroke-opacity="1" stroke-miterlimit="10" d="M 116.124531 -0.00178125 C 116.124531 1.513844 114.897969 2.740406 113.38625 2.740406 C 111.874531 2.740406 110.647969 1.513844 110.647969 -0.00178125 C 110.647969 -1.5135 111.874531 -2.740063 113.38625 -2.740063 C 114.897969 -2.740063 116.124531 -1.5135 116.124531 -0.00178125 Z M 116.124531 -0.00178125 " transform="matrix(1, 0, 0, -1, 46.395, 87.674)"/>
<g fill="rgb(0%, 0%, 0%)" fill-opacity="1">
<use xlink:href="#glyph-6-0" x="109.331" y="119.472"/>
</g>
<g fill="rgb(0%, 0%, 0%)" fill-opacity="1">
<use xlink:href="#glyph-7-0" x="118.106" y="114.524"/>
</g>
<g fill="rgb(0%, 0%, 0%)" fill-opacity="1">
<use xlink:href="#glyph-8-0" x="118.106" y="122.403"/>
</g>
</svg>
