<?xml version="1.0" encoding="UTF-8"?>
<svg xmlns="http://www.w3.org/2000/svg" xmlns:xlink="http://www.w3.org/1999/xlink" width="148.789pt" height="56.51pt" viewBox="0 0 148.789 56.51">
<defs>
<g>
<g id="glyph-0-0">
<path d="M 3.015625 -3.234375 L 3.984375 -3.234375 C 4.734375 -3.234375 4.8125 -3.078125 4.8125 -2.796875 C 4.8125 -2.71875 4.8125 -2.609375 4.75 -2.296875 C 4.71875 -2.25 4.71875 -2.21875 4.71875 -2.1875 C 4.71875 -2.109375 4.78125 -2.078125 4.828125 -2.078125 C 4.9375 -2.078125 4.9375 -2.109375 4.984375 -2.28125 L 5.53125 -4.453125 C 5.5625 -4.5625 5.5625 -4.578125 5.5625 -4.609375 C 5.5625 -4.625 5.546875 -4.71875 5.4375 -4.71875 C 5.34375 -4.71875 5.328125 -4.671875 5.296875 -4.5 C 5.078125 -3.734375 4.859375 -3.546875 4 -3.546875 L 3.09375 -3.546875 L 3.734375 -6.078125 C 3.828125 -6.4375 3.84375 -6.46875 4.28125 -6.46875 L 5.59375 -6.46875 C 6.8125 -6.46875 7.046875 -6.140625 7.046875 -5.375 C 7.046875 -5.140625 7.046875 -5.109375 7.015625 -4.828125 C 7 -4.703125 7 -4.6875 7 -4.65625 C 7 -4.609375 7.03125 -4.53125 7.125 -4.53125 C 7.234375 -4.53125 7.234375 -4.59375 7.25 -4.78125 L 7.453125 -6.515625 C 7.484375 -6.78125 7.4375 -6.78125 7.1875 -6.78125 L 2.296875 -6.78125 C 2.109375 -6.78125 2 -6.78125 2 -6.578125 C 2 -6.46875 2.09375 -6.46875 2.28125 -6.46875 C 2.65625 -6.46875 2.9375 -6.46875 2.9375 -6.296875 C 2.9375 -6.25 2.9375 -6.234375 2.875 -6.046875 L 1.5625 -0.78125 C 1.46875 -0.390625 1.453125 -0.3125 0.65625 -0.3125 C 0.484375 -0.3125 0.375 -0.3125 0.375 -0.125 C 0.375 0 0.5 0 0.53125 0 C 0.8125 0 1.5625 -0.03125 1.84375 -0.03125 C 2.171875 -0.03125 3 0 3.328125 0 C 3.421875 0 3.53125 0 3.53125 -0.1875 C 3.53125 -0.265625 3.484375 -0.296875 3.484375 -0.296875 C 3.453125 -0.3125 3.421875 -0.3125 3.203125 -0.3125 C 2.984375 -0.3125 2.9375 -0.3125 2.6875 -0.328125 C 2.390625 -0.359375 2.359375 -0.40625 2.359375 -0.53125 C 2.359375 -0.546875 2.359375 -0.609375 2.40625 -0.75 Z M 3.015625 -3.234375 "/>
</g>
<g id="glyph-1-0">
<path d="M 5.078125 -1.828125 L 4.84375 -1.828125 C 4.65625 -0.78125 4.5 -0.25 3.203125 -0.25 L 2.109375 -0.25 C 1.78125 -0.25 1.765625 -0.3125 1.765625 -0.515625 L 1.765625 -2.328125 L 2.46875 -2.328125 C 3.171875 -2.328125 3.28125 -2.125 3.28125 -1.515625 L 3.515625 -1.515625 L 3.515625 -3.40625 L 3.28125 -3.40625 C 3.28125 -2.796875 3.171875 -2.578125 2.46875 -2.578125 L 1.765625 -2.578125 L 1.765625 -4.203125 C 1.765625 -4.421875 1.78125 -4.484375 2.109375 -4.484375 L 3.15625 -4.484375 C 4.296875 -4.484375 4.5 -4.109375 4.625 -3.125 L 4.859375 -3.125 L 4.640625 -4.734375 L 0.390625 -4.734375 L 0.390625 -4.484375 L 0.5625 -4.484375 C 1.09375 -4.484375 1.109375 -4.40625 1.109375 -4.171875 L 1.109375 -0.5625 C 1.109375 -0.328125 1.09375 -0.25 0.5625 -0.25 L 0.390625 -0.25 L 0.390625 0 L 4.765625 0 Z M 5.078125 -1.828125 "/>
</g>
<g id="glyph-1-1">
<path d="M 3.59375 -2.109375 C 3.59375 -2.71875 3.296875 -3.078125 2.546875 -3.078125 C 1.96875 -3.078125 1.609375 -2.765625 1.40625 -2.390625 L 1.40625 -3.078125 L 0.375 -3 L 0.375 -2.75 C 0.84375 -2.75 0.90625 -2.703125 0.90625 -2.359375 L 0.90625 -0.546875 C 0.90625 -0.25 0.828125 -0.25 0.375 -0.25 L 0.375 0 C 0.390625 0 0.875 -0.03125 1.171875 -0.03125 C 1.421875 -0.03125 1.90625 0 1.96875 0 L 1.96875 -0.25 C 1.515625 -0.25 1.453125 -0.25 1.453125 -0.546875 L 1.453125 -1.8125 C 1.453125 -2.53125 2.03125 -2.875 2.484375 -2.875 C 2.96875 -2.875 3.03125 -2.5 3.03125 -2.140625 L 3.03125 -0.546875 C 3.03125 -0.25 2.96875 -0.25 2.515625 -0.25 L 2.515625 0 C 2.53125 0 3.015625 -0.03125 3.3125 -0.03125 C 3.5625 -0.03125 4.046875 0 4.109375 0 L 4.109375 -0.25 C 3.65625 -0.25 3.59375 -0.25 3.59375 -0.546875 Z M 3.59375 -2.109375 "/>
</g>
<g id="glyph-1-2">
<path d="M 3.515625 -1.265625 L 3.28125 -1.265625 C 3.265625 -1.109375 3.1875 -0.703125 3.09375 -0.640625 C 3.046875 -0.59375 2.515625 -0.59375 2.40625 -0.59375 L 1.125 -0.59375 C 1.859375 -1.234375 2.109375 -1.4375 2.515625 -1.765625 C 3.03125 -2.171875 3.515625 -2.609375 3.515625 -3.265625 C 3.515625 -4.109375 2.78125 -4.625 1.890625 -4.625 C 1.03125 -4.625 0.4375 -4.015625 0.4375 -3.375 C 0.4375 -3.03125 0.734375 -2.984375 0.8125 -2.984375 C 0.96875 -2.984375 1.171875 -3.109375 1.171875 -3.359375 C 1.171875 -3.484375 1.125 -3.734375 0.765625 -3.734375 C 0.984375 -4.21875 1.453125 -4.375 1.78125 -4.375 C 2.484375 -4.375 2.84375 -3.828125 2.84375 -3.265625 C 2.84375 -2.65625 2.40625 -2.1875 2.1875 -1.9375 L 0.515625 -0.265625 C 0.4375 -0.203125 0.4375 -0.1875 0.4375 0 L 3.3125 0 Z M 3.515625 -1.265625 "/>
</g>
<g id="glyph-1-3">
<path d="M 2.46875 -5.21875 C 1.15625 -4.296875 0.796875 -2.8125 0.796875 -1.75 C 0.796875 -0.765625 1.09375 0.765625 2.46875 1.734375 C 2.53125 1.734375 2.609375 1.734375 2.609375 1.65625 C 2.609375 1.609375 2.59375 1.59375 2.546875 1.546875 C 1.609375 0.703125 1.28125 -0.46875 1.28125 -1.734375 C 1.28125 -3.625 2 -4.546875 2.5625 -5.0625 C 2.59375 -5.09375 2.609375 -5.109375 2.609375 -5.140625 C 2.609375 -5.21875 2.53125 -5.21875 2.46875 -5.21875 Z M 2.46875 -5.21875 "/>
</g>
<g id="glyph-1-4">
<path d="M 3.59375 -2.21875 C 3.59375 -2.984375 3.5 -3.546875 3.1875 -4.03125 C 2.96875 -4.34375 2.53125 -4.625 1.984375 -4.625 C 0.359375 -4.625 0.359375 -2.71875 0.359375 -2.21875 C 0.359375 -1.71875 0.359375 0.140625 1.984375 0.140625 C 3.59375 0.140625 3.59375 -1.71875 3.59375 -2.21875 Z M 1.984375 -0.0625 C 1.65625 -0.0625 1.234375 -0.25 1.09375 -0.8125 C 1 -1.21875 1 -1.796875 1 -2.3125 C 1 -2.828125 1 -3.359375 1.09375 -3.734375 C 1.25 -4.28125 1.6875 -4.4375 1.984375 -4.4375 C 2.359375 -4.4375 2.71875 -4.203125 2.84375 -3.796875 C 2.953125 -3.421875 2.96875 -2.921875 2.96875 -2.3125 C 2.96875 -1.796875 2.96875 -1.28125 2.875 -0.84375 C 2.734375 -0.203125 2.265625 -0.0625 1.984375 -0.0625 Z M 1.984375 -0.0625 "/>
</g>
<g id="glyph-1-5">
<path d="M 0.625 -5.21875 C 0.578125 -5.21875 0.5 -5.21875 0.5 -5.140625 C 0.5 -5.109375 0.515625 -5.09375 0.5625 -5.03125 C 1.15625 -4.484375 1.828125 -3.546875 1.828125 -1.75 C 1.828125 -0.296875 1.375 0.8125 0.625 1.484375 C 0.5 1.609375 0.5 1.609375 0.5 1.65625 C 0.5 1.6875 0.515625 1.734375 0.578125 1.734375 C 0.671875 1.734375 1.328125 1.28125 1.796875 0.40625 C 2.09375 -0.171875 2.296875 -0.921875 2.296875 -1.734375 C 2.296875 -2.71875 2 -4.25 0.625 -5.21875 Z M 0.625 -5.21875 "/>
</g>
<g id="glyph-2-0">
<path d="M 1.46875 -0.109375 C 1.46875 0.265625 1.40625 0.71875 0.921875 1.15625 C 0.90625 1.1875 0.875 1.21875 0.875 1.25 C 0.875 1.296875 0.9375 1.34375 0.96875 1.34375 C 1.078125 1.34375 1.671875 0.78125 1.671875 -0.046875 C 1.671875 -0.46875 1.5 -0.796875 1.171875 -0.796875 C 0.953125 -0.796875 0.78125 -0.625 0.78125 -0.40625 C 0.78125 -0.1875 0.9375 0 1.1875 0 C 1.359375 0 1.46875 -0.109375 1.46875 -0.109375 Z M 1.46875 -0.109375 "/>
</g>
<g id="glyph-3-0">
<path d="M 4.75 -3.125 L 4.546875 -4.734375 L 0.390625 -4.734375 L 0.390625 -4.484375 L 0.5625 -4.484375 C 1.09375 -4.484375 1.109375 -4.40625 1.109375 -4.171875 L 1.109375 -0.5625 C 1.109375 -0.328125 1.09375 -0.25 0.5625 -0.25 L 0.390625 -0.25 L 0.390625 0 L 1.453125 -0.03125 L 2.671875 0 L 2.671875 -0.25 L 2.421875 -0.25 C 1.765625 -0.25 1.765625 -0.34375 1.765625 -0.578125 L 1.765625 -2.25 L 2.453125 -2.25 C 3.140625 -2.25 3.234375 -2.03125 3.234375 -1.421875 L 3.484375 -1.421875 L 3.484375 -3.3125 L 3.234375 -3.3125 C 3.234375 -2.703125 3.140625 -2.5 2.453125 -2.5 L 1.765625 -2.5 L 1.765625 -4.203125 C 1.765625 -4.421875 1.78125 -4.484375 2.109375 -4.484375 L 3.078125 -4.484375 C 4.203125 -4.484375 4.390625 -4.109375 4.515625 -3.125 Z M 4.75 -3.125 "/>
</g>
<g id="glyph-3-1">
<path d="M 1.90625 0 L 1.90625 -0.25 C 1.5 -0.25 1.4375 -0.25 1.4375 -0.546875 L 1.4375 -3.078125 L 0.40625 -3 L 0.40625 -2.75 C 0.84375 -2.75 0.90625 -2.703125 0.90625 -2.359375 L 0.90625 -0.546875 C 0.90625 -0.25 0.84375 -0.25 0.390625 -0.25 L 0.390625 0 C 0.390625 0 0.890625 -0.03125 1.171875 -0.03125 C 1.421875 -0.03125 1.671875 -0.015625 1.90625 0 Z M 1.53125 -4.1875 C 1.53125 -4.421875 1.359375 -4.59375 1.125 -4.59375 C 0.890625 -4.59375 0.734375 -4.40625 0.734375 -4.203125 C 0.734375 -3.984375 0.90625 -3.796875 1.125 -3.796875 C 1.359375 -3.796875 1.53125 -4 1.53125 -4.1875 Z M 1.53125 -4.1875 "/>
</g>
<g id="glyph-3-2">
<path d="M 4.109375 0 L 4.109375 -0.25 C 3.65625 -0.25 3.59375 -0.25 3.59375 -0.546875 L 3.59375 -2.109375 C 3.59375 -2.71875 3.296875 -3.078125 2.546875 -3.078125 C 1.96875 -3.078125 1.609375 -2.765625 1.40625 -2.390625 L 1.40625 -3.078125 L 0.375 -3 L 0.375 -2.75 C 0.84375 -2.75 0.90625 -2.703125 0.90625 -2.359375 L 0.90625 -0.546875 C 0.90625 -0.25 0.828125 -0.25 0.375 -0.25 L 0.375 0 C 0.375 0 0.875 -0.03125 1.171875 -0.03125 C 1.421875 -0.03125 1.90625 0 1.96875 0 L 1.96875 -0.25 C 1.515625 -0.25 1.453125 -0.25 1.453125 -0.546875 L 1.453125 -1.8125 C 1.453125 -2.53125 2.03125 -2.875 2.484375 -2.875 C 2.96875 -2.875 3.03125 -2.5 3.03125 -2.140625 L 3.03125 -0.546875 C 3.03125 -0.25 2.96875 -0.25 2.515625 -0.25 L 2.515625 0 C 2.515625 0 3.015625 -0.03125 3.3125 -0.03125 C 3.5625 -0.03125 4.046875 0 4.109375 0 Z M 4.109375 0 "/>
</g>
<g id="glyph-3-3">
<path d="M 2.609375 -0.875 L 2.609375 -1.265625 L 2.375 -1.265625 L 2.375 -0.890625 C 2.375 -0.40625 2.15625 -0.15625 1.875 -0.15625 C 1.40625 -0.15625 1.40625 -0.734375 1.40625 -0.859375 L 1.40625 -2.75 L 2.484375 -2.75 L 2.484375 -3 L 1.40625 -3 L 1.40625 -4.28125 L 1.15625 -4.28125 C 1.15625 -3.65625 0.875 -2.96875 0.203125 -2.953125 L 0.203125 -2.75 L 0.84375 -2.75 L 0.84375 -0.875 C 0.84375 -0.09375 1.4375 0.0625 1.828125 0.0625 C 2.296875 0.0625 2.609375 -0.328125 2.609375 -0.875 Z M 2.609375 -0.875 "/>
</g>
<g id="glyph-3-4">
<path d="M 3.265625 -0.84375 C 3.265625 -0.859375 3.25 -0.9375 3.140625 -0.9375 C 3.046875 -0.9375 3.03125 -0.890625 3.015625 -0.828125 C 2.796875 -0.265625 2.265625 -0.15625 2.015625 -0.15625 C 1.6875 -0.15625 1.375 -0.296875 1.171875 -0.5625 C 0.90625 -0.890625 0.90625 -1.3125 0.90625 -1.59375 L 3.0625 -1.59375 C 3.21875 -1.59375 3.265625 -1.59375 3.265625 -1.734375 C 3.265625 -2.359375 2.921875 -3.109375 1.875 -3.109375 C 0.96875 -3.109375 0.265625 -2.390625 0.265625 -1.53125 C 0.265625 -0.640625 1.046875 0.0625 1.96875 0.0625 C 2.90625 0.0625 3.265625 -0.6875 3.265625 -0.84375 Z M 2.78125 -1.765625 L 0.90625 -1.765625 C 0.984375 -2.75 1.609375 -2.90625 1.875 -2.90625 C 2.734375 -2.90625 2.765625 -1.9375 2.78125 -1.765625 Z M 2.78125 -1.765625 "/>
</g>
<g id="glyph-3-5">
<path d="M 2.1875 -1.265625 L 2.1875 -1.734375 L 0.140625 -1.734375 L 0.140625 -1.265625 Z M 2.1875 -1.265625 "/>
</g>
<g id="glyph-3-6">
<path d="M 3.6875 -1.484375 C 3.6875 -2.359375 2.9375 -3.109375 1.984375 -3.109375 C 1.015625 -3.109375 0.265625 -2.359375 0.265625 -1.484375 C 0.265625 -0.625 1.03125 0.0625 1.984375 0.0625 C 2.921875 0.0625 3.6875 -0.625 3.6875 -1.484375 Z M 3.046875 -1.546875 C 3.046875 -1.21875 3.03125 -0.84375 2.828125 -0.5625 C 2.640625 -0.296875 2.328125 -0.15625 1.984375 -0.15625 C 1.71875 -0.15625 1.34375 -0.234375 1.109375 -0.578125 C 0.921875 -0.859375 0.90625 -1.21875 0.90625 -1.546875 C 0.90625 -1.84375 0.90625 -2.265625 1.15625 -2.5625 C 1.328125 -2.765625 1.625 -2.90625 1.984375 -2.90625 C 2.390625 -2.90625 2.6875 -2.71875 2.84375 -2.5 C 3.03125 -2.234375 3.046875 -1.875 3.046875 -1.546875 Z M 3.046875 -1.546875 "/>
</g>
</g>
</defs>
<g fill="rgb(0%, 0%, 0%)" fill-opacity="1">
<use xlink:href="#glyph-0-0" x="55.431" y="12.446"/>
</g>
<g fill="rgb(0%, 0%, 0%)" fill-opacity="1">
<use xlink:href="#glyph-1-0" x="61.837" y="13.941"/>
<use xlink:href="#glyph-1-1" x="67.192219" y="13.941"/>
</g>
<g fill="rgb(0%, 0%, 0%)" fill-opacity="1">
<use xlink:href="#glyph-2-0" x="71.592" y="13.941"/>
</g>
<g fill="rgb(0%, 0%, 0%)" fill-opacity="1">
<use xlink:href="#glyph-1-2" x="73.959" y="13.941"/>
</g>
<g fill="rgb(0%, 0%, 0%)" fill-opacity="1">
<use xlink:href="#glyph-0-0" x="6.282" y="47.329"/>
</g>
<g fill="rgb(0%, 0%, 0%)" fill-opacity="1">
<use xlink:href="#glyph-1-0" x="12.688" y="48.824"/>
<use xlink:href="#glyph-1-1" x="18.043219" y="48.824"/>
</g>
<g fill="rgb(0%, 0%, 0%)" fill-opacity="1">
<use xlink:href="#glyph-0-0" x="110.917" y="47.329"/>
</g>
<g fill="rgb(0%, 0%, 0%)" fill-opacity="1">
<use xlink:href="#glyph-1-3" x="117.324" y="49.128"/>
<use xlink:href="#glyph-1-2" x="120.437127" y="49.128"/>
</g>
<g fill="rgb(0%, 0%, 0%)" fill-opacity="1">
<use xlink:href="#glyph-2-0" x="124.408" y="49.128"/>
</g>
<g fill="rgb(0%, 0%, 0%)" fill-opacity="1">
<use xlink:href="#glyph-1-2" x="126.774" y="49.128"/>
</g>
<g fill="rgb(0%, 0%, 0%)" fill-opacity="1">
<use xlink:href="#glyph-2-0" x="130.746" y="49.128"/>
</g>
<g fill="rgb(0%, 0%, 0%)" fill-opacity="1">
<use xlink:href="#glyph-1-4" x="133.112" y="49.128"/>
<use xlink:href="#glyph-1-5" x="137.08291" y="49.128"/>
</g>
<path fill="none" stroke-width="0.3985" stroke-linecap="butt" stroke-linejoin="miter" stroke="rgb(0%, 0%, 0%)" stroke-opacity="1" stroke-miterlimit="10" d="M -20.335656 9.114375 L -46.308312 -8.202031 " transform="matrix(1, 0, 0, -1, 73.488, 28.255)"/>
<path fill="none" stroke-width="0.3985" stroke-linecap="round" stroke-linejoin="round" stroke="rgb(0%, 0%, 0%)" stroke-opacity="1" stroke-miterlimit="10" d="M -2.073182 2.39222 C -1.69282 0.955571 -0.84769 0.279532 -0.000411247 0.00112296 C -0.848747 -0.27845 -1.693813 -0.954568 -2.07404 -2.391253 " transform="matrix(-0.83203, 0.55463, 0.55463, 0.83203, 27.01466, 36.5657)"/>
<g fill="rgb(0%, 0%, 0%)" fill-opacity="1">
<use xlink:href="#glyph-3-0" x="16.95" y="25.565"/>
<use xlink:href="#glyph-3-1" x="22.090425" y="25.565"/>
<use xlink:href="#glyph-3-2" x="24.345768" y="25.565"/>
<use xlink:href="#glyph-3-1" x="28.746267" y="25.565"/>
<use xlink:href="#glyph-3-3" x="31.00161" y="25.565"/>
<use xlink:href="#glyph-3-4" x="34.114737" y="25.565"/>
</g>
<path fill="none" stroke-width="0.3985" stroke-linecap="butt" stroke-linejoin="miter" stroke="rgb(0%, 0%, 0%)" stroke-opacity="1" stroke-miterlimit="10" d="M 8.945594 9.114375 L 38.203406 -8.217656 " transform="matrix(1, 0, 0, -1, 73.488, 28.255)"/>
<path fill="none" stroke-width="0.3985" stroke-linecap="round" stroke-linejoin="round" stroke="rgb(0%, 0%, 0%)" stroke-opacity="1" stroke-miterlimit="10" d="M -2.07398 2.390696 C -1.691506 0.955479 -0.849841 0.278075 0.000115263 0.000592776 C -0.850321 -0.280673 -1.693612 -0.957259 -2.071528 -2.388847 " transform="matrix(0.86034, 0.50961, 0.50961, -0.86034, 111.86288, 36.57467)"/>
<g fill="rgb(0%, 0%, 0%)" fill-opacity="1">
<use xlink:href="#glyph-3-0" x="99.578" y="25.565"/>
<use xlink:href="#glyph-3-1" x="104.718425" y="25.565"/>
<use xlink:href="#glyph-3-2" x="106.973768" y="25.565"/>
<use xlink:href="#glyph-3-1" x="111.374267" y="25.565"/>
<use xlink:href="#glyph-3-3" x="113.62961" y="25.565"/>
<use xlink:href="#glyph-3-4" x="116.742737" y="25.565"/>
<use xlink:href="#glyph-3-5" x="120.284755" y="25.565"/>
<use xlink:href="#glyph-3-3" x="122.96899" y="25.565"/>
<use xlink:href="#glyph-3-6" x="126.082117" y="25.565"/>
<use xlink:href="#glyph-3-5" x="130.053027" y="25.565"/>
<use xlink:href="#glyph-3-6" x="132.737262" y="25.565"/>
<use xlink:href="#glyph-3-2" x="136.708172" y="25.565"/>
<use xlink:href="#glyph-3-4" x="141.108672" y="25.565"/>
</g>
</svg>
